<svg xmlns="http://www.w3.org/2000/svg" xmlns:xlink="http://www.w3.org/1999/xlink" xmlns:lucid="lucid" width="1913" height="1435"><g transform="translate(0 0)" lucid:page-tab-id="0_0"><path d="M95.64 190l12-10h168v88l-10 12h-170z" stroke="#a5a5a5" stroke-width="2" fill="#f6edc5"/><path d="M95.64 190l12-10h168l-10 10z" stroke="#a5a5a5" stroke-width="2" fill="#ddd5b1"/><path d="M265.64 190l10-10v88l-10 12z" stroke="#a5a5a5" stroke-width="2" fill="#c5be9e"/><use xlink:href="#a" transform="matrix(1,0,0,1,103.63888888888891,198) translate(0 16.6)"/><path d="M331.64 389h34.5v2h-36.5v-70.2h2zm0-89.8h-2V231h-52v-2h54z" fill="#6c7777"/><path d="M277.66 231h-1.02v-2h1.02zM381.4 390l-14.26 4.64v-9.28z" fill="#6c7777"/><path d="M384.64 390l-18.5 6v-12zm-16.5 3.26l10.03-3.26-10.03-3.26z" fill="#6c7777"/><use xlink:href="#b" transform="matrix(1,0,0,1,313.1638888888889,299.2) translate(0.004999999999999005 14.4)"/><path d="M385.64 350l12-10h258v88l-10 12h-260z" stroke="#a5a5a5" stroke-width="2" fill="#f6edc5"/><path d="M385.64 350l12-10h258l-10 10z" stroke="#a5a5a5" stroke-width="2" fill="#ddd5b1"/><path d="M645.64 350l10-10v88l-10 12z" stroke="#a5a5a5" stroke-width="2" fill="#c5be9e"/><use xlink:href="#c" transform="matrix(1,0,0,1,393.6388888888889,358) translate(0 16.6)"/><path d="M748.16 391h-90.52v-2h90.52zm107.98-.02l-73.03.02v-2l73.04-.02z" fill="#6c7777"/><path d="M657.66 391h-1.02v-2h1.02zM871.4 389.98l-14.26 4.63v-9.26z" fill="#6c7777"/><path d="M874.64 389.98l-18.5 6v-12zm-16.5 3.26l10.03-3.26-10.03-3.26z" fill="#6c7777"/><use xlink:href="#b" transform="matrix(1,0,0,1,748.1638888888889,379.1896480331263) translate(0.004999999999999005 14.4)"/><path d="M955.88 591H881v9.5h-2V589h76.88zm160.76 0h-76.86v-2h74.86v-27h2z" fill="#6c7777"/><path d="M1116.64 562.03h-2V561h2zM880 615.76l-4.62-14.26h9.27z" fill="#6c7777"/><path d="M880 619l-6-18.5h12.03zm-3.25-16.5l3.26 10.03 3.27-10.03z" fill="#6c7777"/><use xlink:href="#d" transform="matrix(1,0,0,1,955.8763888888889,579.2) translate(0.005000000000002558 14.4)"/><path d="M145.64 532l14.4-12h225.6v105.6l-12 14.4h-228z" stroke="#a5a5a5" stroke-width="2" fill="#f6edc5"/><path d="M145.64 532l14.4-12h225.6l-12 12z" stroke="#a5a5a5" stroke-width="2" fill="#ddd5b1"/><path d="M373.64 532l12-12v105.6l-12 14.4z" stroke="#a5a5a5" stroke-width="2" fill="#c5be9e"/><use xlink:href="#e" transform="matrix(1,0,0,1,153.6388888888889,540) translate(0 16.6)"/><path d="M195.64 712l14.4-12h225.6v105.6l-12 14.4h-228z" stroke="#a5a5a5" stroke-width="2" fill="#f6edc5"/><path d="M195.64 712l14.4-12h225.6l-12 12z" stroke="#a5a5a5" stroke-width="2" fill="#ddd5b1"/><path d="M423.64 712l12-12v105.6l-12 14.4z" stroke="#a5a5a5" stroke-width="2" fill="#c5be9e"/><use xlink:href="#f" transform="matrix(1,0,0,1,203.6388888888889,720) translate(0 16.6)"/><path d="M631.64 931h-124v-2h122v-11h2zm104.5-110h-104.5v75.4h-2V819h106.5z" fill="#6c7777"/><path d="M507.66 931h-1.02v-2h1.02zM751.4 820l-14.26 4.64v-9.28z" fill="#6c7777"/><path d="M754.64 820l-18.5 6v-12zm-16.5 3.26l10.03-3.26-10.03-3.26z" fill="#6c7777"/><use xlink:href="#g" transform="matrix(1,0,0,1,607.713888888889,896.3901654727754) translate(0.004999999999999005 14.4)"/><path d="M596.64 761h-159v-2h157v-8.4h2zm139.5-40.4h-139.5v8.4h-2v-10.4h141.5z" fill="#6c7777"/><path d="M437.66 761h-1.02v-2h1.02zM751.4 719.6l-14.26 4.64v-9.28z" fill="#6c7777"/><path d="M754.64 719.6l-18.5 6v-12zm-16.5 3.26l10.03-3.26-10.03-3.26z" fill="#6c7777"/><use xlink:href="#g" transform="matrix(1,0,0,1,572.713888888889,729) translate(0.004999999999999005 14.4)"/><path d="M1396.14 839v2h-61.5v-.2h19.47V839zm-78.98-19.8v1.8h-59.52v-2h79v.2z" fill="#6c7777"/><path d="M1257.66 821h-1.02v-2h1.02zM1411.4 840l-14.26 4.64v-9.28z" fill="#6c7777"/><path d="M1414.64 840l-18.5 6v-12zm-16.5 3.26l10.03-3.26-10.03-3.26z" fill="#6c7777"/><use xlink:href="#h" transform="matrix(1,0,0,1,1317.1638888888892,819.1999999999999) translate(0.004999999999999005 14.4)"/><path d="M1328.87 921.4h-53.73v-2h53.73zm184.77-40.4h-127v28.6h-2V879h129z" fill="#6c7777"/><path d="M1514.64 881h-1.03v-2h1.04zM1274.14 925.04l-14.27-4.64 14.27-4.64z" fill="#6c7777"/><path d="M1275.14 926.4l-18.5-6 18.5-6zm-12.03-6l10.04 3.26v-6.52z" fill="#6c7777"/><use xlink:href="#i" transform="matrix(1,0,0,1,1328.86997929899,909.6000000000001) translate(0.004999999999999005 14.4)"/><path d="M1425.64 1137l8.4-7h291.6v61.6l-7 8.4h-293z" stroke="#a5a5a5" stroke-width="2" fill="#f6edc5"/><path d="M1425.64 1137l8.4-7h291.6l-7 7z" stroke="#a5a5a5" stroke-width="2" fill="#ddd5b1"/><path d="M1718.64 1137l7-7v61.6l-7 8.4z" stroke="#a5a5a5" stroke-width="2" fill="#c5be9e"/><use xlink:href="#j" transform="matrix(1,0,0,1,1433.638888888889,1145) translate(0 16.6)"/><use xlink:href="#k" transform="matrix(1,0,0,1,1433.638888888889,1145) translate(54.900000000000006 16.6)"/><path d="M1576.64 1128h-2v-42.2h2zm20-63.8h-2v-24.7h2z" fill="#6c7777"/><path d="M1576.64 1129h-2v-1.03h2zM1600.27 1038.5H1591l4.64-14.26z" fill="#6c7777"/><path d="M1601.65 1039.5h-12.02l6-18.5zm-9.27-2h6.52l-3.26-10.03z" fill="#6c7777"/><use xlink:href="#h" transform="matrix(1,0,0,1,1567.163888888889,1064.2) translate(0.004999999999999005 14.4)"/><path d="M1425.64 391l25.2-21h344.8v184.8l-21 25.2h-349z" stroke="#a5a5a5" stroke-width="2" fill="#f6edc5"/><path d="M1425.64 391l25.2-21h344.8l-21 21z" stroke="#a5a5a5" stroke-width="2" fill="#ddd5b1"/><path d="M1774.64 391l21-21v184.8l-21 25.2z" stroke="#a5a5a5" stroke-width="2" fill="#c5be9e"/><use xlink:href="#l" transform="matrix(1,0,0,1,1433.638888888889,399) translate(0 16.6)"/><use xlink:href="#m" transform="matrix(1,0,0,1,1433.638888888889,399) translate(64.85000000000001 16.6)"/><path d="M1596.64 658h-2v-27.2h2zm15-48.8h-2v-9.7h2z" fill="#6c7777"/><path d="M1596.64 659h-2v-1.03h2zM1615.27 598.5H1606l4.64-14.26z" fill="#6c7777"/><path d="M1616.65 599.5h-12.02l6-18.5zm-9.27-2h6.52l-3.26-10.03z" fill="#6c7777"/><use xlink:href="#g" transform="matrix(1,0,0,1,1580.213888888889,609.2) translate(0.004999999999999005 14.4)"/><path d="M666.64 1131h-89v-2h87v-93h2zm69.5-209.6h-69.5v93h-2v-95h71.5z" fill="#6c7777"/><path d="M577.66 1131h-1.02v-2h1.02zM751.4 920.4l-14.26 4.64v-9.28z" fill="#6c7777"/><path d="M754.64 920.4l-18.5 6v-12zm-16.5 3.26l10.03-3.26-10.03-3.26z" fill="#6c7777"/><use xlink:href="#g" transform="matrix(1,0,0,1,642.713888888889,1014.4000000000001) translate(0.004999999999999005 14.4)"/><path d="M395.64 110l12-10h168v88l-10 12h-170z" stroke="#a5a5a5" stroke-width="2" fill="#f6edc5"/><path d="M395.64 110l12-10h168l-10 10z" stroke="#a5a5a5" stroke-width="2" fill="#ddd5b1"/><path d="M565.64 110l10-10v88l-10 12z" stroke="#a5a5a5" stroke-width="2" fill="#c5be9e"/><use xlink:href="#a" transform="matrix(1,0,0,1,403.6388888888889,118) translate(0 16.6)"/><path d="M726.64 288.63h129.5v2h-131.5V230.6h2zm0-79.62h-2v-58h-147v-2h149z" fill="#6c7777"/><path d="M577.66 151h-1.02v-2h1.02zM871.4 289.63l-14.26 4.63V285z" fill="#6c7777"/><path d="M874.64 289.63l-18.5 6v-12.02zm-16.5 3.25l10.03-3.25-10.03-3.26z" fill="#6c7777"/><use xlink:href="#b" transform="matrix(1,0,0,1,708.1638888888889,209.0125) translate(0.004999999999999005 14.4)"/><path d="M755.64 660l48-40h452v352l-40 48h-460z" stroke="#a5a5a5" stroke-width="2" fill="#f6edc5"/><path d="M755.64 660l48-40h452l-40 40z" stroke="#a5a5a5" stroke-width="2" fill="#ddd5b1"/><path d="M1215.64 660l40-40v352l-40 48z" stroke="#a5a5a5" stroke-width="2" fill="#c5be9e"/><use xlink:href="#n" transform="matrix(1,0,0,1,763.638888888889,668) translate(0 16.6)"/><use xlink:href="#o" transform="matrix(1,0,0,1,763.638888888889,668) translate(50.6 16.6)"/><path d="M1015.64 780h160v60h-160z" stroke="#a5a5a5" stroke-width="2" fill="#f6edc5"/><path d="M995.64 785h40v20h-40zM995.64 815h40v20h-40z" stroke="#a5a5a5" stroke-width="2" fill="#f6edc5"/><use xlink:href="#p" transform="matrix(1,0,0,1,1031.638888888889,786) translate(33.074999999999996 27.6)"/><path d="M815.64 780h140v60h-140z" stroke="#a5a5a5" stroke-width="2" fill="#f6edc5"/><path d="M795.64 785h40v20h-40zM795.64 815h40v20h-40z" stroke="#a5a5a5" stroke-width="2" fill="#f6edc5"/><use xlink:href="#q" transform="matrix(1,0,0,1,827.6388888888889,786) translate(24.074999999999996 16.799999999999997)"/><use xlink:href="#r" transform="matrix(1,0,0,1,827.6388888888889,786) translate(34.025 38.4)"/><path d="M815.64 700h140v60h-140z" stroke="#a5a5a5" stroke-width="2" fill="#f6edc5"/><path d="M795.64 705h40v20h-40zM795.64 735h40v20h-40z" stroke="#a5a5a5" stroke-width="2" fill="#f6edc5"/><use xlink:href="#s" transform="matrix(1,0,0,1,827.6388888888889,706) translate(21.574999999999996 27.6)"/><path d="M1015.64 700h160v60h-160z" stroke="#a5a5a5" stroke-width="2" fill="#f6edc5"/><path d="M995.64 705h40v20h-40zM995.64 735h40v20h-40z" stroke="#a5a5a5" stroke-width="2" fill="#f6edc5"/><use xlink:href="#t" transform="matrix(1,0,0,1,1031.638888888889,706) translate(12.799999999999997 14.4)"/><use xlink:href="#u" transform="matrix(1,0,0,1,1031.638888888889,706) translate(67.6 14.4)"/><use xlink:href="#v" transform="matrix(1,0,0,1,1031.638888888889,706) translate(35.675 36)"/><use xlink:href="#w" transform="matrix(1,0,0,1,1031.638888888889,706) translate(22.549999999999997 57.6)"/><path d="M815.64 860h140v60h-140z" stroke="#a5a5a5" stroke-width="2" fill="#f6edc5"/><path d="M795.64 865h40v20h-40zM795.64 895h40v20h-40z" stroke="#a5a5a5" stroke-width="2" fill="#f6edc5"/><use xlink:href="#x" transform="matrix(1,0,0,1,827.6388888888889,866.0000000000001) translate(7.574999999999996 27.6)"/><use xlink:href="#y" transform="matrix(1,0,0,1,827.6388888888889,866.0000000000001) translate(58.525 27.6)"/><path d="M1015.64 860h160v60h-160z" stroke="#a5a5a5" stroke-width="2" fill="#f6edc5"/><path d="M995.64 865h40v20h-40zM995.64 895h40v20h-40z" stroke="#a5a5a5" stroke-width="2" fill="#f6edc5"/><use xlink:href="#z" transform="matrix(1,0,0,1,1031.638888888889,866.0000000000001) translate(40.075 16.799999999999997)"/><use xlink:href="#A" transform="matrix(1,0,0,1,1031.638888888889,866.0000000000001) translate(23.574999999999996 38.4)"/><path d="M815.64 940h140v60h-140z" stroke="#a5a5a5" stroke-width="2" fill="#f6edc5"/><path d="M795.64 945h40v20h-40zM795.64 975h40v20h-40z" stroke="#a5a5a5" stroke-width="2" fill="#f6edc5"/><use xlink:href="#B" transform="matrix(1,0,0,1,827.6388888888889,946) translate(14.100000000000001 16.799999999999997)"/><use xlink:href="#C" transform="matrix(1,0,0,1,827.6388888888889,946) translate(47.949999999999996 16.799999999999997)"/><use xlink:href="#D" transform="matrix(1,0,0,1,827.6388888888889,946) translate(36.025 38.4)"/><path d="M1015.64 940h160v60h-160z" stroke="#a5a5a5" stroke-width="2" fill="#f6edc5"/><path d="M995.64 945h40v20h-40zM995.64 975h40v20h-40z" stroke="#a5a5a5" stroke-width="2" fill="#f6edc5"/><use xlink:href="#x" transform="matrix(1,0,0,1,1031.638888888889,946) translate(15.599999999999994 27.6)"/><use xlink:href="#o" transform="matrix(1,0,0,1,1031.638888888889,946) translate(66.55 27.6)"/><path d="M1415.64 696l43.2-36h316.8v316.8l-36 43.2h-324z" stroke="#a5a5a5" stroke-width="2" fill="#f6edc5"/><path d="M1415.64 696l43.2-36h316.8l-36 36z" stroke="#a5a5a5" stroke-width="2" fill="#ddd5b1"/><path d="M1739.64 696l36-36v316.8l-36 43.2z" stroke="#a5a5a5" stroke-width="2" fill="#c5be9e"/><use xlink:href="#E" transform="matrix(1,0,0,1,1423.638888888889,704) translate(0 16.6)"/><path d="M1515.64 760h140v60h-140z" stroke="#a5a5a5" stroke-width="2" fill="#f6edc5"/><path d="M1495.64 765h40v20h-40zM1495.64 795h40v20h-40z" stroke="#a5a5a5" stroke-width="2" fill="#f6edc5"/><use xlink:href="#F" transform="matrix(1,0,0,1,1527.638888888889,766) translate(18.574999999999996 16.799999999999997)"/><use xlink:href="#G" transform="matrix(1,0,0,1,1527.638888888889,766) translate(22.574999999999996 38.4)"/><path d="M1515.64 850h140v60h-140z" stroke="#a5a5a5" stroke-width="2" fill="#f6edc5"/><path d="M1495.64 855h40v20h-40zM1495.64 885h40v20h-40z" stroke="#a5a5a5" stroke-width="2" fill="#f6edc5"/><use xlink:href="#H" transform="matrix(1,0,0,1,1527.638888888889,856) translate(10.099999999999994 16.799999999999997)"/><use xlink:href="#I" transform="matrix(1,0,0,1,1527.638888888889,856) translate(58.05 16.799999999999997)"/><use xlink:href="#J" transform="matrix(1,0,0,1,1527.638888888889,856) translate(19.099999999999994 38.4)"/><path d="M1525.64 930h160v60h-160z" stroke="#a5a5a5" stroke-width="2" fill="#f6edc5"/><path d="M1505.64 935h40v20h-40zM1505.64 965h40v20h-40z" stroke="#a5a5a5" stroke-width="2" fill="#f6edc5"/><use xlink:href="#x" transform="matrix(1,0,0,1,1541.638888888889,936) translate(15.599999999999994 27.6)"/><use xlink:href="#o" transform="matrix(1,0,0,1,1541.638888888889,936) translate(66.55 27.6)"/><path d="M875.64 236l43.2-36h436.8v316.8l-36 43.2h-444z" stroke="#a5a5a5" stroke-width="2" fill="#f6edc5"/><path d="M875.64 236l43.2-36h436.8l-36 36z" stroke="#a5a5a5" stroke-width="2" fill="#ddd5b1"/><path d="M1319.64 236l36-36v316.8l-36 43.2z" stroke="#a5a5a5" stroke-width="2" fill="#c5be9e"/><use xlink:href="#x" transform="matrix(1,0,0,1,883.6388888888889,244) translate(0 16.6)"/><use xlink:href="#K" transform="matrix(1,0,0,1,883.6388888888889,244) translate(50.95 16.6)"/><path d="M975.64 280h140v120h-140z" stroke="#a5a5a5" stroke-width="2" fill="#f6edc5"/><path d="M955.64 300h40v20h-40zM955.64 360h40v20h-40z" stroke="#a5a5a5" stroke-width="2" fill="#f6edc5"/><use xlink:href="#c" transform="matrix(1,0,0,1,987.6388888888889,292) translate(20.575000000000003 51.6)"/><path d="M975.64 400h140v120h-140z" stroke="#a5a5a5" stroke-width="2" fill="#f6edc5"/><path d="M955.64 420h40v20h-40zM955.64 480h40v20h-40z" stroke="#a5a5a5" stroke-width="2" fill="#f6edc5"/><use xlink:href="#L" transform="matrix(1,0,0,1,987.6388888888889,412) translate(33.025 40.8)"/><use xlink:href="#M" transform="matrix(1,0,0,1,987.6388888888889,412) translate(14.099999999999994 62.4)"/><path d="M145.64 874l16.8-14h343.2v123.2l-14 16.8h-346z" stroke="#a5a5a5" stroke-width="2" fill="#f6edc5"/><path d="M145.64 874l16.8-14h343.2l-14 14z" stroke="#a5a5a5" stroke-width="2" fill="#ddd5b1"/><path d="M491.64 874l14-14v123.2l-14 16.8z" stroke="#a5a5a5" stroke-width="2" fill="#c5be9e"/><use xlink:href="#N" transform="matrix(1,0,0,1,153.6388888888889,882) translate(0 16.6)"/><use xlink:href="#O" transform="matrix(1,0,0,1,153.6388888888889,882) translate(29.950000000000003 16.6)"/><path d="M255.64 900h180v80h-180z" stroke="#a5a5a5" stroke-width="2" fill="#f6edc5"/><path d="M235.64 910h40v20h-40zM235.64 950h40v20h-40z" stroke="#a5a5a5" stroke-width="2" fill="#f6edc5"/><use xlink:href="#P" transform="matrix(1,0,0,1,275.6388888888889,908) translate(24.549999999999997 24.799999999999997)"/><use xlink:href="#Q" transform="matrix(1,0,0,1,275.6388888888889,908) translate(100.45 24.799999999999997)"/><use xlink:href="#R" transform="matrix(1,0,0,1,275.6388888888889,908) translate(20.049999999999997 46.4)"/><path d="M215.64 1074l16.8-14h343.2v123.2l-14 16.8h-346z" stroke="#a5a5a5" stroke-width="2" fill="#f6edc5"/><path d="M215.64 1074l16.8-14h343.2l-14 14z" stroke="#a5a5a5" stroke-width="2" fill="#ddd5b1"/><path d="M561.64 1074l14-14v123.2l-14 16.8z" stroke="#a5a5a5" stroke-width="2" fill="#c5be9e"/><use xlink:href="#N" transform="matrix(1,0,0,1,223.6388888888889,1082) translate(0 16.6)"/><use xlink:href="#S" transform="matrix(1,0,0,1,223.6388888888889,1082) translate(29.950000000000003 16.6)"/><path d="M325.64 1090h180v80h-180z" stroke="#a5a5a5" stroke-width="2" fill="#f6edc5"/><path d="M305.64 1100h40v20h-40zM305.64 1140h40v20h-40z" stroke="#a5a5a5" stroke-width="2" fill="#f6edc5"/><g><use xlink:href="#P" transform="matrix(1,0,0,1,345.6388888888889,1098) translate(24.549999999999997 24.799999999999997)"/><use xlink:href="#Q" transform="matrix(1,0,0,1,345.6388888888889,1098) translate(100.45 24.799999999999997)"/><use xlink:href="#R" transform="matrix(1,0,0,1,345.6388888888889,1098) translate(20.049999999999997 46.4)"/></g><path d="M755.64 1107l20.4-17h479.6v149.6l-17 20.4h-483z" stroke="#a5a5a5" stroke-width="2" fill="#f6edc5"/><path d="M755.64 1107l20.4-17h479.6l-17 17z" stroke="#a5a5a5" stroke-width="2" fill="#ddd5b1"/><path d="M1238.64 1107l17-17v149.6l-17 20.4z" stroke="#a5a5a5" stroke-width="2" fill="#c5be9e"/><g><use xlink:href="#T" transform="matrix(1,0,0,1,763.638888888889,1115) translate(0 16.6)"/></g><path d="M1425.64 100h334l36 36v144h-370z" stroke="#a5a5a5" stroke-width="2" fill="#f6edc5"/><path d="M1759.64 100.95V136h35.05" stroke="#a5a5a5" stroke-width="2" fill="#f6edc5"/><g><use xlink:href="#U" transform="matrix(1,0,0,1,1430.638888888889,105) translate(109.35 67.525)"/><use xlink:href="#V" transform="matrix(1,0,0,1,1430.638888888889,105) translate(197.3 67.525)"/><use xlink:href="#W" transform="matrix(1,0,0,1,1430.638888888889,105) translate(134.05 89.125)"/><use xlink:href="#X" transform="matrix(1,0,0,1,1430.638888888889,105) translate(78.77499999999999 110.725)"/><use xlink:href="#Y" transform="matrix(1,0,0,1,1430.638888888889,105) translate(154.575 110.725)"/></g><path d="M126.14 895.8h-21V1319h939.45v2H103.13V893.8h23zm1692 425.2H1102.5v-2h713.64V750.5h-38.5v-2h38v-40.25h2.5z" fill="#6c7777"/><path d="M1777.66 750.5h-1.02v-2h1.02zM141.4 894.8l-14.26 4.64v-9.27z" fill="#6c7777"/><path d="M144.64 894.8l-18.5 6.02V888.8zm-16.5 3.26l10.03-3.25-10.03-3.25z" fill="#6c7777"/><g><use xlink:href="#i" transform="matrix(1,0,0,1,1044.5916666666667,1309.2) translate(0.004999999999999005 14.4)"/></g><path d="M196.14 1131h-21v158h936.55v2H173.13v-162h23zm1622 160H1169.6v-2h646.54V841h-38.5v-2h40.5z" fill="#6c7777"/><path d="M1777.66 841h-1.02v-2h1.02zM211.4 1130l-14.26 4.64v-9.28z" fill="#6c7777"/><path d="M214.64 1130l-18.5 6v-12zm-16.5 3.26l10.03-3.26-10.03-3.26z" fill="#6c7777"/><g><use xlink:href="#i" transform="matrix(1,0,0,1,1111.6888888888889,1279.2) translate(0.004999999999999005 14.4)"/></g><defs><path fill="#6c7878" d="M210-169c-67 3-38 105-44 169h-31v-121c0-29-5-50-35-48C34-165 62-65 56 0H25l-1-190h30c1 10-1 24 2 32 10-44 99-50 107 0 11-21 27-35 58-36 85-2 47 119 55 194h-31v-121c0-29-5-49-35-48" id="Z"/><path fill="#6c7878" d="M24-231v-30h32v30H24zM24 0v-190h32V0H24" id="aa"/><path fill="#6c7878" d="M96-169c-40 0-48 33-48 73s9 75 48 75c24 0 41-14 43-38l32 2c-6 37-31 61-74 61-59 0-76-41-82-99-10-93 101-131 147-64 4 7 5 14 7 22l-32 3c-4-21-16-35-41-35" id="ab"/><path fill="#6c7878" d="M114-163C36-179 61-72 57 0H25l-1-190h30c1 12-1 29 2 39 6-27 23-49 58-41v29" id="ac"/><path fill="#6c7878" d="M100-194c62-1 85 37 85 99 1 63-27 99-86 99S16-35 15-95c0-66 28-99 85-99zM99-20c44 1 53-31 53-75 0-43-8-75-51-75s-53 32-53 75 10 74 51 75" id="ad"/><path fill="#6c7878" d="M115-194c55 1 70 41 70 98S169 2 115 4C84 4 66-9 55-30l1 105H24l-1-265h31l2 30c10-21 28-34 59-34zm-8 174c40 0 45-34 45-75s-6-73-45-74c-42 0-51 32-51 76 0 43 10 73 51 73" id="ae"/><path fill="#6c7878" d="M106-169C34-169 62-67 57 0H25v-261h32l-1 103c12-21 28-36 61-36 89 0 53 116 60 194h-32v-121c2-32-8-49-39-48" id="af"/><path fill="#6c7878" d="M117-194c89-4 53 116 60 194h-32v-121c0-31-8-49-39-48C34-167 62-67 57 0H25l-1-190h30c1 10-1 24 2 32 11-22 29-35 61-36" id="ag"/><path fill="#6c7878" d="M100-194c63 0 86 42 84 106H49c0 40 14 67 53 68 26 1 43-12 49-29l28 8c-11 28-37 45-77 45C44 4 14-33 15-96c1-61 26-98 85-98zm52 81c6-60-76-77-97-28-3 7-6 17-6 28h103" id="ah"/><g id="a"><use transform="matrix(0.05,0,0,0.05,0,0)" xlink:href="#Z"/><use transform="matrix(0.05,0,0,0.05,14.950000000000001,0)" xlink:href="#aa"/><use transform="matrix(0.05,0,0,0.05,18.900000000000002,0)" xlink:href="#ab"/><use transform="matrix(0.05,0,0,0.05,27.900000000000002,0)" xlink:href="#ac"/><use transform="matrix(0.05,0,0,0.05,33.85,0)" xlink:href="#ad"/><use transform="matrix(0.05,0,0,0.05,43.85,0)" xlink:href="#ae"/><use transform="matrix(0.05,0,0,0.05,53.85,0)" xlink:href="#af"/><use transform="matrix(0.05,0,0,0.05,63.85,0)" xlink:href="#ad"/><use transform="matrix(0.05,0,0,0.05,73.85,0)" xlink:href="#ag"/><use transform="matrix(0.05,0,0,0.05,83.85,0)" xlink:href="#ah"/></g><path fill="#6c7878" d="M195 0l-74-108L45 0H8l94-129-87-119h37l69 98 67-98h37l-84 118L233 0h-38" id="ai"/><path fill="#6c7878" d="M30 0v-248h33v221h125V0H30" id="aj"/><path fill="#6c7878" d="M233-177c-1 41-23 64-60 70L243 0h-38l-65-103H63V0H30v-248c88 3 205-21 203 71zM63-129c60-2 137 13 137-47 0-61-80-42-137-45v92" id="ak"/><g id="b"><use transform="matrix(0.05,0,0,0.05,0,0)" xlink:href="#ai"/><use transform="matrix(0.05,0,0,0.05,12,0)" xlink:href="#aj"/><use transform="matrix(0.05,0,0,0.05,22,0)" xlink:href="#ak"/></g><path fill="#6c7878" d="M30-248c87 1 191-15 191 75 0 78-77 80-158 76V0H30v-248zm33 125c57 0 124 11 124-50 0-59-68-47-124-48v98" id="al"/><path fill="#6c7878" d="M16-82v-28h88v28H16" id="am"/><path fill="#6c7878" d="M205 0l-28-72H64L36 0H1l101-248h38L239 0h-34zm-38-99l-47-123c-12 45-31 82-46 123h93" id="an"/><g id="c"><use transform="matrix(0.05,0,0,0.05,0,0)" xlink:href="#al"/><use transform="matrix(0.05,0,0,0.05,12,0)" xlink:href="#ac"/><use transform="matrix(0.05,0,0,0.05,17.95,0)" xlink:href="#ah"/><use transform="matrix(0.05,0,0,0.05,27.950000000000003,0)" xlink:href="#am"/><use transform="matrix(0.05,0,0,0.05,33.9,0)" xlink:href="#an"/><use transform="matrix(0.05,0,0,0.05,45.9,0)" xlink:href="#Z"/><use transform="matrix(0.05,0,0,0.05,60.85,0)" xlink:href="#ae"/></g><path fill="#6c7878" d="M101-251c82-7 93 87 43 132L82-64C71-53 59-42 53-27h129V0H18c2-99 128-94 128-182 0-28-16-43-45-43s-46 15-49 41l-32-3c6-41 34-60 81-64" id="ao"/><path fill="#6c7878" d="M24-231v-30h32v30H24zM-9 49c24 4 33-6 33-30v-209h32V24c2 40-23 58-65 49V49" id="ap"/><path fill="#6c7878" d="M141-36C126-15 110 5 73 4 37 3 15-17 15-53c-1-64 63-63 125-63 3-35-9-54-41-54-24 1-41 7-42 31l-33-3c5-37 33-52 76-52 45 0 72 20 72 64v82c-1 20 7 32 28 27v20c-31 9-61-2-59-35zM48-53c0 20 12 33 32 33 41-3 63-29 60-74-43 2-92-5-92 41" id="aq"/><path fill="#6c7878" d="M143 0L79-87 56-68V0H24v-261h32v163l83-92h37l-77 82L181 0h-38" id="ar"/><g id="d"><use transform="matrix(0.05,0,0,0.05,0,0)" xlink:href="#ab"/><use transform="matrix(0.05,0,0,0.05,9,0)" xlink:href="#aa"/><use transform="matrix(0.05,0,0,0.05,12.949999999999998,0)" xlink:href="#ag"/><use transform="matrix(0.05,0,0,0.05,22.95,0)" xlink:href="#ab"/><use transform="matrix(0.05,0,0,0.05,31.950000000000003,0)" xlink:href="#af"/><use transform="matrix(0.05,0,0,0.05,41.95,0)" xlink:href="#ao"/><use transform="matrix(0.05,0,0,0.05,51.95,0)" xlink:href="#ap"/><use transform="matrix(0.05,0,0,0.05,55.900000000000006,0)" xlink:href="#aq"/><use transform="matrix(0.05,0,0,0.05,65.9,0)" xlink:href="#ab"/><use transform="matrix(0.05,0,0,0.05,74.9,0)" xlink:href="#ar"/></g><path fill="#6c7878" d="M266 0h-40l-56-210L115 0H75L2-248h35L96-30l15-64 43-154h32l59 218 59-218h35" id="as"/><path fill="#6c7878" d="M115-194c53 0 69 39 70 98 0 66-23 100-70 100C84 3 66-7 56-30L54 0H23l1-261h32v101c10-23 28-34 59-34zm-8 174c40 0 45-34 45-75 0-40-5-75-45-74-42 0-51 32-51 76 0 43 10 73 51 73" id="at"/><path fill="#6c7878" d="M212-179c-10-28-35-45-73-45-59 0-87 40-87 99 0 60 29 101 89 101 43 0 62-24 78-52l27 14C228-24 195 4 139 4 59 4 22-46 18-125c-6-104 99-153 187-111 19 9 31 26 39 46" id="au"/><g id="e"><use transform="matrix(0.05,0,0,0.05,0,0)" xlink:href="#as"/><use transform="matrix(0.05,0,0,0.05,16.599999999999998,0)" xlink:href="#ah"/><use transform="matrix(0.05,0,0,0.05,26.599999999999994,0)" xlink:href="#at"/><use transform="matrix(0.05,0,0,0.05,36.599999999999994,0)" xlink:href="#au"/><use transform="matrix(0.05,0,0,0.05,49.55,0)" xlink:href="#aq"/><use transform="matrix(0.05,0,0,0.05,59.54999999999999,0)" xlink:href="#Z"/></g><path fill="#6c7878" d="M30-248c118-7 216 8 213 122C240-48 200 0 122 0H30v-248zM63-27c89 8 146-16 146-99s-60-101-146-95v194" id="av"/><path fill="#6c7878" d="M185-189c-5-48-123-54-124 2 14 75 158 14 163 119 3 78-121 87-175 55-17-10-28-26-33-46l33-7c5 56 141 63 141-1 0-78-155-14-162-118-5-82 145-84 179-34 5 7 8 16 11 25" id="aw"/><g id="f"><use transform="matrix(0.05,0,0,0.05,0,0)" xlink:href="#av"/><use transform="matrix(0.05,0,0,0.05,12.950000000000001,0)" xlink:href="#aw"/><use transform="matrix(0.05,0,0,0.05,24.950000000000003,0)" xlink:href="#aj"/><use transform="matrix(0.05,0,0,0.05,34.95,0)" xlink:href="#ak"/></g><path fill="#6c7878" d="M197 0v-115H63V0H30v-248h33v105h134v-105h34V0h-34" id="ax"/><path fill="#6c7878" d="M240 0l2-218c-23 76-54 145-80 218h-23L58-218 59 0H30v-248h44l77 211c21-75 51-140 76-211h43V0h-30" id="ay"/><path fill="#6c7878" d="M33 0v-248h34V0H33" id="az"/><g id="g"><use transform="matrix(0.05,0,0,0.05,0,0)" xlink:href="#ax"/><use transform="matrix(0.05,0,0,0.05,12.950000000000001,0)" xlink:href="#av"/><use transform="matrix(0.05,0,0,0.05,25.900000000000002,0)" xlink:href="#ay"/><use transform="matrix(0.05,0,0,0.05,40.85,0)" xlink:href="#az"/></g><path fill="#6c7878" d="M232-93c-1 65-40 97-104 97C67 4 28-28 28-90v-158h33c8 89-33 224 67 224 102 0 64-133 71-224h33v155" id="aA"/><path fill="#6c7878" d="M160-131c35 5 61 23 61 61C221 17 115-2 30 0v-248c76 3 177-17 177 60 0 33-19 50-47 57zm-97-11c50-1 110 9 110-42 0-47-63-36-110-37v79zm0 115c55-2 124 14 124-45 0-56-70-42-124-44v89" id="aB"/><g id="h"><use transform="matrix(0.05,0,0,0.05,0,0)" xlink:href="#aA"/><use transform="matrix(0.05,0,0,0.05,12.950000000000001,0)" xlink:href="#aw"/><use transform="matrix(0.05,0,0,0.05,24.950000000000003,0)" xlink:href="#aB"/></g><path fill="#6c7878" d="M127-220V0H93v-220H8v-28h204v28h-85" id="aC"/><path fill="#6c7878" d="M0 4l72-265h28L28 4H0" id="aD"/><g id="i"><use transform="matrix(0.05,0,0,0.05,0,0)" xlink:href="#aC"/><use transform="matrix(0.05,0,0,0.05,10.950000000000001,0)" xlink:href="#au"/><use transform="matrix(0.05,0,0,0.05,23.900000000000002,0)" xlink:href="#al"/><use transform="matrix(0.05,0,0,0.05,35.900000000000006,0)" xlink:href="#aD"/><use transform="matrix(0.05,0,0,0.05,40.900000000000006,0)" xlink:href="#az"/><use transform="matrix(0.05,0,0,0.05,45.900000000000006,0)" xlink:href="#al"/></g><g id="j"><use transform="matrix(0.05,0,0,0.05,0,0)" xlink:href="#ay"/><use transform="matrix(0.05,0,0,0.05,14.950000000000001,0)" xlink:href="#aq"/><use transform="matrix(0.05,0,0,0.05,24.950000000000003,0)" xlink:href="#ab"/><use transform="matrix(0.05,0,0,0.05,33.95,0)" xlink:href="#ac"/><use transform="matrix(0.05,0,0,0.05,39.900000000000006,0)" xlink:href="#ad"/></g><path fill="#6c7878" d="M194 0L95-120 63-95V0H30v-248h33v124l119-124h40L117-140 236 0h-42" id="aE"/><path fill="#6c7878" d="M179-190L93 31C79 59 56 82 12 73V49c39 6 53-20 64-50L1-190h34L92-34l54-156h33" id="aF"/><path fill="#6c7878" d="M85-194c31 0 48 13 60 33l-1-100h32l1 261h-30c-2-10 0-23-3-31C134-8 116 4 85 4 32 4 16-35 15-94c0-66 23-100 70-100zm9 24c-40 0-46 34-46 75 0 40 6 74 45 74 42 0 51-32 51-76 0-42-9-74-50-73" id="aG"/><g id="k"><use transform="matrix(0.05,0,0,0.05,0,0)" xlink:href="#aE"/><use transform="matrix(0.05,0,0,0.05,12,0)" xlink:href="#ah"/><use transform="matrix(0.05,0,0,0.05,22,0)" xlink:href="#aF"/><use transform="matrix(0.05,0,0,0.05,31,0)" xlink:href="#at"/><use transform="matrix(0.05,0,0,0.05,41,0)" xlink:href="#ad"/><use transform="matrix(0.05,0,0,0.05,51,0)" xlink:href="#aq"/><use transform="matrix(0.05,0,0,0.05,61,0)" xlink:href="#ac"/><use transform="matrix(0.05,0,0,0.05,66.95,0)" xlink:href="#aG"/></g><path fill="#6c7878" d="M59-47c-2 24 18 29 38 22v24C64 9 27 4 27-40v-127H5v-23h24l9-43h21v43h35v23H59v120" id="aH"/><g id="l"><use transform="matrix(0.05,0,0,0.05,0,0)" xlink:href="#ay"/><use transform="matrix(0.05,0,0,0.05,14.950000000000001,0)" xlink:href="#ad"/><use transform="matrix(0.05,0,0,0.05,24.950000000000003,0)" xlink:href="#ag"/><use transform="matrix(0.05,0,0,0.05,34.95,0)" xlink:href="#aa"/><use transform="matrix(0.05,0,0,0.05,38.900000000000006,0)" xlink:href="#aH"/><use transform="matrix(0.05,0,0,0.05,43.900000000000006,0)" xlink:href="#ad"/><use transform="matrix(0.05,0,0,0.05,53.900000000000006,0)" xlink:href="#ac"/></g><path fill="#6c7878" d="M87 75C49 33 22-17 22-94c0-76 28-126 65-167h31c-38 41-64 92-64 168S80 34 118 75H87" id="aI"/><path fill="#6c7878" d="M177-190C167-65 218 103 67 71c-23-6-38-20-44-43l32-5c15 47 100 32 89-28v-30C133-14 115 1 83 1 29 1 15-40 15-95c0-56 16-97 71-98 29-1 48 16 59 35 1-10 0-23 2-32h30zM94-22c36 0 50-32 50-73 0-42-14-75-50-75-39 0-46 34-46 75s6 73 46 73" id="aJ"/><path fill="#6c7878" d="M135-143c-3-34-86-38-87 0 15 53 115 12 119 90S17 21 10-45l28-5c4 36 97 45 98 0-10-56-113-15-118-90-4-57 82-63 122-42 12 7 21 19 24 35" id="aK"/><path fill="#6c7878" d="M24 0v-261h32V0H24" id="aL"/><path fill="#6c7878" d="M33-261c38 41 65 92 65 168S71 34 33 75H2C39 34 66-17 66-93S39-220 2-261h31" id="aM"/><g id="m"><use transform="matrix(0.05,0,0,0.05,0,0)" xlink:href="#aI"/><use transform="matrix(0.05,0,0,0.05,5.95,0)" xlink:href="#aJ"/><use transform="matrix(0.05,0,0,0.05,15.949999999999998,0)" xlink:href="#ac"/><use transform="matrix(0.05,0,0,0.05,21.9,0)" xlink:href="#aq"/><use transform="matrix(0.05,0,0,0.05,31.899999999999995,0)" xlink:href="#aF"/><use transform="matrix(0.05,0,0,0.05,40.9,0)" xlink:href="#aK"/><use transform="matrix(0.05,0,0,0.05,49.9,0)" xlink:href="#ab"/><use transform="matrix(0.05,0,0,0.05,58.900000000000006,0)" xlink:href="#aq"/><use transform="matrix(0.05,0,0,0.05,68.9,0)" xlink:href="#aL"/><use transform="matrix(0.05,0,0,0.05,72.85000000000001,0)" xlink:href="#ah"/><use transform="matrix(0.05,0,0,0.05,82.85000000000001,0)" xlink:href="#aM"/></g><path fill="#6c7878" d="M137 0h-34L2-248h35l83 218 83-218h36" id="aN"/><g id="n"><use transform="matrix(0.05,0,0,0.05,0,0)" xlink:href="#aN"/><use transform="matrix(0.05,0,0,0.05,11.65,0)" xlink:href="#aa"/><use transform="matrix(0.05,0,0,0.05,15.600000000000001,0)" xlink:href="#aG"/><use transform="matrix(0.05,0,0,0.05,25.6,0)" xlink:href="#ah"/><use transform="matrix(0.05,0,0,0.05,35.6,0)" xlink:href="#ad"/></g><path fill="#6c7878" d="M141 0L90-78 38 0H4l68-98-65-92h35l48 74 47-74h35l-64 92 68 98h-35" id="aO"/><g id="o"><use transform="matrix(0.05,0,0,0.05,0,0)" xlink:href="#ay"/><use transform="matrix(0.05,0,0,0.05,14.950000000000001,0)" xlink:href="#aa"/><use transform="matrix(0.05,0,0,0.05,18.900000000000002,0)" xlink:href="#aO"/><use transform="matrix(0.05,0,0,0.05,27.900000000000002,0)" xlink:href="#ah"/><use transform="matrix(0.05,0,0,0.05,37.900000000000006,0)" xlink:href="#ac"/></g><g id="p"><use transform="matrix(0.05,0,0,0.05,0,0)" xlink:href="#ay"/><use transform="matrix(0.05,0,0,0.05,14.950000000000001,0)" xlink:href="#ad"/><use transform="matrix(0.05,0,0,0.05,24.950000000000003,0)" xlink:href="#ag"/><use transform="matrix(0.05,0,0,0.05,34.95,0)" xlink:href="#aa"/><use transform="matrix(0.05,0,0,0.05,38.900000000000006,0)" xlink:href="#aH"/><use transform="matrix(0.05,0,0,0.05,43.900000000000006,0)" xlink:href="#ad"/><use transform="matrix(0.05,0,0,0.05,53.900000000000006,0)" xlink:href="#ac"/></g><g id="q"><use transform="matrix(0.05,0,0,0.05,0,0)" xlink:href="#au"/><use transform="matrix(0.05,0,0,0.05,12.950000000000001,0)" xlink:href="#af"/><use transform="matrix(0.05,0,0,0.05,22.950000000000003,0)" xlink:href="#ac"/><use transform="matrix(0.05,0,0,0.05,28.900000000000002,0)" xlink:href="#ad"/><use transform="matrix(0.05,0,0,0.05,38.900000000000006,0)" xlink:href="#Z"/><use transform="matrix(0.05,0,0,0.05,53.85,0)" xlink:href="#aq"/></g><g id="r"><use transform="matrix(0.05,0,0,0.05,0,0)" xlink:href="#ar"/><use transform="matrix(0.05,0,0,0.05,9,0)" xlink:href="#ah"/><use transform="matrix(0.05,0,0,0.05,19,0)" xlink:href="#aF"/><use transform="matrix(0.05,0,0,0.05,28,0)" xlink:href="#ah"/><use transform="matrix(0.05,0,0,0.05,38,0)" xlink:href="#ac"/></g><path fill="#6c7878" d="M206 0h-36l-40-164L89 0H53L-1-190h32L70-26l43-164h34l41 164 42-164h31" id="aP"/><g id="s"><use transform="matrix(0.05,0,0,0.05,0,0)" xlink:href="#aw"/><use transform="matrix(0.05,0,0,0.05,12,0)" xlink:href="#aP"/><use transform="matrix(0.05,0,0,0.05,24.950000000000003,0)" xlink:href="#aa"/><use transform="matrix(0.05,0,0,0.05,28.900000000000002,0)" xlink:href="#aH"/><use transform="matrix(0.05,0,0,0.05,33.900000000000006,0)" xlink:href="#ab"/><use transform="matrix(0.05,0,0,0.05,42.900000000000006,0)" xlink:href="#af"/><use transform="matrix(0.05,0,0,0.05,52.900000000000006,0)" xlink:href="#ah"/><use transform="matrix(0.05,0,0,0.05,62.900000000000006,0)" xlink:href="#ac"/></g><g id="t"><use transform="matrix(0.05,0,0,0.05,0,0)" xlink:href="#av"/><use transform="matrix(0.05,0,0,0.05,12.950000000000001,0)" xlink:href="#aa"/><use transform="matrix(0.05,0,0,0.05,16.900000000000002,0)" xlink:href="#aJ"/><use transform="matrix(0.05,0,0,0.05,26.900000000000002,0)" xlink:href="#aa"/><use transform="matrix(0.05,0,0,0.05,30.85,0)" xlink:href="#aH"/><use transform="matrix(0.05,0,0,0.05,35.85,0)" xlink:href="#aq"/><use transform="matrix(0.05,0,0,0.05,45.85,0)" xlink:href="#aL"/></g><g id="u"><use transform="matrix(0.05,0,0,0.05,0,0)" xlink:href="#aN"/><use transform="matrix(0.05,0,0,0.05,11.65,0)" xlink:href="#aa"/><use transform="matrix(0.05,0,0,0.05,15.600000000000001,0)" xlink:href="#aG"/><use transform="matrix(0.05,0,0,0.05,25.6,0)" xlink:href="#ah"/><use transform="matrix(0.05,0,0,0.05,35.6,0)" xlink:href="#ad"/></g><path fill="#6c7878" d="M30 0v-248h187v28H63v79h144v27H63v87h162V0H30" id="aQ"/><path fill="#6c7878" d="M101-234c-31-9-42 10-38 44h38v23H63V0H32v-167H5v-23h27c-7-52 17-82 69-68v24" id="aR"/><g id="v"><use transform="matrix(0.05,0,0,0.05,0,0)" xlink:href="#aQ"/><use transform="matrix(0.05,0,0,0.05,12,0)" xlink:href="#aR"/><use transform="matrix(0.05,0,0,0.05,16.65,0)" xlink:href="#aR"/><use transform="matrix(0.05,0,0,0.05,21.65,0)" xlink:href="#ah"/><use transform="matrix(0.05,0,0,0.05,31.649999999999995,0)" xlink:href="#ab"/><use transform="matrix(0.05,0,0,0.05,40.65,0)" xlink:href="#aH"/><use transform="matrix(0.05,0,0,0.05,45.65,0)" xlink:href="#aK"/></g><g id="w"><use transform="matrix(0.05,0,0,0.05,0,0)" xlink:href="#al"/><use transform="matrix(0.05,0,0,0.05,12,0)" xlink:href="#ac"/><use transform="matrix(0.05,0,0,0.05,17.95,0)" xlink:href="#ad"/><use transform="matrix(0.05,0,0,0.05,27.950000000000003,0)" xlink:href="#ab"/><use transform="matrix(0.05,0,0,0.05,36.95,0)" xlink:href="#ah"/><use transform="matrix(0.05,0,0,0.05,46.95,0)" xlink:href="#aK"/><use transform="matrix(0.05,0,0,0.05,55.95,0)" xlink:href="#aK"/><use transform="matrix(0.05,0,0,0.05,64.95,0)" xlink:href="#ad"/><use transform="matrix(0.05,0,0,0.05,74.95,0)" xlink:href="#ac"/></g><path fill="#6c7878" d="M84 4C-5 8 30-112 23-190h32v120c0 31 7 50 39 49 72-2 45-101 50-169h31l1 190h-30c-1-10 1-25-2-33-11 22-28 36-60 37" id="aS"/><g id="x"><use transform="matrix(0.05,0,0,0.05,0,0)" xlink:href="#an"/><use transform="matrix(0.05,0,0,0.05,12,0)" xlink:href="#aS"/><use transform="matrix(0.05,0,0,0.05,22,0)" xlink:href="#aG"/><use transform="matrix(0.05,0,0,0.05,32,0)" xlink:href="#aa"/><use transform="matrix(0.05,0,0,0.05,35.95,0)" xlink:href="#ad"/></g><g id="y"><use transform="matrix(0.05,0,0,0.05,0,0)" xlink:href="#av"/><use transform="matrix(0.05,0,0,0.05,12.950000000000001,0)" xlink:href="#ah"/><use transform="matrix(0.05,0,0,0.05,22.950000000000003,0)" xlink:href="#aL"/><use transform="matrix(0.05,0,0,0.05,26.900000000000002,0)" xlink:href="#aq"/><use transform="matrix(0.05,0,0,0.05,36.900000000000006,0)" xlink:href="#aF"/></g><g id="z"><use transform="matrix(0.05,0,0,0.05,0,0)" xlink:href="#ax"/><use transform="matrix(0.05,0,0,0.05,12.950000000000001,0)" xlink:href="#av"/><use transform="matrix(0.05,0,0,0.05,25.900000000000002,0)" xlink:href="#ay"/><use transform="matrix(0.05,0,0,0.05,40.85,0)" xlink:href="#az"/></g><path fill="#6c7878" d="M108 0H70L1-190h34L89-25l56-165h34" id="aT"/><g id="A"><use transform="matrix(0.05,0,0,0.05,0,0)" xlink:href="#au"/><use transform="matrix(0.05,0,0,0.05,12.950000000000001,0)" xlink:href="#ad"/><use transform="matrix(0.05,0,0,0.05,22.950000000000003,0)" xlink:href="#ag"/><use transform="matrix(0.05,0,0,0.05,32.95,0)" xlink:href="#aT"/><use transform="matrix(0.05,0,0,0.05,41.95,0)" xlink:href="#ah"/><use transform="matrix(0.05,0,0,0.05,51.95,0)" xlink:href="#ac"/><use transform="matrix(0.05,0,0,0.05,57.900000000000006,0)" xlink:href="#aH"/><use transform="matrix(0.05,0,0,0.05,62.900000000000006,0)" xlink:href="#ah"/><use transform="matrix(0.05,0,0,0.05,72.9,0)" xlink:href="#ac"/></g><g id="B"><use transform="matrix(0.05,0,0,0.05,0,0)" xlink:href="#aw"/><use transform="matrix(0.05,0,0,0.05,12,0)" xlink:href="#aH"/><use transform="matrix(0.05,0,0,0.05,17,0)" xlink:href="#aa"/><use transform="matrix(0.05,0,0,0.05,20.95,0)" xlink:href="#aL"/><use transform="matrix(0.05,0,0,0.05,24.9,0)" xlink:href="#aL"/></g><g id="C"><use transform="matrix(0.05,0,0,0.05,0,0)" xlink:href="#az"/><use transform="matrix(0.05,0,0,0.05,5,0)" xlink:href="#Z"/><use transform="matrix(0.05,0,0,0.05,19.950000000000003,0)" xlink:href="#aq"/><use transform="matrix(0.05,0,0,0.05,29.950000000000003,0)" xlink:href="#aJ"/><use transform="matrix(0.05,0,0,0.05,39.95,0)" xlink:href="#ah"/></g><g id="D"><use transform="matrix(0.05,0,0,0.05,0,0)" xlink:href="#aK"/><use transform="matrix(0.05,0,0,0.05,9,0)" xlink:href="#aH"/><use transform="matrix(0.05,0,0,0.05,14,0)" xlink:href="#ad"/><use transform="matrix(0.05,0,0,0.05,24,0)" xlink:href="#ac"/><use transform="matrix(0.05,0,0,0.05,29.950000000000003,0)" xlink:href="#ah"/></g><g id="E"><use transform="matrix(0.05,0,0,0.05,0,0)" xlink:href="#al"/><use transform="matrix(0.05,0,0,0.05,12,0)" xlink:href="#au"/></g><g id="F"><use transform="matrix(0.05,0,0,0.05,0,0)" xlink:href="#ac"/><use transform="matrix(0.05,0,0,0.05,5.95,0)" xlink:href="#ah"/><use transform="matrix(0.05,0,0,0.05,15.949999999999998,0)" xlink:href="#ab"/><use transform="matrix(0.05,0,0,0.05,24.95,0)" xlink:href="#ad"/><use transform="matrix(0.05,0,0,0.05,34.95,0)" xlink:href="#ac"/><use transform="matrix(0.05,0,0,0.05,40.900000000000006,0)" xlink:href="#aG"/><use transform="matrix(0.05,0,0,0.05,50.900000000000006,0)" xlink:href="#aa"/><use transform="matrix(0.05,0,0,0.05,54.85,0)" xlink:href="#ag"/><use transform="matrix(0.05,0,0,0.05,64.85000000000001,0)" xlink:href="#aJ"/></g><g id="G"><use transform="matrix(0.05,0,0,0.05,0,0)" xlink:href="#ae"/><use transform="matrix(0.05,0,0,0.05,10,0)" xlink:href="#ac"/><use transform="matrix(0.05,0,0,0.05,15.949999999999998,0)" xlink:href="#ad"/><use transform="matrix(0.05,0,0,0.05,25.950000000000003,0)" xlink:href="#aJ"/><use transform="matrix(0.05,0,0,0.05,35.95,0)" xlink:href="#ac"/><use transform="matrix(0.05,0,0,0.05,41.900000000000006,0)" xlink:href="#aq"/><use transform="matrix(0.05,0,0,0.05,51.900000000000006,0)" xlink:href="#Z"/></g><g id="H"><use transform="matrix(0.05,0,0,0.05,0,0)" xlink:href="#aT"/><use transform="matrix(0.05,0,0,0.05,9,0)" xlink:href="#aa"/><use transform="matrix(0.05,0,0,0.05,12.949999999999998,0)" xlink:href="#aG"/><use transform="matrix(0.05,0,0,0.05,22.95,0)" xlink:href="#ah"/><use transform="matrix(0.05,0,0,0.05,32.95,0)" xlink:href="#ad"/></g><g id="I"><use transform="matrix(0.05,0,0,0.05,0,0)" xlink:href="#Z"/><use transform="matrix(0.05,0,0,0.05,14.950000000000001,0)" xlink:href="#aa"/><use transform="matrix(0.05,0,0,0.05,18.900000000000002,0)" xlink:href="#aO"/><use transform="matrix(0.05,0,0,0.05,27.900000000000002,0)" xlink:href="#ah"/><use transform="matrix(0.05,0,0,0.05,37.900000000000006,0)" xlink:href="#ac"/></g><g id="J"><use transform="matrix(0.05,0,0,0.05,0,0)" xlink:href="#ab"/><use transform="matrix(0.05,0,0,0.05,9,0)" xlink:href="#ad"/><use transform="matrix(0.05,0,0,0.05,19,0)" xlink:href="#ag"/><use transform="matrix(0.05,0,0,0.05,29,0)" xlink:href="#aH"/><use transform="matrix(0.05,0,0,0.05,34,0)" xlink:href="#ac"/><use transform="matrix(0.05,0,0,0.05,39.95,0)" xlink:href="#ad"/><use transform="matrix(0.05,0,0,0.05,49.95,0)" xlink:href="#aL"/><use transform="matrix(0.05,0,0,0.05,53.900000000000006,0)" xlink:href="#aL"/><use transform="matrix(0.05,0,0,0.05,57.85,0)" xlink:href="#ah"/><use transform="matrix(0.05,0,0,0.05,67.85000000000001,0)" xlink:href="#ac"/></g><g id="K"><use transform="matrix(0.05,0,0,0.05,0,0)" xlink:href="#az"/><use transform="matrix(0.05,0,0,0.05,5,0)" xlink:href="#ag"/><use transform="matrix(0.05,0,0,0.05,15,0)" xlink:href="#aH"/><use transform="matrix(0.05,0,0,0.05,20,0)" xlink:href="#ah"/><use transform="matrix(0.05,0,0,0.05,30,0)" xlink:href="#ac"/><use transform="matrix(0.05,0,0,0.05,35.95,0)" xlink:href="#aR"/><use transform="matrix(0.05,0,0,0.05,40.95,0)" xlink:href="#aq"/><use transform="matrix(0.05,0,0,0.05,50.95,0)" xlink:href="#ab"/><use transform="matrix(0.05,0,0,0.05,59.95,0)" xlink:href="#ah"/></g><g id="L"><use transform="matrix(0.05,0,0,0.05,0,0)" xlink:href="#an"/><use transform="matrix(0.05,0,0,0.05,12,0)" xlink:href="#aS"/><use transform="matrix(0.05,0,0,0.05,22,0)" xlink:href="#aG"/><use transform="matrix(0.05,0,0,0.05,32,0)" xlink:href="#aa"/><use transform="matrix(0.05,0,0,0.05,35.95,0)" xlink:href="#ad"/></g><g id="M"><use transform="matrix(0.05,0,0,0.05,0,0)" xlink:href="#ay"/><use transform="matrix(0.05,0,0,0.05,14.950000000000001,0)" xlink:href="#ad"/><use transform="matrix(0.05,0,0,0.05,24.950000000000003,0)" xlink:href="#ag"/><use transform="matrix(0.05,0,0,0.05,34.95,0)" xlink:href="#aa"/><use transform="matrix(0.05,0,0,0.05,38.900000000000006,0)" xlink:href="#aH"/><use transform="matrix(0.05,0,0,0.05,43.900000000000006,0)" xlink:href="#ad"/><use transform="matrix(0.05,0,0,0.05,53.900000000000006,0)" xlink:href="#ac"/><use transform="matrix(0.05,0,0,0.05,59.85,0)" xlink:href="#aa"/><use transform="matrix(0.05,0,0,0.05,63.80000000000001,0)" xlink:href="#ag"/><use transform="matrix(0.05,0,0,0.05,73.80000000000001,0)" xlink:href="#aJ"/></g><g id="N"><use transform="matrix(0.05,0,0,0.05,0,0)" xlink:href="#al"/><use transform="matrix(0.05,0,0,0.05,12,0)" xlink:href="#au"/></g><use transform="matrix(0.05,0,0,0.05,0,0)" xlink:href="#an" id="O"/><g id="P"><use transform="matrix(0.05,0,0,0.05,0,0)" xlink:href="#aw"/><use transform="matrix(0.05,0,0,0.05,12,0)" xlink:href="#ad"/><use transform="matrix(0.05,0,0,0.05,22,0)" xlink:href="#aR"/><use transform="matrix(0.05,0,0,0.05,27,0)" xlink:href="#aH"/><use transform="matrix(0.05,0,0,0.05,32,0)" xlink:href="#aP"/><use transform="matrix(0.05,0,0,0.05,44.95,0)" xlink:href="#aq"/><use transform="matrix(0.05,0,0,0.05,54.95,0)" xlink:href="#ac"/><use transform="matrix(0.05,0,0,0.05,60.900000000000006,0)" xlink:href="#ah"/></g><g id="Q"><use transform="matrix(0.05,0,0,0.05,0,0)" xlink:href="#aH"/><use transform="matrix(0.05,0,0,0.05,5,0)" xlink:href="#ad"/></g><g id="R"><use transform="matrix(0.05,0,0,0.05,0,0)" xlink:href="#aG"/><use transform="matrix(0.05,0,0,0.05,10,0)" xlink:href="#ah"/><use transform="matrix(0.05,0,0,0.05,20,0)" xlink:href="#Z"/><use transform="matrix(0.05,0,0,0.05,34.95,0)" xlink:href="#ad"/><use transform="matrix(0.05,0,0,0.05,44.95,0)" xlink:href="#ag"/><use transform="matrix(0.05,0,0,0.05,54.95,0)" xlink:href="#aK"/><use transform="matrix(0.05,0,0,0.05,63.95,0)" xlink:href="#aH"/><use transform="matrix(0.05,0,0,0.05,68.95,0)" xlink:href="#ac"/><use transform="matrix(0.05,0,0,0.05,74.9,0)" xlink:href="#aq"/><use transform="matrix(0.05,0,0,0.05,84.9,0)" xlink:href="#aH"/><use transform="matrix(0.05,0,0,0.05,89.9,0)" xlink:href="#ah"/></g><use transform="matrix(0.05,0,0,0.05,0,0)" xlink:href="#aB" id="S"/><g id="T"><use transform="matrix(0.05,0,0,0.05,0,0)" xlink:href="#aj"/><use transform="matrix(0.05,0,0,0.05,10,0)" xlink:href="#aa"/><use transform="matrix(0.05,0,0,0.05,13.949999999999998,0)" xlink:href="#aJ"/><use transform="matrix(0.05,0,0,0.05,23.95,0)" xlink:href="#af"/><use transform="matrix(0.05,0,0,0.05,33.95,0)" xlink:href="#aH"/><use transform="matrix(0.05,0,0,0.05,38.95,0)" xlink:href="#aa"/><use transform="matrix(0.05,0,0,0.05,42.900000000000006,0)" xlink:href="#ag"/><use transform="matrix(0.05,0,0,0.05,52.900000000000006,0)" xlink:href="#aJ"/></g><path fill="#6c7878" d="M109-170H84l-4-78h32zm-65 0H19l-4-78h33" id="aU"/><path fill="#6c7878" d="M137-103V0h-34v-103L8-248h37l75 118 75-118h37" id="aV"/><g id="U"><use transform="matrix(0.05,0,0,0.05,0,0)" xlink:href="#aU"/><use transform="matrix(0.05,0,0,0.05,6.3500000000000005,0)" xlink:href="#aV"/><use transform="matrix(0.05,0,0,0.05,16.7,0)" xlink:href="#ad"/><use transform="matrix(0.05,0,0,0.05,26.700000000000003,0)" xlink:href="#aS"/><use transform="matrix(0.05,0,0,0.05,36.7,0)" xlink:href="#aC"/><use transform="matrix(0.05,0,0,0.05,47.00000000000001,0)" xlink:href="#aS"/><use transform="matrix(0.05,0,0,0.05,57,0)" xlink:href="#at"/><use transform="matrix(0.05,0,0,0.05,67,0)" xlink:href="#ah"/><use transform="matrix(0.05,0,0,0.05,77,0)" xlink:href="#ac"/></g><g id="V"><use transform="matrix(0.05,0,0,0.05,0,0)" xlink:href="#aw"/><use transform="matrix(0.05,0,0,0.05,12,0)" xlink:href="#ah"/><use transform="matrix(0.05,0,0,0.05,22,0)" xlink:href="#aH"/><use transform="matrix(0.05,0,0,0.05,27,0)" xlink:href="#aS"/><use transform="matrix(0.05,0,0,0.05,37,0)" xlink:href="#ae"/><use transform="matrix(0.05,0,0,0.05,47,0)" xlink:href="#aU"/></g><path fill="#6c7878" d="M101-251c68 0 85 55 85 127S166 4 100 4C33 4 14-52 14-124c0-73 17-127 87-127zm-1 229c47 0 54-49 54-102s-4-102-53-102c-51 0-55 48-55 102 0 53 5 102 54 102" id="aW"/><path fill="#6c7878" d="M110-160c48 1 74 30 74 79 0 53-28 85-80 85-65 0-83-55-86-122-5-90 50-162 133-122 14 7 22 21 27 39l-31 6c-5-40-67-38-82-6-9 19-15 44-15 74 11-20 30-34 60-33zm-7 138c34 0 49-23 49-58s-16-56-50-56c-29 0-50 16-49 49 1 36 15 65 50 65" id="aX"/><path fill="#6c7878" d="M27 0v-27h64v-190l-56 39v-29l58-41h29v221h61V0H27" id="aY"/><g id="W"><use transform="matrix(0.05,0,0,0.05,0,0)" xlink:href="#ao"/><use transform="matrix(0.05,0,0,0.05,10,0)" xlink:href="#aW"/><use transform="matrix(0.05,0,0,0.05,20,0)" xlink:href="#ao"/><use transform="matrix(0.05,0,0,0.05,30,0)" xlink:href="#aW"/><use transform="matrix(0.05,0,0,0.05,40,0)" xlink:href="#am"/><use transform="matrix(0.05,0,0,0.05,45.95,0)" xlink:href="#aW"/><use transform="matrix(0.05,0,0,0.05,55.95,0)" xlink:href="#aX"/><use transform="matrix(0.05,0,0,0.05,65.95,0)" xlink:href="#am"/><use transform="matrix(0.05,0,0,0.05,71.9,0)" xlink:href="#aY"/><use transform="matrix(0.05,0,0,0.05,81.9,0)" xlink:href="#aX"/></g><g id="X"><use transform="matrix(0.05,0,0,0.05,0,0)" xlink:href="#au"/><use transform="matrix(0.05,0,0,0.05,12.950000000000001,0)" xlink:href="#af"/><use transform="matrix(0.05,0,0,0.05,22.950000000000003,0)" xlink:href="#ac"/><use transform="matrix(0.05,0,0,0.05,28.900000000000002,0)" xlink:href="#aa"/><use transform="matrix(0.05,0,0,0.05,32.85,0)" xlink:href="#aK"/><use transform="matrix(0.05,0,0,0.05,41.85,0)" xlink:href="#aH"/><use transform="matrix(0.05,0,0,0.05,46.85,0)" xlink:href="#aa"/><use transform="matrix(0.05,0,0,0.05,50.800000000000004,0)" xlink:href="#aq"/><use transform="matrix(0.05,0,0,0.05,60.800000000000004,0)" xlink:href="#ag"/></g><g id="Y"><use transform="matrix(0.05,0,0,0.05,0,0)" xlink:href="#al"/><use transform="matrix(0.05,0,0,0.05,12,0)" xlink:href="#ac"/><use transform="matrix(0.05,0,0,0.05,17.95,0)" xlink:href="#aa"/><use transform="matrix(0.05,0,0,0.05,21.9,0)" xlink:href="#ad"/><use transform="matrix(0.05,0,0,0.05,31.899999999999995,0)" xlink:href="#ac"/><use transform="matrix(0.05,0,0,0.05,37.85,0)" xlink:href="#am"/><use transform="matrix(0.05,0,0,0.05,43.800000000000004,0)" xlink:href="#ay"/><use transform="matrix(0.05,0,0,0.05,58.75,0)" xlink:href="#aq"/><use transform="matrix(0.05,0,0,0.05,68.75,0)" xlink:href="#Z"/><use transform="matrix(0.05,0,0,0.05,83.7,0)" xlink:href="#aS"/><use transform="matrix(0.05,0,0,0.05,93.7,0)" xlink:href="#aL"/><use transform="matrix(0.05,0,0,0.05,97.65,0)" xlink:href="#aF"/><use transform="matrix(0.05,0,0,0.05,106.65,0)" xlink:href="#aq"/><use transform="matrix(0.05,0,0,0.05,116.65,0)" xlink:href="#ag"/></g></defs></g></svg>