<svg xmlns="http://www.w3.org/2000/svg" xmlns:xlink="http://www.w3.org/1999/xlink" xmlns:lucid="lucid" width="1913" height="646"><g transform="translate(0 0)" lucid:page-tab-id="_hQ8zkRaX~wp"><path d="M77.5 90c0 16.57-13.43 30-30 30s-30-13.43-30-30 13.43-30 30-30 30 13.43 30 30z" stroke="#a5a5a5" stroke-width="2" fill="#f6edc5"/><use xlink:href="#a" transform="matrix(1,0,0,1,17.5,122) translate(11.024999999999999 14.4)"/><path d="M157.5 30h160v120h-160z" stroke="#a5a5a5" stroke-width="2" fill="#f6edc5"/><path d="M166.96 73.2h34.14V61.87s-3.3-5.66-10.04-7.47h-13.1c-6.28 1.93-11.12 8.3-11.12 8.3l.12 10.5z" stroke="#000" stroke-width="2" fill="#f4f6f7"/><path d="M166.96 73.2h34.14V61.87s-3.3-5.66-10.04-7.47h-13.1c-6.28 1.93-11.12 8.3-11.12 8.3l.12 10.5zM174.4 67.04v5.56M194.12 67.16v5.8" stroke="#000" stroke-width="2" fill="none"/><path d="M192.24 46.8c0-4.34-3.45-7.84-7.7-7.84-4.23 0-7.66 3.5-7.66 7.83 0 4.32 3.43 7.84 7.67 7.84s7.7-3.52 7.7-7.85z" stroke="#000" stroke-width="2" fill="#020202"/><path d="M192.24 46.8c0-4.34-3.45-7.84-7.7-7.84-4.23 0-7.66 3.5-7.66 7.83 0 4.32 3.43 7.84 7.67 7.84s7.7-3.52 7.7-7.85z" stroke="#000" stroke-width="2" fill="none"/><path d="M177.53 48.48s3.98-3.5 7.6-2.62c3.64.9 6.58-1 6.58-1 .35 2.45.07 5.43-2.06 8.1 0 0 1.54 1.07 1.54 2.16 0 1.1.18 2.7-1.42 4.33-1.6 1.63-7.8 1.8-9.57 0-1.78-1.8-1.78-2.64-1.78-3.84 0-1.2.83-1.8 1.77-2.77-1.55-.85-3.56-3.45-2.67-4.35z" stroke="#000" stroke-width="2" fill="#f0eff0"/><path d="M177.53 48.48s3.98-3.5 7.6-2.62c3.64.9 6.58-1 6.58-1 .35 2.45.07 5.43-2.06 8.1 0 0 1.54 1.07 1.54 2.16 0 1.1.18 2.7-1.42 4.33-1.6 1.63-7.8 1.8-9.57 0-1.78-1.8-1.78-2.64-1.78-3.84 0-1.2.83-1.8 1.77-2.77-1.55-.85-3.56-3.45-2.67-4.35z" stroke="#000" stroke-width="2" fill="none"/><use xlink:href="#b" transform="matrix(1,0,0,1,157.5,30) translate(67.055 51.9)"/><use xlink:href="#c" transform="matrix(1,0,0,1,157.5,30) translate(51.029999999999994 73.5)"/><path d="M237.5 150c0 16.57-13.43 30-30 30s-30-13.43-30-30 13.43-30 30-30 30 13.43 30 30z" stroke="#a5a5a5" stroke-width="2" fill="#f6edc5"/><path d="M234.5 150c0 14.9-12.1 27-27 27s-27-12.1-27-27 12.1-27 27-27 27 12.1 27 27z" stroke="#a5a5a5" stroke-width="2" fill="#f6edc5"/><path d="M227.5 150c0 11.05-8.95 20-20 20s-20-8.95-20-20 8.95-20 20-20 20 8.95 20 20zm0 0h-4m1.32 10l-3.46-2m-3.86 9.32l-2-3.46m-8 6.14v-4m-10 1.32l2-3.46m-9.32-3.86l3.46-2m-6.14-8h4m-1.32-10l3.46 2m3.86-9.32l2 3.46m8-6.14v4m10-1.32l-2 3.46m9.32 3.86l-3.46 2m-13.86 8v-12m0 12h7" stroke="#a5a5a5" stroke-width="2" fill="#fff"/><use xlink:href="#d" transform="matrix(1,0,0,1,177.5,182) translate(12.024999999999999 14.4)"/><use xlink:href="#e" transform="matrix(1,0,0,1,177.5,182) translate(8.024999999999999 36)"/><use xlink:href="#f" transform="matrix(1,0,0,1,177.5,182) translate(13.05 57.6)"/><use xlink:href="#g" transform="matrix(1,0,0,1,177.5,182) translate(3.5249999999999986 79.20000000000002)"/><use xlink:href="#h" transform="matrix(1,0,0,1,177.5,182) translate(36.475 79.20000000000002)"/><use xlink:href="#i" transform="matrix(1,0,0,1,177.5,182) translate(12.55 100.80000000000001)"/><use xlink:href="#j" transform="matrix(1,0,0,1,177.5,182) translate(38.5 100.80000000000001)"/><path d="M552.5 30h160v120h-160z" stroke="#a5a5a5" stroke-width="2" fill="#f6edc5"/><path d="M561.96 73.2h34.14V61.87s-3.3-5.66-10.04-7.47h-13.1c-6.28 1.93-11.12 8.3-11.12 8.3l.12 10.5z" stroke="#000" stroke-width="2" fill="#f4f6f7"/><path d="M561.96 73.2h34.14V61.87s-3.3-5.66-10.04-7.47h-13.1c-6.28 1.93-11.12 8.3-11.12 8.3l.12 10.5zM569.4 67.04v5.56M589.12 67.16v5.8" stroke="#000" stroke-width="2" fill="none"/><path d="M587.24 46.8c0-4.34-3.45-7.84-7.7-7.84-4.23 0-7.66 3.5-7.66 7.83 0 4.32 3.43 7.84 7.67 7.84s7.7-3.52 7.7-7.85z" stroke="#000" stroke-width="2" fill="#020202"/><path d="M587.24 46.8c0-4.34-3.45-7.84-7.7-7.84-4.23 0-7.66 3.5-7.66 7.83 0 4.32 3.43 7.84 7.67 7.84s7.7-3.52 7.7-7.85z" stroke="#000" stroke-width="2" fill="none"/><path d="M572.53 48.48s3.98-3.5 7.6-2.62c3.64.9 6.58-1 6.58-1 .35 2.45.07 5.43-2.06 8.1 0 0 1.54 1.07 1.54 2.16 0 1.1.18 2.7-1.42 4.33-1.6 1.63-7.8 1.8-9.57 0-1.78-1.8-1.78-2.64-1.78-3.84 0-1.2.83-1.8 1.77-2.77-1.55-.85-3.56-3.45-2.67-4.35z" stroke="#000" stroke-width="2" fill="#f0eff0"/><path d="M572.53 48.48s3.98-3.5 7.6-2.62c3.64.9 6.58-1 6.58-1 .35 2.45.07 5.43-2.06 8.1 0 0 1.54 1.07 1.54 2.16 0 1.1.18 2.7-1.42 4.33-1.6 1.63-7.8 1.8-9.57 0-1.78-1.8-1.78-2.64-1.78-3.84 0-1.2.83-1.8 1.77-2.77-1.55-.85-3.56-3.45-2.67-4.35z" stroke="#000" stroke-width="2" fill="none"/><use xlink:href="#k" transform="matrix(1,0,0,1,552.5,30) translate(49.57999999999999 40.65)"/><use xlink:href="#l" transform="matrix(1,0,0,1,552.5,30) translate(122.53 40.65)"/><use xlink:href="#m" transform="matrix(1,0,0,1,552.5,30) translate(57.554999999999986 62.25)"/><use xlink:href="#n" transform="matrix(1,0,0,1,552.5,30) translate(121.505 62.25)"/><use xlink:href="#o" transform="matrix(1,0,0,1,552.5,30) translate(42.57999999999999 83.85000000000001)"/><path d="M397.5 90L435 52.5 472.5 90 435 127.5z" stroke="#a5a5a5" stroke-width="2" fill="#f6edc5"/><path d="M420 75l30 30m-30 0l30-30" stroke="#a5a5a5" stroke-width="2" fill="none"/><use xlink:href="#p" transform="matrix(1,0,0,1,397.5,127.5) translate(6.024999999999999 14.4)"/><use xlink:href="#q" transform="matrix(1,0,0,1,397.5,127.5) translate(7.049999999999997 36)"/><use xlink:href="#r" transform="matrix(1,0,0,1,397.5,127.5) translate(-4.475000000000001 57.6)"/><use xlink:href="#s" transform="matrix(1,0,0,1,397.5,127.5) translate(2.0249999999999986 79.20000000000002)"/><use xlink:href="#t" transform="matrix(1,0,0,1,397.5,127.5) translate(22.974999999999998 79.20000000000002)"/><use xlink:href="#u" transform="matrix(1,0,0,1,397.5,127.5) translate(57.975 79.20000000000002)"/><use xlink:href="#v" transform="matrix(1,0,0,1,397.5,127.5) translate(28.025 100.80000000000001)"/><path d="M552.5 230h160v120h-160z" stroke="#a5a5a5" stroke-width="2" fill="#f6edc5"/><path d="M561.96 273.2h34.14v-11.33s-3.3-5.66-10.04-7.47h-13.1c-6.28 1.93-11.12 8.3-11.12 8.3l.12 10.5z" stroke="#000" stroke-width="2" fill="#f4f6f7"/><path d="M561.96 273.2h34.14v-11.33s-3.3-5.66-10.04-7.47h-13.1c-6.28 1.93-11.12 8.3-11.12 8.3l.12 10.5zM569.4 267.04v5.56M589.12 267.16v5.8" stroke="#000" stroke-width="2" fill="none"/><path d="M587.24 246.8c0-4.34-3.45-7.84-7.7-7.84-4.23 0-7.66 3.5-7.66 7.83 0 4.32 3.43 7.84 7.67 7.84s7.7-3.52 7.7-7.85z" stroke="#000" stroke-width="2" fill="#020202"/><path d="M587.24 246.8c0-4.34-3.45-7.84-7.7-7.84-4.23 0-7.66 3.5-7.66 7.83 0 4.32 3.43 7.84 7.67 7.84s7.7-3.52 7.7-7.85z" stroke="#000" stroke-width="2" fill="none"/><path d="M572.53 248.48s3.98-3.5 7.6-2.62c3.64.9 6.58-1 6.58-1 .35 2.45.07 5.43-2.06 8.1 0 0 1.54 1.07 1.54 2.16 0 1.1.18 2.7-1.42 4.33-1.6 1.63-7.8 1.8-9.57 0-1.78-1.8-1.78-2.64-1.78-3.84 0-1.2.83-1.8 1.77-2.77-1.55-.85-3.56-3.45-2.67-4.35z" stroke="#000" stroke-width="2" fill="#f0eff0"/><path d="M572.53 248.48s3.98-3.5 7.6-2.62c3.64.9 6.58-1 6.58-1 .35 2.45.07 5.43-2.06 8.1 0 0 1.54 1.07 1.54 2.16 0 1.1.18 2.7-1.42 4.33-1.6 1.63-7.8 1.8-9.57 0-1.78-1.8-1.78-2.64-1.78-3.84 0-1.2.83-1.8 1.77-2.77-1.55-.85-3.56-3.45-2.67-4.35z" stroke="#000" stroke-width="2" fill="none"/><use xlink:href="#w" transform="matrix(1,0,0,1,552.5,230) translate(59.029999999999994 40.65)"/><use xlink:href="#u" transform="matrix(1,0,0,1,552.5,230) translate(129.98000000000002 40.65)"/><use xlink:href="#x" transform="matrix(1,0,0,1,552.5,230) translate(59.105 62.25)"/><use xlink:href="#l" transform="matrix(1,0,0,1,552.5,230) translate(113.005 62.25)"/><use xlink:href="#y" transform="matrix(1,0,0,1,552.5,230) translate(10.104999999999999 83.85000000000001)"/><use xlink:href="#z" transform="matrix(1,0,0,1,552.5,230) translate(49.055 83.85000000000001)"/><path d="M497.7 91h-22.8v-2h22.8zm35.3 0h-5.3v-2h5.3z" fill="#6c7777"/><path d="M474.94 91h-2.03l1-1-1-1h2.04zM548.26 90L534 94.64v-9.28z" fill="#6c7777"/><path d="M551.5 90L533 96V84zM535 93.26L545.03 90 535 86.74z" fill="#6c7777"/><use xlink:href="#A" transform="matrix(1,0,0,1,497.70710678118655,79.2) translate(0 14.4)"/><path d="M436 289h97v2h-99v-12.5h2zm0-32.1h-2v-127h2z" fill="#6c7777"/><path d="M436 129.94h-2v-2.03l1 1 1-1zM548.26 290L534 294.64v-9.28z" fill="#6c7777"/><path d="M551.5 290l-18.5 6v-12zm-16.5 3.26l10.03-3.26-10.03-3.26z" fill="#6c7777"/><use xlink:href="#B" transform="matrix(1,0,0,1,405.5,256.90710678118654) translate(0 14.4)"/><path d="M319.5 90h58.08" stroke="#6c7777" stroke-width="2" fill="none"/><path d="M319.53 91h-1.03v-2h1.03z" fill="#6c7777"/><path d="M392.85 90l-14.27 4.64v-9.28z" stroke="#6c7777" stroke-width="2" fill="#6c7777"/><path d="M714.5 90H773" stroke="#6c7777" stroke-width="2" fill="none"/><path d="M714.53 91h-1.03v-2h1.03z" fill="#6c7777"/><path d="M788.26 90L774 94.64v-9.28z" stroke="#6c7777" stroke-width="2" fill="#6c7777"/><path d="M792.5 30h160v120h-160z" stroke="#a5a5a5" stroke-width="2" fill="#f6edc5"/><use xlink:href="#C" transform="matrix(1,0,0,1,792.5,30) translate(31.755000000000003 51.9)"/><use xlink:href="#D" transform="matrix(1,0,0,1,792.5,30) translate(90.35499999999999 51.9)"/><use xlink:href="#E" transform="matrix(1,0,0,1,792.5,30) translate(21.054999999999993 73.5)"/><use xlink:href="#F" transform="matrix(1,0,0,1,792.5,30) translate(96.95500000000001 73.5)"/><path d="M714.5 290H779" stroke="#6c7777" stroke-width="2" fill="none"/><path d="M714.53 291h-1.03v-2h1.03z" fill="#6c7777"/><path d="M794.26 290L780 294.64v-9.28z" stroke="#6c7777" stroke-width="2" fill="#6c7777"/><path d="M857.5 290c0 16.57-13.43 30-30 30s-30-13.43-30-30 13.43-30 30-30 30 13.43 30 30z" stroke="#6c7777" stroke-width="6" fill="#f6edc5"/><path d="M817.3 276.2l10.2 10.8 10.2-10.8 3.6 3.6-10.8 10.2 10.8 10.2-3.6 3.6-10.2-10.8-10.2 10.8-3.6-3.6 10.8-10.2-10.8-10.2z" stroke="#6c7777" stroke-width="2"/><use xlink:href="#G" transform="matrix(1,0,0,1,797.5,322) translate(2.049999999999997 14.4)"/><use xlink:href="#H" transform="matrix(1,0,0,1,797.5,322) translate(16.025 36)"/><path d="M954.5 90h58.08" stroke="#6c7777" stroke-width="2" fill="none"/><path d="M954.53 91h-1.03v-2h1.03z" fill="#6c7777"/><path d="M1027.85 90l-14.27 4.64v-9.28z" stroke="#6c7777" stroke-width="2" fill="#6c7777"/><path d="M1032.5 90l37.5-37.5 37.5 37.5-37.5 37.5z" stroke="#a5a5a5" stroke-width="2" fill="#f6edc5"/><use xlink:href="#I" transform="matrix(1,0,0,1,1032.5,127.5) translate(8.524999999999999 14.4)"/><use xlink:href="#u" transform="matrix(1,0,0,1,1032.5,127.5) translate(51.475 14.4)"/><use xlink:href="#J" transform="matrix(1,0,0,1,1032.5,127.5) translate(5.700000000000003 36)"/><path d="M1109.9 90h58.1" stroke="#6c7777" stroke-width="2" fill="none"/><path d="M1109.94 91h-2.03l1-1-1-1h2.04z" fill="#6c7777"/><path d="M1183.26 90L1169 94.64v-9.28z" stroke="#6c7777" stroke-width="2" fill="#6c7777"/><path d="M1187.5 30h160v120h-160z" stroke="#a5a5a5" stroke-width="2" fill="#f6edc5"/><use xlink:href="#C" transform="matrix(1,0,0,1,1187.5,30) translate(29.229999999999997 51.9)"/><use xlink:href="#K" transform="matrix(1,0,0,1,1187.5,30) translate(87.82999999999998 51.9)"/><use xlink:href="#L" transform="matrix(1,0,0,1,1187.5,30) translate(43.529999999999994 73.5)"/><path d="M1187.5 180h160v120h-160z" stroke="#a5a5a5" stroke-width="2" fill="#f6edc5"/><use xlink:href="#C" transform="matrix(1,0,0,1,1187.5,180) translate(28.729999999999997 51.9)"/><use xlink:href="#M" transform="matrix(1,0,0,1,1187.5,180) translate(87.32999999999998 51.9)"/><use xlink:href="#N" transform="matrix(1,0,0,1,1187.5,180) translate(44.07999999999999 73.5)"/><path d="M1070 129.9v95.5h98" stroke="#6c7777" stroke-width="2" fill="none"/><path d="M1071 129.94h-2v-2.03l1 1 1-1z" fill="#6c7777"/><path d="M1183.26 225.4l-14.26 4.65v-9.27z" stroke="#6c7777" stroke-width="2" fill="#6c7777"/><path d="M1187.5 330h160v120h-160z" stroke="#a5a5a5" stroke-width="2" fill="#f6edc5"/><use xlink:href="#C" transform="matrix(1,0,0,1,1187.5,330) translate(39.255 51.9)"/><use xlink:href="#O" transform="matrix(1,0,0,1,1187.5,330) translate(97.85499999999999 51.9)"/><use xlink:href="#P" transform="matrix(1,0,0,1,1187.5,330) translate(42.57999999999999 73.5)"/><path d="M1187.5 480h160v120h-160z" stroke="#a5a5a5" stroke-width="2" fill="#f6edc5"/><use xlink:href="#C" transform="matrix(1,0,0,1,1187.5,480) translate(11.279999999999996 63.15)"/><use xlink:href="#Q" transform="matrix(1,0,0,1,1187.5,480) translate(69.88 63.15)"/><path d="M1070 129.9V390h98" stroke="#6c7777" stroke-width="2" fill="none"/><path d="M1071 129.94h-2v-2.03l1 1 1-1z" fill="#6c7777"/><path d="M1183.26 390l-14.26 4.64v-9.28z" stroke="#6c7777" stroke-width="2" fill="#6c7777"/><path d="M1070 129.9V540h98" stroke="#6c7777" stroke-width="2" fill="none"/><path d="M1071 129.94h-2v-2.03l1 1 1-1z" fill="#6c7777"/><path d="M1183.26 540l-14.26 4.64v-9.28z" stroke="#6c7777" stroke-width="2" fill="#6c7777"/><path d="M1349.5 90h58.08" stroke="#6c7777" stroke-width="2" fill="none"/><path d="M1349.53 91h-1.03v-2h1.03z" fill="#6c7777"/><path d="M1422.85 90l-14.27 4.64v-9.28z" stroke="#6c7777" stroke-width="2" fill="#6c7777"/><path d="M1427.5 90l37.5-37.5 37.5 37.5-37.5 37.5z" stroke="#a5a5a5" stroke-width="2" fill="#f6edc5"/><path d="M1480 90c0 8.28-6.72 15-15 15-8.28 0-15-6.72-15-15 0-8.28 6.72-15 15-15 8.28 0 15 6.72 15 15z" stroke="#a5a5a5" stroke-width="2" fill="none"/><path d="M1349.5 390h58.08" stroke="#6c7777" stroke-width="2" fill="none"/><path d="M1349.53 391h-1.03v-2h1.03z" fill="#6c7777"/><path d="M1422.85 390l-14.27 4.64v-9.28z" stroke="#6c7777" stroke-width="2" fill="#6c7777"/><path d="M1427.5 390l37.5-37.5 37.5 37.5-37.5 37.5z" stroke="#a5a5a5" stroke-width="2" fill="#f6edc5"/><path d="M1480 390c0 8.28-6.72 15-15 15-8.28 0-15-6.72-15-15 0-8.28 6.72-15 15-15 8.28 0 15 6.72 15 15z" stroke="#a5a5a5" stroke-width="2" fill="none"/><path d="M1349.5 240h37.8V90h20.28" stroke="#6c7777" stroke-width="2" fill="none"/><path d="M1349.53 241h-1.03v-2h1.03z" fill="#6c7777"/><path d="M1422.85 90l-14.27 4.64v-9.28z" stroke="#6c7777" stroke-width="2" fill="#6c7777"/><path d="M1349.5 540h37.8V390h20.28" stroke="#6c7777" stroke-width="2" fill="none"/><path d="M1349.53 541h-1.03v-2h1.03z" fill="#6c7777"/><path d="M1422.85 390l-14.27 4.64v-9.28z" stroke="#6c7777" stroke-width="2" fill="#6c7777"/><path d="M1465 129.9V332.6" stroke="#6c7777" stroke-width="2" fill="none"/><path d="M1466 129.94h-2v-2.03l1 1 1-1z" fill="#6c7777"/><path d="M1465 347.85l-4.64-14.27h9.28z" stroke="#6c7777" stroke-width="2" fill="#6c7777"/><path d="M1504.9 390h58.1" stroke="#6c7777" stroke-width="2" fill="none"/><path d="M1504.94 391h-2.03l1-1-1-1h2.04z" fill="#6c7777"/><path d="M1578.26 390l-14.26 4.64v-9.28z" stroke="#6c7777" stroke-width="2" fill="#6c7777"/><path d="M1582.5 330h160v120h-160z" stroke="#a5a5a5" stroke-width="2" fill="#f6edc5"/><g><use xlink:href="#R" transform="matrix(1,0,0,1,1582.5,330) translate(46.05499999999999 40.65)"/><use xlink:href="#S" transform="matrix(1,0,0,1,1582.5,330) translate(7.304999999999987 62.25)"/><use xlink:href="#T" transform="matrix(1,0,0,1,1582.5,330) translate(104.155 62.25)"/><use xlink:href="#U" transform="matrix(1,0,0,1,1582.5,330) translate(47.105 83.85000000000001)"/><use xlink:href="#V" transform="matrix(1,0,0,1,1582.5,330) translate(84.955 83.85000000000001)"/></g><path d="M1504.9 90h58.1" stroke="#6c7777" stroke-width="2" fill="none"/><path d="M1504.94 91h-2.03l1-1-1-1h2.04z" fill="#6c7777"/><path d="M1578.26 90L1564 94.64v-9.28z" stroke="#6c7777" stroke-width="2" fill="#6c7777"/><path d="M1582.5 30h160v120h-160z" stroke="#a5a5a5" stroke-width="2" fill="#f6edc5"/><g><use xlink:href="#R" transform="matrix(1,0,0,1,1582.5,30) translate(46.05499999999999 40.65)"/><use xlink:href="#S" transform="matrix(1,0,0,1,1582.5,30) translate(7.304999999999987 62.25)"/><use xlink:href="#T" transform="matrix(1,0,0,1,1582.5,30) translate(104.155 62.25)"/><use xlink:href="#W" transform="matrix(1,0,0,1,1582.5,30) translate(63.58 83.85000000000001)"/></g><path d="M1744.5 390h59.5" stroke="#6c7777" stroke-width="2" fill="none"/><path d="M1744.53 391h-1.03v-2h1.03z" fill="#6c7777"/><path d="M1819.26 390l-14.26 4.64v-9.28z" stroke="#6c7777" stroke-width="2" fill="#6c7777"/><path d="M1882.5 390c0 16.57-13.43 30-30 30s-30-13.43-30-30 13.43-30 30-30 30 13.43 30 30z" stroke="#a5a5a5" stroke-width="6" fill="#f6edc5"/><path d="M1842.3 376.2l10.2 10.8 10.2-10.8 3.6 3.6-10.8 10.2 10.8 10.2-3.6 3.6-10.2-10.8-10.2 10.8-3.6-3.6 10.8-10.2-10.8-10.2z" stroke="#a5a5a5" stroke-width="2"/><g><use xlink:href="#G" transform="matrix(1,0,0,1,1822.5,422) translate(2.049999999999997 14.4)"/><use xlink:href="#H" transform="matrix(1,0,0,1,1822.5,422) translate(16.025 36)"/></g><path d="M1744.5 90h59.5" stroke="#6c7777" stroke-width="2" fill="none"/><path d="M1744.53 91h-1.03v-2h1.03z" fill="#6c7777"/><path d="M1819.26 90L1805 94.64v-9.28z" stroke="#6c7777" stroke-width="2" fill="#6c7777"/><path d="M1882.5 90c0 16.57-13.43 30-30 30s-30-13.43-30-30 13.43-30 30-30 30 13.43 30 30z" stroke="#a5a5a5" stroke-width="6" fill="#f6edc5"/><g><use xlink:href="#X" transform="matrix(1,0,0,1,1822.5,122) translate(7.024999999999999 14.4)"/><use xlink:href="#Y" transform="matrix(1,0,0,1,1822.5,122) translate(32.025 14.4)"/><use xlink:href="#Z" transform="matrix(1,0,0,1,1822.5,122) translate(13.524999999999999 36)"/></g><path d="M79.5 90H138" stroke="#6c7777" stroke-width="2" fill="none"/><path d="M79.53 91h-1.1l.07-.98-.03-1.02h1.06z" fill="#6c7777"/><path d="M153.26 90L139 94.64v-9.28z" stroke="#6c7777" stroke-width="2" fill="#6c7777"/><defs><path fill="#6c7777" d="M185-189c-5-48-123-54-124 2 14 75 158 14 163 119 3 78-121 87-175 55-17-10-28-26-33-46l33-7c5 56 141 63 141-1 0-78-155-14-162-118-5-82 145-84 179-34 5 7 8 16 11 25" id="aa"/><path fill="#6c7777" d="M59-47c-2 24 18 29 38 22v24C64 9 27 4 27-40v-127H5v-23h24l9-43h21v43h35v23H59v120" id="ab"/><path fill="#6c7777" d="M141-36C126-15 110 5 73 4 37 3 15-17 15-53c-1-64 63-63 125-63 3-35-9-54-41-54-24 1-41 7-42 31l-33-3c5-37 33-52 76-52 45 0 72 20 72 64v82c-1 20 7 32 28 27v20c-31 9-61-2-59-35zM48-53c0 20 12 33 32 33 41-3 63-29 60-74-43 2-92-5-92 41" id="ac"/><path fill="#6c7777" d="M114-163C36-179 61-72 57 0H25l-1-190h30c1 12-1 29 2 39 6-27 23-49 58-41v29" id="ad"/><g id="a"><use transform="matrix(0.05,0,0,0.05,0,0)" xlink:href="#aa"/><use transform="matrix(0.05,0,0,0.05,12,0)" xlink:href="#ab"/><use transform="matrix(0.05,0,0,0.05,17,0)" xlink:href="#ac"/><use transform="matrix(0.05,0,0,0.05,27,0)" xlink:href="#ad"/><use transform="matrix(0.05,0,0,0.05,32.95,0)" xlink:href="#ab"/></g><path fill="#6c7777" d="M100-194c63 0 86 42 84 106H49c0 40 14 67 53 68 26 1 43-12 49-29l28 8c-11 28-37 45-77 45C44 4 14-33 15-96c1-61 26-98 85-98zm52 81c6-60-76-77-97-28-3 7-6 17-6 28h103" id="ae"/><path fill="#6c7777" d="M135-143c-3-34-86-38-87 0 15 53 115 12 119 90S17 21 10-45l28-5c4 36 97 45 98 0-10-56-113-15-118-90-4-57 82-63 122-42 12 7 21 19 24 35" id="af"/><path fill="#6c7777" d="M96-169c-40 0-48 33-48 73s9 75 48 75c24 0 41-14 43-38l32 2c-6 37-31 61-74 61-59 0-76-41-82-99-10-93 101-131 147-64 4 7 5 14 7 22l-32 3c-4-21-16-35-41-35" id="ag"/><path fill="#6c7777" d="M106-169C34-169 62-67 57 0H25v-261h32l-1 103c12-21 28-36 61-36 89 0 53 116 60 194h-32v-121c2-32-8-49-39-48" id="ah"/><g id="b"><use transform="matrix(0.05,0,0,0.05,0,0)" xlink:href="#ad"/><use transform="matrix(0.05,0,0,0.05,5.95,0)" xlink:href="#ae"/><use transform="matrix(0.05,0,0,0.05,15.949999999999998,0)" xlink:href="#af"/><use transform="matrix(0.05,0,0,0.05,24.95,0)" xlink:href="#ae"/><use transform="matrix(0.05,0,0,0.05,34.95,0)" xlink:href="#ac"/><use transform="matrix(0.05,0,0,0.05,44.95,0)" xlink:href="#ad"/><use transform="matrix(0.05,0,0,0.05,50.900000000000006,0)" xlink:href="#ag"/><use transform="matrix(0.05,0,0,0.05,59.900000000000006,0)" xlink:href="#ah"/></g><path fill="#6c7777" d="M100-194c62-1 85 37 85 99 1 63-27 99-86 99S16-35 15-95c0-66 28-99 85-99zM99-20c44 1 53-31 53-75 0-43-8-75-51-75s-53 32-53 75 10 74 51 75" id="ai"/><path fill="#6c7777" d="M115-194c55 1 70 41 70 98S169 2 115 4C84 4 66-9 55-30l1 105H24l-1-265h31l2 30c10-21 28-34 59-34zm-8 174c40 0 45-34 45-75s-6-73-45-74c-42 0-51 32-51 76 0 43 10 73 51 73" id="aj"/><path fill="#6c7777" d="M24-231v-30h32v30H24zM24 0v-190h32V0H24" id="ak"/><path fill="#6c7777" d="M117-194c89-4 53 116 60 194h-32v-121c0-31-8-49-39-48C34-167 62-67 57 0H25l-1-190h30c1 10-1 24 2 32 11-22 29-35 61-36" id="al"/><g id="c"><use transform="matrix(0.05,0,0,0.05,0,0)" xlink:href="#ai"/><use transform="matrix(0.05,0,0,0.05,10,0)" xlink:href="#aj"/><use transform="matrix(0.05,0,0,0.05,20,0)" xlink:href="#ab"/><use transform="matrix(0.05,0,0,0.05,25,0)" xlink:href="#ak"/><use transform="matrix(0.05,0,0,0.05,28.950000000000003,0)" xlink:href="#ai"/><use transform="matrix(0.05,0,0,0.05,38.95,0)" xlink:href="#al"/><use transform="matrix(0.05,0,0,0.05,48.95,0)" xlink:href="#af"/></g><path fill="#6c7777" d="M101-234c-31-9-42 10-38 44h38v23H63V0H32v-167H5v-23h27c-7-52 17-82 69-68v24" id="am"/><g id="d"><use transform="matrix(0.05,0,0,0.05,0,0)" xlink:href="#ac"/><use transform="matrix(0.05,0,0,0.05,10,0)" xlink:href="#am"/><use transform="matrix(0.05,0,0,0.05,15,0)" xlink:href="#ab"/><use transform="matrix(0.05,0,0,0.05,20,0)" xlink:href="#ae"/><use transform="matrix(0.05,0,0,0.05,30,0)" xlink:href="#ad"/></g><path fill="#6c7777" d="M210-169c-67 3-38 105-44 169h-31v-121c0-29-5-50-35-48C34-165 62-65 56 0H25l-1-190h30c1 10-1 24 2 32 10-44 99-50 107 0 11-21 27-35 58-36 85-2 47 119 55 194h-31v-121c0-29-5-49-35-48" id="an"/><g id="e"><use transform="matrix(0.05,0,0,0.05,0,0)" xlink:href="#af"/><use transform="matrix(0.05,0,0,0.05,9,0)" xlink:href="#ai"/><use transform="matrix(0.05,0,0,0.05,19,0)" xlink:href="#an"/><use transform="matrix(0.05,0,0,0.05,33.95,0)" xlink:href="#ae"/></g><g id="f"><use transform="matrix(0.05,0,0,0.05,0,0)" xlink:href="#ab"/><use transform="matrix(0.05,0,0,0.05,5,0)" xlink:href="#ak"/><use transform="matrix(0.05,0,0,0.05,8.95,0)" xlink:href="#an"/><use transform="matrix(0.05,0,0,0.05,23.9,0)" xlink:href="#ae"/></g><path fill="#6c7777" d="M24-231v-30h32v30H24zM-9 49c24 4 33-6 33-30v-209h32V24c2 40-23 58-65 49V49" id="ao"/><path fill="#6c7777" d="M84 4C-5 8 30-112 23-190h32v120c0 31 7 50 39 49 72-2 45-101 50-169h31l1 190h-30c-1-10 1-25-2-33-11 22-28 36-60 37" id="ap"/><g id="g"><use transform="matrix(0.05,0,0,0.05,0,0)" xlink:href="#ao"/><use transform="matrix(0.05,0,0,0.05,3.95,0)" xlink:href="#ap"/><use transform="matrix(0.05,0,0,0.05,13.949999999999998,0)" xlink:href="#af"/><use transform="matrix(0.05,0,0,0.05,22.95,0)" xlink:href="#ab"/></g><path fill="#6c7777" d="M177-190C167-65 218 103 67 71c-23-6-38-20-44-43l32-5c15 47 100 32 89-28v-30C133-14 115 1 83 1 29 1 15-40 15-95c0-56 16-97 71-98 29-1 48 16 59 35 1-10 0-23 2-32h30zM94-22c36 0 50-32 50-73 0-42-14-75-50-75-39 0-46 34-46 75s6 73 46 73" id="aq"/><g id="h"><use transform="matrix(0.05,0,0,0.05,0,0)" xlink:href="#aq"/><use transform="matrix(0.05,0,0,0.05,10,0)" xlink:href="#ai"/></g><g id="i"><use transform="matrix(0.05,0,0,0.05,0,0)" xlink:href="#am"/><use transform="matrix(0.05,0,0,0.05,5,0)" xlink:href="#ai"/><use transform="matrix(0.05,0,0,0.05,15,0)" xlink:href="#ad"/></g><g id="j"><use transform="matrix(0.05,0,0,0.05,0,0)" xlink:href="#ak"/><use transform="matrix(0.05,0,0,0.05,3.95,0)" xlink:href="#ab"/></g><g id="k"><use transform="matrix(0.05,0,0,0.05,0,0)" xlink:href="#ag"/><use transform="matrix(0.05,0,0,0.05,9,0)" xlink:href="#ai"/><use transform="matrix(0.05,0,0,0.05,19,0)" xlink:href="#al"/><use transform="matrix(0.05,0,0,0.05,29,0)" xlink:href="#ab"/><use transform="matrix(0.05,0,0,0.05,34,0)" xlink:href="#ak"/><use transform="matrix(0.05,0,0,0.05,37.95,0)" xlink:href="#al"/><use transform="matrix(0.05,0,0,0.05,47.95,0)" xlink:href="#ap"/><use transform="matrix(0.05,0,0,0.05,57.95,0)" xlink:href="#ae"/></g><path fill="#6c7777" d="M206 0h-36l-40-164L89 0H53L-1-190h32L70-26l43-164h34l41 164 42-164h31" id="ar"/><g id="l"><use transform="matrix(0.05,0,0,0.05,0,0)" xlink:href="#ar"/><use transform="matrix(0.05,0,0,0.05,12.950000000000001,0)" xlink:href="#ak"/><use transform="matrix(0.05,0,0,0.05,16.900000000000002,0)" xlink:href="#ab"/><use transform="matrix(0.05,0,0,0.05,21.900000000000002,0)" xlink:href="#ah"/></g><path fill="#6c7777" d="M85-194c31 0 48 13 60 33l-1-100h32l1 261h-30c-2-10 0-23-3-31C134-8 116 4 85 4 32 4 16-35 15-94c0-66 23-100 70-100zm9 24c-40 0-46 34-46 75 0 40 6 74 45 74 42 0 51-32 51-76 0-42-9-74-50-73" id="as"/><g id="m"><use transform="matrix(0.05,0,0,0.05,0,0)" xlink:href="#an"/><use transform="matrix(0.05,0,0,0.05,14.950000000000001,0)" xlink:href="#ai"/><use transform="matrix(0.05,0,0,0.05,24.950000000000003,0)" xlink:href="#as"/><use transform="matrix(0.05,0,0,0.05,34.95,0)" xlink:href="#ae"/><use transform="matrix(0.05,0,0,0.05,44.95,0)" xlink:href="#af"/><use transform="matrix(0.05,0,0,0.05,53.95,0)" xlink:href="#ab"/></g><path fill="#6c7777" d="M30-248c87 1 191-15 191 75 0 78-77 80-158 76V0H30v-248zm33 125c57 0 124 11 124-50 0-59-68-47-124-48v98" id="at"/><path fill="#6c7777" d="M212-179c-10-28-35-45-73-45-59 0-87 40-87 99 0 60 29 101 89 101 43 0 62-24 78-52l27 14C228-24 195 4 139 4 59 4 22-46 18-125c-6-104 99-153 187-111 19 9 31 26 39 46" id="au"/><g id="n"><use transform="matrix(0.05,0,0,0.05,0,0)" xlink:href="#at"/><use transform="matrix(0.05,0,0,0.05,12,0)" xlink:href="#au"/></g><g id="o"><use transform="matrix(0.05,0,0,0.05,0,0)" xlink:href="#ah"/><use transform="matrix(0.05,0,0,0.05,10,0)" xlink:href="#ac"/><use transform="matrix(0.05,0,0,0.05,20,0)" xlink:href="#ad"/><use transform="matrix(0.05,0,0,0.05,25.950000000000003,0)" xlink:href="#as"/><use transform="matrix(0.05,0,0,0.05,35.95,0)" xlink:href="#ar"/><use transform="matrix(0.05,0,0,0.05,48.900000000000006,0)" xlink:href="#ac"/><use transform="matrix(0.05,0,0,0.05,58.900000000000006,0)" xlink:href="#ad"/><use transform="matrix(0.05,0,0,0.05,64.85000000000001,0)" xlink:href="#ae"/></g><g id="p"><use transform="matrix(0.05,0,0,0.05,0,0)" xlink:href="#au"/><use transform="matrix(0.05,0,0,0.05,12.950000000000001,0)" xlink:href="#ah"/><use transform="matrix(0.05,0,0,0.05,22.950000000000003,0)" xlink:href="#ac"/><use transform="matrix(0.05,0,0,0.05,32.95,0)" xlink:href="#al"/><use transform="matrix(0.05,0,0,0.05,42.95,0)" xlink:href="#aq"/><use transform="matrix(0.05,0,0,0.05,52.95,0)" xlink:href="#ae"/></g><path fill="#6c7777" d="M141 0L90-78 38 0H4l68-98-65-92h35l48 74 47-74h35l-64 92 68 98h-35" id="av"/><g id="q"><use transform="matrix(0.05,0,0,0.05,0,0)" xlink:href="#ae"/><use transform="matrix(0.05,0,0,0.05,10,0)" xlink:href="#av"/><use transform="matrix(0.05,0,0,0.05,19,0)" xlink:href="#ak"/><use transform="matrix(0.05,0,0,0.05,22.95,0)" xlink:href="#af"/><use transform="matrix(0.05,0,0,0.05,31.950000000000003,0)" xlink:href="#ab"/><use transform="matrix(0.05,0,0,0.05,36.95,0)" xlink:href="#ak"/><use transform="matrix(0.05,0,0,0.05,40.900000000000006,0)" xlink:href="#al"/><use transform="matrix(0.05,0,0,0.05,50.900000000000006,0)" xlink:href="#aq"/></g><g id="r"><use transform="matrix(0.05,0,0,0.05,0,0)" xlink:href="#am"/><use transform="matrix(0.05,0,0,0.05,5,0)" xlink:href="#ai"/><use transform="matrix(0.05,0,0,0.05,15,0)" xlink:href="#ap"/><use transform="matrix(0.05,0,0,0.05,25,0)" xlink:href="#al"/><use transform="matrix(0.05,0,0,0.05,35,0)" xlink:href="#as"/><use transform="matrix(0.05,0,0,0.05,45,0)" xlink:href="#ac"/><use transform="matrix(0.05,0,0,0.05,55,0)" xlink:href="#ab"/><use transform="matrix(0.05,0,0,0.05,60,0)" xlink:href="#ak"/><use transform="matrix(0.05,0,0,0.05,63.95,0)" xlink:href="#ai"/><use transform="matrix(0.05,0,0,0.05,73.95,0)" xlink:href="#al"/></g><g id="s"><use transform="matrix(0.05,0,0,0.05,0,0)" xlink:href="#ai"/><use transform="matrix(0.05,0,0,0.05,10,0)" xlink:href="#ad"/></g><g id="t"><use transform="matrix(0.05,0,0,0.05,0,0)" xlink:href="#ac"/><use transform="matrix(0.05,0,0,0.05,10,0)" xlink:href="#as"/><use transform="matrix(0.05,0,0,0.05,20,0)" xlink:href="#as"/></g><g id="u"><use transform="matrix(0.05,0,0,0.05,0,0)" xlink:href="#ab"/><use transform="matrix(0.05,0,0,0.05,5,0)" xlink:href="#ai"/></g><path fill="#6c7777" d="M103-251c84 0 111 97 45 133-19 10-37 24-39 52H78c0-63 77-55 77-114 0-30-21-42-52-43-32 0-53 17-56 46l-32-2c7-45 34-72 88-72zM77 0v-35h34V0H77" id="aw"/><g id="v"><use transform="matrix(0.05,0,0,0.05,0,0)" xlink:href="#ak"/><use transform="matrix(0.05,0,0,0.05,3.95,0)" xlink:href="#ab"/><use transform="matrix(0.05,0,0,0.05,8.95,0)" xlink:href="#aw"/></g><g id="w"><use transform="matrix(0.05,0,0,0.05,0,0)" xlink:href="#ap"/><use transform="matrix(0.05,0,0,0.05,10,0)" xlink:href="#aj"/><use transform="matrix(0.05,0,0,0.05,20,0)" xlink:href="#aq"/><use transform="matrix(0.05,0,0,0.05,30,0)" xlink:href="#ad"/><use transform="matrix(0.05,0,0,0.05,35.95,0)" xlink:href="#ac"/><use transform="matrix(0.05,0,0,0.05,45.95,0)" xlink:href="#as"/><use transform="matrix(0.05,0,0,0.05,55.95,0)" xlink:href="#ae"/></g><path fill="#6c7777" d="M24 0v-261h32V0H24" id="ax"/><g id="x"><use transform="matrix(0.05,0,0,0.05,0,0)" xlink:href="#an"/><use transform="matrix(0.05,0,0,0.05,14.950000000000001,0)" xlink:href="#ai"/><use transform="matrix(0.05,0,0,0.05,24.950000000000003,0)" xlink:href="#as"/><use transform="matrix(0.05,0,0,0.05,34.95,0)" xlink:href="#ae"/><use transform="matrix(0.05,0,0,0.05,44.95,0)" xlink:href="#ax"/></g><g id="y"><use transform="matrix(0.05,0,0,0.05,0,0)" xlink:href="#ah"/><use transform="matrix(0.05,0,0,0.05,10,0)" xlink:href="#ak"/><use transform="matrix(0.05,0,0,0.05,13.949999999999998,0)" xlink:href="#aq"/><use transform="matrix(0.05,0,0,0.05,23.95,0)" xlink:href="#ah"/></g><g id="z"><use transform="matrix(0.05,0,0,0.05,0,0)" xlink:href="#aj"/><use transform="matrix(0.05,0,0,0.05,10,0)" xlink:href="#ae"/><use transform="matrix(0.05,0,0,0.05,20,0)" xlink:href="#ad"/><use transform="matrix(0.05,0,0,0.05,25.950000000000003,0)" xlink:href="#am"/><use transform="matrix(0.05,0,0,0.05,30.950000000000003,0)" xlink:href="#ai"/><use transform="matrix(0.05,0,0,0.05,40.95,0)" xlink:href="#ad"/><use transform="matrix(0.05,0,0,0.05,46.900000000000006,0)" xlink:href="#an"/><use transform="matrix(0.05,0,0,0.05,61.85,0)" xlink:href="#ac"/><use transform="matrix(0.05,0,0,0.05,71.85000000000001,0)" xlink:href="#al"/><use transform="matrix(0.05,0,0,0.05,81.85000000000001,0)" xlink:href="#ag"/><use transform="matrix(0.05,0,0,0.05,90.85000000000001,0)" xlink:href="#ae"/></g><path fill="#6c7878" d="M141-36C126-15 110 5 73 4 37 3 15-17 15-53c-1-64 63-63 125-63 3-35-9-54-41-54-24 1-41 7-42 31l-33-3c5-37 33-52 76-52 45 0 72 20 72 64v82c-1 20 7 32 28 27v20c-31 9-61-2-59-35zM48-53c0 20 12 33 32 33 41-3 63-29 60-74-43 2-92-5-92 41" id="ay"/><path fill="#6c7878" d="M85-194c31 0 48 13 60 33l-1-100h32l1 261h-30c-2-10 0-23-3-31C134-8 116 4 85 4 32 4 16-35 15-94c0-66 23-100 70-100zm9 24c-40 0-46 34-46 75 0 40 6 74 45 74 42 0 51-32 51-76 0-42-9-74-50-73" id="az"/><g id="A"><use transform="matrix(0.05,0,0,0.05,0,0)" xlink:href="#ay"/><use transform="matrix(0.05,0,0,0.05,10,0)" xlink:href="#az"/><use transform="matrix(0.05,0,0,0.05,20,0)" xlink:href="#az"/></g><path fill="#6c7878" d="M96-169c-40 0-48 33-48 73s9 75 48 75c24 0 41-14 43-38l32 2c-6 37-31 61-74 61-59 0-76-41-82-99-10-93 101-131 147-64 4 7 5 14 7 22l-32 3c-4-21-16-35-41-35" id="aA"/><path fill="#6c7878" d="M106-169C34-169 62-67 57 0H25v-261h32l-1 103c12-21 28-36 61-36 89 0 53 116 60 194h-32v-121c2-32-8-49-39-48" id="aB"/><path fill="#6c7878" d="M117-194c89-4 53 116 60 194h-32v-121c0-31-8-49-39-48C34-167 62-67 57 0H25l-1-190h30c1 10-1 24 2 32 11-22 29-35 61-36" id="aC"/><path fill="#6c7878" d="M177-190C167-65 218 103 67 71c-23-6-38-20-44-43l32-5c15 47 100 32 89-28v-30C133-14 115 1 83 1 29 1 15-40 15-95c0-56 16-97 71-98 29-1 48 16 59 35 1-10 0-23 2-32h30zM94-22c36 0 50-32 50-73 0-42-14-75-50-75-39 0-46 34-46 75s6 73 46 73" id="aD"/><path fill="#6c7878" d="M100-194c63 0 86 42 84 106H49c0 40 14 67 53 68 26 1 43-12 49-29l28 8c-11 28-37 45-77 45C44 4 14-33 15-96c1-61 26-98 85-98zm52 81c6-60-76-77-97-28-3 7-6 17-6 28h103" id="aE"/><g id="B"><use transform="matrix(0.05,0,0,0.05,0,0)" xlink:href="#aA"/><use transform="matrix(0.05,0,0,0.05,9,0)" xlink:href="#aB"/><use transform="matrix(0.05,0,0,0.05,19,0)" xlink:href="#ay"/><use transform="matrix(0.05,0,0,0.05,29,0)" xlink:href="#aC"/><use transform="matrix(0.05,0,0,0.05,39,0)" xlink:href="#aD"/><use transform="matrix(0.05,0,0,0.05,49,0)" xlink:href="#aE"/></g><g id="C"><use transform="matrix(0.05,0,0,0.05,0,0)" xlink:href="#ai"/><use transform="matrix(0.05,0,0,0.05,10,0)" xlink:href="#am"/><use transform="matrix(0.05,0,0,0.05,14.65,0)" xlink:href="#am"/><use transform="matrix(0.05,0,0,0.05,19.65,0)" xlink:href="#ax"/><use transform="matrix(0.05,0,0,0.05,23.599999999999998,0)" xlink:href="#ai"/><use transform="matrix(0.05,0,0,0.05,33.599999999999994,0)" xlink:href="#ac"/><use transform="matrix(0.05,0,0,0.05,43.599999999999994,0)" xlink:href="#as"/></g><path fill="#6c7777" d="M232-93c-1 65-40 97-104 97C67 4 28-28 28-90v-158h33c8 89-33 224 67 224 102 0 64-133 71-224h33v155" id="aF"/><g id="D"><use transform="matrix(0.05,0,0,0.05,0,0)" xlink:href="#au"/><use transform="matrix(0.05,0,0,0.05,12.950000000000001,0)" xlink:href="#at"/><use transform="matrix(0.05,0,0,0.05,24.950000000000003,0)" xlink:href="#aF"/></g><path fill="#6c7777" d="M108 0H70L1-190h34L89-25l56-165h34" id="aG"/><g id="E"><use transform="matrix(0.05,0,0,0.05,0,0)" xlink:href="#ak"/><use transform="matrix(0.05,0,0,0.05,3.95,0)" xlink:href="#al"/><use transform="matrix(0.05,0,0,0.05,13.949999999999998,0)" xlink:href="#ab"/><use transform="matrix(0.05,0,0,0.05,18.95,0)" xlink:href="#ae"/><use transform="matrix(0.05,0,0,0.05,28.950000000000003,0)" xlink:href="#al"/><use transform="matrix(0.05,0,0,0.05,38.95,0)" xlink:href="#af"/><use transform="matrix(0.05,0,0,0.05,47.95,0)" xlink:href="#ak"/><use transform="matrix(0.05,0,0,0.05,51.900000000000006,0)" xlink:href="#aG"/><use transform="matrix(0.05,0,0,0.05,60.900000000000006,0)" xlink:href="#ae"/></g><path fill="#6c7777" d="M143 0L79-87 56-68V0H24v-261h32v163l83-92h37l-77 82L181 0h-38" id="aH"/><g id="F"><use transform="matrix(0.05,0,0,0.05,0,0)" xlink:href="#ab"/><use transform="matrix(0.05,0,0,0.05,5,0)" xlink:href="#ac"/><use transform="matrix(0.05,0,0,0.05,15,0)" xlink:href="#af"/><use transform="matrix(0.05,0,0,0.05,24,0)" xlink:href="#aH"/><use transform="matrix(0.05,0,0,0.05,33,0)" xlink:href="#af"/></g><g id="G"><use transform="matrix(0.05,0,0,0.05,0,0)" xlink:href="#au"/><use transform="matrix(0.05,0,0,0.05,12.950000000000001,0)" xlink:href="#ac"/><use transform="matrix(0.05,0,0,0.05,22.950000000000003,0)" xlink:href="#al"/><use transform="matrix(0.05,0,0,0.05,32.95,0)" xlink:href="#ag"/><use transform="matrix(0.05,0,0,0.05,41.95,0)" xlink:href="#ae"/><use transform="matrix(0.05,0,0,0.05,51.95,0)" xlink:href="#ax"/></g><g id="H"><use transform="matrix(0.05,0,0,0.05,0,0)" xlink:href="#ab"/><use transform="matrix(0.05,0,0,0.05,5,0)" xlink:href="#ah"/><use transform="matrix(0.05,0,0,0.05,15,0)" xlink:href="#ak"/><use transform="matrix(0.05,0,0,0.05,18.95,0)" xlink:href="#af"/></g><g id="I"><use transform="matrix(0.05,0,0,0.05,0,0)" xlink:href="#ar"/><use transform="matrix(0.05,0,0,0.05,12.950000000000001,0)" xlink:href="#ah"/><use transform="matrix(0.05,0,0,0.05,22.950000000000003,0)" xlink:href="#ac"/><use transform="matrix(0.05,0,0,0.05,32.95,0)" xlink:href="#ab"/></g><g id="J"><use transform="matrix(0.05,0,0,0.05,0,0)" xlink:href="#ai"/><use transform="matrix(0.05,0,0,0.05,10,0)" xlink:href="#am"/><use transform="matrix(0.05,0,0,0.05,14.65,0)" xlink:href="#am"/><use transform="matrix(0.05,0,0,0.05,19.65,0)" xlink:href="#ax"/><use transform="matrix(0.05,0,0,0.05,23.599999999999998,0)" xlink:href="#ai"/><use transform="matrix(0.05,0,0,0.05,33.599999999999994,0)" xlink:href="#ac"/><use transform="matrix(0.05,0,0,0.05,43.599999999999994,0)" xlink:href="#as"/><use transform="matrix(0.05,0,0,0.05,53.599999999999994,0)" xlink:href="#aw"/></g><g id="K"><use transform="matrix(0.05,0,0,0.05,0,0)" xlink:href="#aG"/><use transform="matrix(0.05,0,0,0.05,9,0)" xlink:href="#ak"/><use transform="matrix(0.05,0,0,0.05,12.949999999999998,0)" xlink:href="#as"/><use transform="matrix(0.05,0,0,0.05,22.95,0)" xlink:href="#ae"/><use transform="matrix(0.05,0,0,0.05,32.95,0)" xlink:href="#ai"/></g><g id="L"><use transform="matrix(0.05,0,0,0.05,0,0)" xlink:href="#ae"/><use transform="matrix(0.05,0,0,0.05,10,0)" xlink:href="#al"/><use transform="matrix(0.05,0,0,0.05,20,0)" xlink:href="#ag"/><use transform="matrix(0.05,0,0,0.05,29,0)" xlink:href="#ai"/><use transform="matrix(0.05,0,0,0.05,39,0)" xlink:href="#as"/><use transform="matrix(0.05,0,0,0.05,49,0)" xlink:href="#ak"/><use transform="matrix(0.05,0,0,0.05,52.95,0)" xlink:href="#al"/><use transform="matrix(0.05,0,0,0.05,62.95,0)" xlink:href="#aq"/></g><g id="M"><use transform="matrix(0.05,0,0,0.05,0,0)" xlink:href="#ac"/><use transform="matrix(0.05,0,0,0.05,10,0)" xlink:href="#ap"/><use transform="matrix(0.05,0,0,0.05,20,0)" xlink:href="#as"/><use transform="matrix(0.05,0,0,0.05,30,0)" xlink:href="#ak"/><use transform="matrix(0.05,0,0,0.05,33.95,0)" xlink:href="#ai"/></g><g id="N"><use transform="matrix(0.05,0,0,0.05,0,0)" xlink:href="#af"/><use transform="matrix(0.05,0,0,0.05,9,0)" xlink:href="#ac"/><use transform="matrix(0.05,0,0,0.05,19,0)" xlink:href="#an"/><use transform="matrix(0.05,0,0,0.05,33.95,0)" xlink:href="#aj"/><use transform="matrix(0.05,0,0,0.05,43.95,0)" xlink:href="#ax"/><use transform="matrix(0.05,0,0,0.05,47.900000000000006,0)" xlink:href="#ak"/><use transform="matrix(0.05,0,0,0.05,51.85,0)" xlink:href="#al"/><use transform="matrix(0.05,0,0,0.05,61.85,0)" xlink:href="#aq"/></g><g id="O"><use transform="matrix(0.05,0,0,0.05,0,0)" xlink:href="#am"/><use transform="matrix(0.05,0,0,0.05,5,0)" xlink:href="#ak"/><use transform="matrix(0.05,0,0,0.05,8.95,0)" xlink:href="#ax"/><use transform="matrix(0.05,0,0,0.05,12.899999999999999,0)" xlink:href="#ae"/></g><g id="P"><use transform="matrix(0.05,0,0,0.05,0,0)" xlink:href="#ad"/><use transform="matrix(0.05,0,0,0.05,5.95,0)" xlink:href="#ae"/><use transform="matrix(0.05,0,0,0.05,15.949999999999998,0)" xlink:href="#ag"/><use transform="matrix(0.05,0,0,0.05,24.95,0)" xlink:href="#ai"/><use transform="matrix(0.05,0,0,0.05,34.95,0)" xlink:href="#ad"/><use transform="matrix(0.05,0,0,0.05,40.900000000000006,0)" xlink:href="#as"/><use transform="matrix(0.05,0,0,0.05,50.900000000000006,0)" xlink:href="#ak"/><use transform="matrix(0.05,0,0,0.05,54.85,0)" xlink:href="#al"/><use transform="matrix(0.05,0,0,0.05,64.85000000000001,0)" xlink:href="#aq"/></g><g id="Q"><use transform="matrix(0.05,0,0,0.05,0,0)" xlink:href="#af"/><use transform="matrix(0.05,0,0,0.05,9,0)" xlink:href="#ab"/><use transform="matrix(0.05,0,0,0.05,14,0)" xlink:href="#ad"/><use transform="matrix(0.05,0,0,0.05,19.95,0)" xlink:href="#ae"/><use transform="matrix(0.05,0,0,0.05,29.950000000000003,0)" xlink:href="#ac"/><use transform="matrix(0.05,0,0,0.05,39.95,0)" xlink:href="#an"/><use transform="matrix(0.05,0,0,0.05,54.900000000000006,0)" xlink:href="#ak"/><use transform="matrix(0.05,0,0,0.05,58.85,0)" xlink:href="#al"/><use transform="matrix(0.05,0,0,0.05,68.85000000000001,0)" xlink:href="#aq"/></g><g id="R"><use transform="matrix(0.05,0,0,0.05,0,0)" xlink:href="#ag"/><use transform="matrix(0.05,0,0,0.05,9,0)" xlink:href="#ai"/><use transform="matrix(0.05,0,0,0.05,19,0)" xlink:href="#al"/><use transform="matrix(0.05,0,0,0.05,29,0)" xlink:href="#af"/><use transform="matrix(0.05,0,0,0.05,38,0)" xlink:href="#ak"/><use transform="matrix(0.05,0,0,0.05,41.95,0)" xlink:href="#as"/><use transform="matrix(0.05,0,0,0.05,51.95,0)" xlink:href="#ae"/><use transform="matrix(0.05,0,0,0.05,61.95,0)" xlink:href="#ad"/></g><path fill="#6c7777" d="M160-131c35 5 61 23 61 61C221 17 115-2 30 0v-248c76 3 177-17 177 60 0 33-19 50-47 57zm-97-11c50-1 110 9 110-42 0-47-63-36-110-37v79zm0 115c55-2 124 14 124-45 0-56-70-42-124-44v89" id="aI"/><g id="S"><use transform="matrix(0.05,0,0,0.05,0,0)" xlink:href="#aI"/><use transform="matrix(0.05,0,0,0.05,12,0)" xlink:href="#ax"/><use transform="matrix(0.05,0,0,0.05,15.949999999999998,0)" xlink:href="#ac"/><use transform="matrix(0.05,0,0,0.05,25.950000000000003,0)" xlink:href="#ag"/><use transform="matrix(0.05,0,0,0.05,34.95,0)" xlink:href="#aH"/><use transform="matrix(0.05,0,0,0.05,43.95,0)" xlink:href="#an"/><use transform="matrix(0.05,0,0,0.05,58.900000000000006,0)" xlink:href="#ac"/><use transform="matrix(0.05,0,0,0.05,68.9,0)" xlink:href="#aq"/><use transform="matrix(0.05,0,0,0.05,78.9,0)" xlink:href="#ak"/><use transform="matrix(0.05,0,0,0.05,82.85000000000001,0)" xlink:href="#ag"/></g><path fill="#6c7777" d="M205 0l-28-72H64L36 0H1l101-248h38L239 0h-34zm-38-99l-47-123c-12 45-31 82-46 123h93" id="aJ"/><path fill="#6c7777" d="M127-220V0H93v-220H8v-28h204v28h-85" id="aK"/><path fill="#6c7777" d="M30 0v-248h187v28H63v79h144v27H63v87h162V0H30" id="aL"/><path fill="#6c7777" d="M240 0l2-218c-23 76-54 145-80 218h-23L58-218 59 0H30v-248h44l77 211c21-75 51-140 76-211h43V0h-30" id="aM"/><g id="T"><use transform="matrix(0.05,0,0,0.05,0,0)" xlink:href="#aJ"/><use transform="matrix(0.05,0,0,0.05,10.65,0)" xlink:href="#aK"/><use transform="matrix(0.05,0,0,0.05,21.6,0)" xlink:href="#aL"/><use transform="matrix(0.05,0,0,0.05,33.6,0)" xlink:href="#aM"/></g><g id="U"><use transform="matrix(0.05,0,0,0.05,0,0)" xlink:href="#aM"/><use transform="matrix(0.05,0,0,0.05,14.950000000000001,0)" xlink:href="#ak"/><use transform="matrix(0.05,0,0,0.05,18.900000000000002,0)" xlink:href="#al"/><use transform="matrix(0.05,0,0,0.05,28.900000000000002,0)" xlink:href="#ak"/></g><g id="V"><use transform="matrix(0.05,0,0,0.05,0,0)" xlink:href="#at"/><use transform="matrix(0.05,0,0,0.05,12,0)" xlink:href="#ad"/><use transform="matrix(0.05,0,0,0.05,17.95,0)" xlink:href="#ai"/></g><g id="W"><use transform="matrix(0.05,0,0,0.05,0,0)" xlink:href="#aM"/><use transform="matrix(0.05,0,0,0.05,14.950000000000001,0)" xlink:href="#ak"/><use transform="matrix(0.05,0,0,0.05,18.900000000000002,0)" xlink:href="#al"/><use transform="matrix(0.05,0,0,0.05,28.900000000000002,0)" xlink:href="#ak"/></g><g id="X"><use transform="matrix(0.05,0,0,0.05,0,0)" xlink:href="#aq"/><use transform="matrix(0.05,0,0,0.05,10,0)" xlink:href="#ai"/></g><g id="Y"><use transform="matrix(0.05,0,0,0.05,0,0)" xlink:href="#am"/><use transform="matrix(0.05,0,0,0.05,5,0)" xlink:href="#ai"/><use transform="matrix(0.05,0,0,0.05,15,0)" xlink:href="#ad"/></g><path fill="#6c7777" d="M63-70H37l-4-178h34zM33 0v-35h34V0H33" id="aN"/><g id="Z"><use transform="matrix(0.05,0,0,0.05,0,0)" xlink:href="#ab"/><use transform="matrix(0.05,0,0,0.05,5,0)" xlink:href="#ah"/><use transform="matrix(0.05,0,0,0.05,15,0)" xlink:href="#ak"/><use transform="matrix(0.05,0,0,0.05,18.95,0)" xlink:href="#af"/><use transform="matrix(0.05,0,0,0.05,27.950000000000003,0)" xlink:href="#aN"/></g></defs></g></svg>