<svg xmlns="http://www.w3.org/2000/svg" xmlns:xlink="http://www.w3.org/1999/xlink" xmlns:lucid="lucid" width="866" height="710"><g transform="translate(-53 -26)" lucid:page-tab-id="PzP8ghi5phTO"><path d="M260 60h440v620H260z" stroke="#a5a5a5" stroke-width="2" fill-opacity="0"/><use xlink:href="#a" transform="matrix(1,0,0,1,268,68) translate(141.55 15.6)"/><use xlink:href="#b" transform="matrix(1,0,0,1,268,68) translate(190.5 15.6)"/><use xlink:href="#c" transform="matrix(1,0,0,1,268,68) translate(238.45000000000002 15.6)"/><path d="M159.75 179.75c0 10.9-8.84 19.75-19.75 19.75-10.9 0-19.75-8.84-19.75-19.75 0-10.9 8.84-19.75 19.75-19.75 10.9 0 19.75 8.84 19.75 19.75z" stroke="#a5a5a5" stroke-width="2" fill="#f6edc5"/><path d="M140 199.5v55.3l40 63.2m-40-63.2L100 318m0-98.75h80" stroke="#a5a5a5" stroke-width="2" fill="none"/><path d="M100 160h80v180h-80z" fill="none"/><use xlink:href="#d" transform="matrix(1,0,0,1,20,318) translate(102.525 14.6)"/><path d="M159.75 469.75c0 10.9-8.84 19.75-19.75 19.75-10.9 0-19.75-8.84-19.75-19.75 0-10.9 8.84-19.75 19.75-19.75 10.9 0 19.75 8.84 19.75 19.75z" stroke="#a5a5a5" stroke-width="2" fill="#f6edc5"/><path d="M140 489.5v55.3l40 63.2m-40-63.2L100 608m0-98.75h80" stroke="#a5a5a5" stroke-width="2" fill="none"/><path d="M100 450h80v180h-80z" fill="none"/><use xlink:href="#e" transform="matrix(1,0,0,1,20,608) translate(75.57499999999999 14.6)"/><use xlink:href="#f" transform="matrix(1,0,0,1,20,608) translate(129.475 14.6)"/><path d="M560 190c0 33.14-35.82 60-80 60s-80-26.86-80-60 35.82-60 80-60 80 26.86 80 60z" stroke="#a5a5a5" stroke-width="2" fill="#f6edc5"/><use xlink:href="#g" transform="matrix(1,0,0,1,400,130) translate(54.555 63.15)"/><path d="M560 370c0 33.14-35.82 60-80 60s-80-26.86-80-60 35.82-60 80-60 80 26.86 80 60z" stroke="#a5a5a5" stroke-width="2" fill="#f6edc5"/><use xlink:href="#h" transform="matrix(1,0,0,1,400,310) translate(52.555 63.15)"/><path d="M560 550c0 33.14-35.82 60-80 60s-80-26.86-80-60 35.82-60 80-60 80 26.86 80 60z" stroke="#a5a5a5" stroke-width="2" fill="#f6edc5"/><use xlink:href="#i" transform="matrix(1,0,0,1,400,490) translate(39.55499999999999 63.15)"/><path d="M839.75 209.75c0 10.9-8.84 19.75-19.75 19.75-10.9 0-19.75-8.84-19.75-19.75 0-10.9 8.84-19.75 19.75-19.75 10.9 0 19.75 8.84 19.75 19.75z" stroke="#a5a5a5" stroke-width="2" fill="#f6edc5"/><path d="M820 229.5v55.3l40 63.2m-40-63.2L780 348m0-98.75h80" stroke="#a5a5a5" stroke-width="2" fill="none"/><path d="M780 190h80v180h-80z" fill="none"/><use xlink:href="#j" transform="matrix(1,0,0,1,700,348) translate(80.55 14.6)"/><path d="M142 249.98l15.02-.3 13.72-.86 12.06-1.27 10.83-1.6 9.97-1.9 9.42-2.2 9.2-2.57 9.35-3.04 10.27-3.83 13.76-5.8 42.56-19 10.27-3.84 9.36-3.04 9.18-2.57 9.42-2.2 9.97-1.9 10.83-1.6 12.06-1.27 13.72-.85 15.02-.3M142.03 249.98l-4.03.08" stroke="#a5a5a5" stroke-width="2" fill="none"/><path d="M399 190v.4l.03.6h-1.06v-2h1.06z" fill="#a5a5a5"/><path d="M142 539.98l1.95-.04 2.86-.18 2.82-.3 2.75-.4 2.7-.52 2.7-.63 2.65-.73 2.65-.86 2.66-.98 2.67-1.12 2.7-1.27 2.7-1.43 2.78-1.6 2.84-1.8 2.9-2.02 3-2.27 3.1-2.56 3.23-2.9 3.4-3.34 3.57-3.8 3.8-4.42 4.08-5.15 4.42-6.1 4.86-7.3 5.43-9 6.24-11.36 7.47-15.08 9.78-22.05 18.9-48.35 31.74-83.15 9.77-22.04 7.45-15.07 6.24-11.37 5.42-8.98 4.86-7.32 4.42-6.1 4.08-5.14 3.8-4.4 3.58-3.82 3.4-3.33 3.22-2.9 3.1-2.58 3-2.28 2.9-2.02 2.84-1.8 2.77-1.6 2.7-1.43 2.7-1.27 2.67-1.12 2.66-1 2.65-.85 2.66-.74 2.68-.64 2.7-.52 2.76-.4 2.8-.3 2.87-.18 1.95-.04M142.03 539.98l-4.03.08" stroke="#a5a5a5" stroke-width="2" fill="none"/><path d="M399 190v.4l.03.6h-1.06v-2h1.06z" fill="#a5a5a5"/><path d="M141.9 250.44l14.63 7.2 16.33 8.87 18.58 11.18 28.77 19.05 49.82 33.8 13.7 8.25 11 6 9.74 4.77 9 3.97 8.62 3.37 8.42 2.88 8.37 2.48 8.44 2.13 8.64 1.8 8.92 1.45 9.34 1.14 9.87.77 10.55.4 3.38.02M141.92 250.45L141 250" stroke="#a5a5a5" stroke-width="2" fill="none"/><path d="M399.03 369l-.03 1v.4l.03.6h-1.06v-2z" fill="#a5a5a5"/><path d="M141.83 539.43l11.06-7.63 12.3-9.27 13.2-10.86L193.7 498l22.92-22.4 47.24-47.5 11.55-10.35 9.25-7.6 8.08-6.1 7.38-5.1 6.96-4.36 6.65-3.82 6.5-3.36 6.4-3 6.4-2.64 6.43-2.37 6.53-2.08 6.7-1.84 6.9-1.6 7.2-1.34 7.53-1.08 7.95-.8 8.5-.5 7.25-.14M141.85 539.42l-.85.58" stroke="#a5a5a5" stroke-width="2" fill="none"/><path d="M399 370v.4l.03.6-1.04.02-.04-2 1.07-.02z" fill="#a5a5a5"/><path d="M142 539.98l29.44-.63 39.5-2.56 80.15-6.5 19.72-.43 17 .35 16.1 1 16.1 1.7 16.8 2.5 18.06 3.44 4.25.93M142.03 539.98l-4.03.08" stroke="#a5a5a5" stroke-width="2" fill="none"/><path d="M400.32 539.02l-.43 1.96-1-.22.42-1.96z" fill="#a5a5a5"/><path d="M562 190.02l9.67.2 9.62.6 8.77.92 8.1 1.2 7.58 1.44 7.16 1.68 6.86 1.9 6.63 2.17 6.5 2.42 6.53 2.74 6.66 3.13 7.02 3.68 7.8 4.52 9.65 6.14 48.5 33.34 7.8 4.5 7.04 3.7 6.67 3.13 6.52 2.74 6.5 2.42 6.64 2.15 6.85 1.9 7.15 1.7 7.57 1.43 8.1 1.2 8.8.92 9.6.6 9.68.2" stroke="#a5a5a5" stroke-width="2" fill="none"/><path d="M562.05 189.02l-.04 2-1.03-.02.03-1v-.4l-.03-.6z" fill="#a5a5a5"/><path d="M817.97 282.72H822M561.92 372.73l19.76.2 17.9-.6 15.93-1.18 14.52-1.7 13.55-2.16 12.94-2.63 12.62-3.12 12.58-3.68 12.88-4.35 13.6-5.25 14.94-6.5 17.44-8.48L763.3 321l41.47-24.8 14.38-9.02" stroke="#a5a5a5" stroke-width="2" fill="none"/><path d="M561.95 371.73l-.02 2h-1.1l.08-.8.05-1.2z" fill="#a5a5a5"/><path d="M819.13 287.2l3.4-2.12" stroke="#a5a5a5" stroke-width="2" fill="none"/><path d="M600 540h236l24 24v96H600z" stroke="#a5a5a5" stroke-width="2" fill="#f6edc5"/><path d="M836 540.95V564h23.05" stroke="#a5a5a5" stroke-width="2" fill="#f6edc5"/><g><use xlink:href="#k" transform="matrix(1,0,0,1,605,545) translate(56.57499999999999 38.4625)"/><use xlink:href="#l" transform="matrix(1,0,0,1,605,545) translate(128.575 38.4625)"/><use xlink:href="#m" transform="matrix(1,0,0,1,605,545) translate(79.05 60.0625)"/><use xlink:href="#n" transform="matrix(1,0,0,1,605,545) translate(23.77499999999999 81.66250000000001)"/><use xlink:href="#o" transform="matrix(1,0,0,1,605,545) translate(99.575 81.66250000000001)"/></g><defs><path fill="#6c7878" d="M141-36C126-15 110 5 73 4 37 3 15-17 15-53c-1-64 63-63 125-63 3-35-9-54-41-54-24 1-41 7-42 31l-33-3c5-37 33-52 76-52 45 0 72 20 72 64v82c-1 20 7 32 28 27v20c-31 9-61-2-59-35zM48-53c0 20 12 33 32 33 41-3 63-29 60-74-43 2-92-5-92 41" id="p"/><path fill="#6c7878" d="M84 4C-5 8 30-112 23-190h32v120c0 31 7 50 39 49 72-2 45-101 50-169h31l1 190h-30c-1-10 1-25-2-33-11 22-28 36-60 37" id="q"/><path fill="#6c7878" d="M85-194c31 0 48 13 60 33l-1-100h32l1 261h-30c-2-10 0-23-3-31C134-8 116 4 85 4 32 4 16-35 15-94c0-66 23-100 70-100zm9 24c-40 0-46 34-46 75 0 40 6 74 45 74 42 0 51-32 51-76 0-42-9-74-50-73" id="r"/><path fill="#6c7878" d="M24-231v-30h32v30H24zM24 0v-190h32V0H24" id="s"/><path fill="#6c7878" d="M100-194c62-1 85 37 85 99 1 63-27 99-86 99S16-35 15-95c0-66 28-99 85-99zM99-20c44 1 53-31 53-75 0-43-8-75-51-75s-53 32-53 75 10 74 51 75" id="t"/><g id="a"><use transform="matrix(0.05,0,0,0.05,0,0)" xlink:href="#p"/><use transform="matrix(0.05,0,0,0.05,10,0)" xlink:href="#q"/><use transform="matrix(0.05,0,0,0.05,20,0)" xlink:href="#r"/><use transform="matrix(0.05,0,0,0.05,30,0)" xlink:href="#s"/><use transform="matrix(0.05,0,0,0.05,33.95,0)" xlink:href="#t"/></g><path fill="#6c7878" d="M108 0H70L1-190h34L89-25l56-165h34" id="u"/><path fill="#6c7878" d="M100-194c63 0 86 42 84 106H49c0 40 14 67 53 68 26 1 43-12 49-29l28 8c-11 28-37 45-77 45C44 4 14-33 15-96c1-61 26-98 85-98zm52 81c6-60-76-77-97-28-3 7-6 17-6 28h103" id="v"/><g id="b"><use transform="matrix(0.05,0,0,0.05,0,0)" xlink:href="#u"/><use transform="matrix(0.05,0,0,0.05,9,0)" xlink:href="#s"/><use transform="matrix(0.05,0,0,0.05,12.949999999999998,0)" xlink:href="#r"/><use transform="matrix(0.05,0,0,0.05,22.95,0)" xlink:href="#v"/><use transform="matrix(0.05,0,0,0.05,32.95,0)" xlink:href="#t"/></g><path fill="#6c7878" d="M135-143c-3-34-86-38-87 0 15 53 115 12 119 90S17 21 10-45l28-5c4 36 97 45 98 0-10-56-113-15-118-90-4-57 82-63 122-42 12 7 21 19 24 35" id="w"/><path fill="#6c7878" d="M59-47c-2 24 18 29 38 22v24C64 9 27 4 27-40v-127H5v-23h24l9-43h21v43h35v23H59v120" id="x"/><path fill="#6c7878" d="M115-194c55 1 70 41 70 98S169 2 115 4C84 4 66-9 55-30l1 105H24l-1-265h31l2 30c10-21 28-34 59-34zm-8 174c40 0 45-34 45-75s-6-73-45-74c-42 0-51 32-51 76 0 43 10 73 51 73" id="y"/><g id="c"><use transform="matrix(0.05,0,0,0.05,0,0)" xlink:href="#w"/><use transform="matrix(0.05,0,0,0.05,9,0)" xlink:href="#v"/><use transform="matrix(0.05,0,0,0.05,19,0)" xlink:href="#x"/><use transform="matrix(0.05,0,0,0.05,24,0)" xlink:href="#q"/><use transform="matrix(0.05,0,0,0.05,34,0)" xlink:href="#y"/></g><path fill="#6c7878" d="M114-163C36-179 61-72 57 0H25l-1-190h30c1 12-1 29 2 39 6-27 23-49 58-41v29" id="z"/><g id="d"><use transform="matrix(0.05,0,0,0.05,0,0)" xlink:href="#q"/><use transform="matrix(0.05,0,0,0.05,10,0)" xlink:href="#w"/><use transform="matrix(0.05,0,0,0.05,19,0)" xlink:href="#v"/><use transform="matrix(0.05,0,0,0.05,29,0)" xlink:href="#z"/></g><path fill="#6c7878" d="M206 0h-36l-40-164L89 0H53L-1-190h32L70-26l43-164h34l41 164 42-164h31" id="A"/><g id="e"><use transform="matrix(0.05,0,0,0.05,0,0)" xlink:href="#y"/><use transform="matrix(0.05,0,0,0.05,10,0)" xlink:href="#t"/><use transform="matrix(0.05,0,0,0.05,20,0)" xlink:href="#A"/><use transform="matrix(0.05,0,0,0.05,32.95,0)" xlink:href="#v"/><use transform="matrix(0.05,0,0,0.05,42.95,0)" xlink:href="#z"/></g><g id="f"><use transform="matrix(0.05,0,0,0.05,0,0)" xlink:href="#q"/><use transform="matrix(0.05,0,0,0.05,10,0)" xlink:href="#w"/><use transform="matrix(0.05,0,0,0.05,19,0)" xlink:href="#v"/><use transform="matrix(0.05,0,0,0.05,29,0)" xlink:href="#z"/></g><path d="M114-163C36-179 61-72 57 0H25l-1-190h30c1 12-1 29 2 39 6-27 23-49 58-41v29" id="B"/><path d="M100-194c63 0 86 42 84 106H49c0 40 14 67 53 68 26 1 43-12 49-29l28 8c-11 28-37 45-77 45C44 4 14-33 15-96c1-61 26-98 85-98zm52 81c6-60-76-77-97-28-3 7-6 17-6 28h103" id="C"/><path d="M96-169c-40 0-48 33-48 73s9 75 48 75c24 0 41-14 43-38l32 2c-6 37-31 61-74 61-59 0-76-41-82-99-10-93 101-131 147-64 4 7 5 14 7 22l-32 3c-4-21-16-35-41-35" id="D"/><path d="M100-194c62-1 85 37 85 99 1 63-27 99-86 99S16-35 15-95c0-66 28-99 85-99zM99-20c44 1 53-31 53-75 0-43-8-75-51-75s-53 32-53 75 10 74 51 75" id="E"/><path d="M85-194c31 0 48 13 60 33l-1-100h32l1 261h-30c-2-10 0-23-3-31C134-8 116 4 85 4 32 4 16-35 15-94c0-66 23-100 70-100zm9 24c-40 0-46 34-46 75 0 40 6 74 45 74 42 0 51-32 51-76 0-42-9-74-50-73" id="F"/><g id="g"><use transform="matrix(0.05,0,0,0.05,0,0)" xlink:href="#B"/><use transform="matrix(0.05,0,0,0.05,5.95,0)" xlink:href="#C"/><use transform="matrix(0.05,0,0,0.05,15.949999999999998,0)" xlink:href="#D"/><use transform="matrix(0.05,0,0,0.05,24.95,0)" xlink:href="#E"/><use transform="matrix(0.05,0,0,0.05,34.95,0)" xlink:href="#B"/><use transform="matrix(0.05,0,0,0.05,40.900000000000006,0)" xlink:href="#F"/></g><path d="M135-143c-3-34-86-38-87 0 15 53 115 12 119 90S17 21 10-45l28-5c4 36 97 45 98 0-10-56-113-15-118-90-4-57 82-63 122-42 12 7 21 19 24 35" id="G"/><path d="M59-47c-2 24 18 29 38 22v24C64 9 27 4 27-40v-127H5v-23h24l9-43h21v43h35v23H59v120" id="H"/><path d="M141-36C126-15 110 5 73 4 37 3 15-17 15-53c-1-64 63-63 125-63 3-35-9-54-41-54-24 1-41 7-42 31l-33-3c5-37 33-52 76-52 45 0 72 20 72 64v82c-1 20 7 32 28 27v20c-31 9-61-2-59-35zM48-53c0 20 12 33 32 33 41-3 63-29 60-74-43 2-92-5-92 41" id="I"/><path d="M210-169c-67 3-38 105-44 169h-31v-121c0-29-5-50-35-48C34-165 62-65 56 0H25l-1-190h30c1 10-1 24 2 32 10-44 99-50 107 0 11-21 27-35 58-36 85-2 47 119 55 194h-31v-121c0-29-5-49-35-48" id="J"/><g id="h"><use transform="matrix(0.05,0,0,0.05,0,0)" xlink:href="#G"/><use transform="matrix(0.05,0,0,0.05,9,0)" xlink:href="#H"/><use transform="matrix(0.05,0,0,0.05,14,0)" xlink:href="#B"/><use transform="matrix(0.05,0,0,0.05,19.95,0)" xlink:href="#C"/><use transform="matrix(0.05,0,0,0.05,29.950000000000003,0)" xlink:href="#I"/><use transform="matrix(0.05,0,0,0.05,39.95,0)" xlink:href="#J"/></g><path d="M84 4C-5 8 30-112 23-190h32v120c0 31 7 50 39 49 72-2 45-101 50-169h31l1 190h-30c-1-10 1-25-2-33-11 22-28 36-60 37" id="K"/><path d="M24-231v-30h32v30H24zM24 0v-190h32V0H24" id="L"/><path d="M9 0v-24l116-142H16v-24h144v24L44-24h123V0H9" id="M"/><g id="i"><use transform="matrix(0.05,0,0,0.05,0,0)" xlink:href="#D"/><use transform="matrix(0.05,0,0,0.05,9,0)" xlink:href="#K"/><use transform="matrix(0.05,0,0,0.05,19,0)" xlink:href="#G"/><use transform="matrix(0.05,0,0,0.05,28,0)" xlink:href="#H"/><use transform="matrix(0.05,0,0,0.05,33,0)" xlink:href="#E"/><use transform="matrix(0.05,0,0,0.05,43,0)" xlink:href="#J"/><use transform="matrix(0.05,0,0,0.05,57.95,0)" xlink:href="#L"/><use transform="matrix(0.05,0,0,0.05,61.900000000000006,0)" xlink:href="#M"/><use transform="matrix(0.05,0,0,0.05,70.9,0)" xlink:href="#C"/></g><path fill="#6c7878" d="M96-169c-40 0-48 33-48 73s9 75 48 75c24 0 41-14 43-38l32 2c-6 37-31 61-74 61-59 0-76-41-82-99-10-93 101-131 147-64 4 7 5 14 7 22l-32 3c-4-21-16-35-41-35" id="N"/><path fill="#6c7878" d="M117-194c89-4 53 116 60 194h-32v-121c0-31-8-49-39-48C34-167 62-67 57 0H25l-1-190h30c1 10-1 24 2 32 11-22 29-35 61-36" id="O"/><path fill="#6c7878" d="M210-169c-67 3-38 105-44 169h-31v-121c0-29-5-50-35-48C34-165 62-65 56 0H25l-1-190h30c1 10-1 24 2 32 10-44 99-50 107 0 11-21 27-35 58-36 85-2 47 119 55 194h-31v-121c0-29-5-49-35-48" id="P"/><g id="j"><use transform="matrix(0.05,0,0,0.05,0,0)" xlink:href="#N"/><use transform="matrix(0.05,0,0,0.05,9,0)" xlink:href="#t"/><use transform="matrix(0.05,0,0,0.05,19,0)" xlink:href="#O"/><use transform="matrix(0.05,0,0,0.05,29,0)" xlink:href="#w"/><use transform="matrix(0.05,0,0,0.05,38,0)" xlink:href="#q"/><use transform="matrix(0.05,0,0,0.05,48,0)" xlink:href="#P"/><use transform="matrix(0.05,0,0,0.05,62.95,0)" xlink:href="#v"/><use transform="matrix(0.05,0,0,0.05,72.95,0)" xlink:href="#z"/></g><g id="k"><use transform="matrix(0.05,0,0,0.05,0,0)" xlink:href="#q"/><use transform="matrix(0.05,0,0,0.05,10,0)" xlink:href="#w"/><use transform="matrix(0.05,0,0,0.05,19,0)" xlink:href="#v"/><use transform="matrix(0.05,0,0,0.05,29,0)" xlink:href="#N"/><use transform="matrix(0.05,0,0,0.05,38,0)" xlink:href="#p"/><use transform="matrix(0.05,0,0,0.05,48,0)" xlink:href="#w"/><use transform="matrix(0.05,0,0,0.05,57,0)" xlink:href="#v"/></g><path fill="#6c7878" d="M177-190C167-65 218 103 67 71c-23-6-38-20-44-43l32-5c15 47 100 32 89-28v-30C133-14 115 1 83 1 29 1 15-40 15-95c0-56 16-97 71-98 29-1 48 16 59 35 1-10 0-23 2-32h30zM94-22c36 0 50-32 50-73 0-42-14-75-50-75-39 0-46 34-46 75s6 73 46 73" id="Q"/><g id="l"><use transform="matrix(0.05,0,0,0.05,0,0)" xlink:href="#r"/><use transform="matrix(0.05,0,0,0.05,10,0)" xlink:href="#s"/><use transform="matrix(0.05,0,0,0.05,13.949999999999998,0)" xlink:href="#p"/><use transform="matrix(0.05,0,0,0.05,23.95,0)" xlink:href="#Q"/><use transform="matrix(0.05,0,0,0.05,33.95,0)" xlink:href="#z"/><use transform="matrix(0.05,0,0,0.05,39.900000000000006,0)" xlink:href="#p"/><use transform="matrix(0.05,0,0,0.05,49.900000000000006,0)" xlink:href="#P"/></g><path fill="#6c7878" d="M101-251c82-7 93 87 43 132L82-64C71-53 59-42 53-27h129V0H18c2-99 128-94 128-182 0-28-16-43-45-43s-46 15-49 41l-32-3c6-41 34-60 81-64" id="R"/><path fill="#6c7878" d="M101-251c68 0 85 55 85 127S166 4 100 4C33 4 14-52 14-124c0-73 17-127 87-127zm-1 229c47 0 54-49 54-102s-4-102-53-102c-51 0-55 48-55 102 0 53 5 102 54 102" id="S"/><path fill="#6c7878" d="M16-82v-28h88v28H16" id="T"/><path fill="#6c7878" d="M110-160c48 1 74 30 74 79 0 53-28 85-80 85-65 0-83-55-86-122-5-90 50-162 133-122 14 7 22 21 27 39l-31 6c-5-40-67-38-82-6-9 19-15 44-15 74 11-20 30-34 60-33zm-7 138c34 0 49-23 49-58s-16-56-50-56c-29 0-50 16-49 49 1 36 15 65 50 65" id="U"/><path fill="#6c7878" d="M27 0v-27h64v-190l-56 39v-29l58-41h29v221h61V0H27" id="V"/><g id="m"><use transform="matrix(0.05,0,0,0.05,0,0)" xlink:href="#R"/><use transform="matrix(0.05,0,0,0.05,10,0)" xlink:href="#S"/><use transform="matrix(0.05,0,0,0.05,20,0)" xlink:href="#R"/><use transform="matrix(0.05,0,0,0.05,30,0)" xlink:href="#S"/><use transform="matrix(0.05,0,0,0.05,40,0)" xlink:href="#T"/><use transform="matrix(0.05,0,0,0.05,45.95,0)" xlink:href="#S"/><use transform="matrix(0.05,0,0,0.05,55.95,0)" xlink:href="#U"/><use transform="matrix(0.05,0,0,0.05,65.95,0)" xlink:href="#T"/><use transform="matrix(0.05,0,0,0.05,71.9,0)" xlink:href="#V"/><use transform="matrix(0.05,0,0,0.05,81.9,0)" xlink:href="#U"/></g><path fill="#6c7878" d="M212-179c-10-28-35-45-73-45-59 0-87 40-87 99 0 60 29 101 89 101 43 0 62-24 78-52l27 14C228-24 195 4 139 4 59 4 22-46 18-125c-6-104 99-153 187-111 19 9 31 26 39 46" id="W"/><path fill="#6c7878" d="M106-169C34-169 62-67 57 0H25v-261h32l-1 103c12-21 28-36 61-36 89 0 53 116 60 194h-32v-121c2-32-8-49-39-48" id="X"/><g id="n"><use transform="matrix(0.05,0,0,0.05,0,0)" xlink:href="#W"/><use transform="matrix(0.05,0,0,0.05,12.950000000000001,0)" xlink:href="#X"/><use transform="matrix(0.05,0,0,0.05,22.950000000000003,0)" xlink:href="#z"/><use transform="matrix(0.05,0,0,0.05,28.900000000000002,0)" xlink:href="#s"/><use transform="matrix(0.05,0,0,0.05,32.85,0)" xlink:href="#w"/><use transform="matrix(0.05,0,0,0.05,41.85,0)" xlink:href="#x"/><use transform="matrix(0.05,0,0,0.05,46.85,0)" xlink:href="#s"/><use transform="matrix(0.05,0,0,0.05,50.800000000000004,0)" xlink:href="#p"/><use transform="matrix(0.05,0,0,0.05,60.800000000000004,0)" xlink:href="#O"/></g><path fill="#6c7878" d="M30-248c87 1 191-15 191 75 0 78-77 80-158 76V0H30v-248zm33 125c57 0 124 11 124-50 0-59-68-47-124-48v98" id="Y"/><path fill="#6c7878" d="M240 0l2-218c-23 76-54 145-80 218h-23L58-218 59 0H30v-248h44l77 211c21-75 51-140 76-211h43V0h-30" id="Z"/><path fill="#6c7878" d="M24 0v-261h32V0H24" id="aa"/><path fill="#6c7878" d="M179-190L93 31C79 59 56 82 12 73V49c39 6 53-20 64-50L1-190h34L92-34l54-156h33" id="ab"/><g id="o"><use transform="matrix(0.05,0,0,0.05,0,0)" xlink:href="#Y"/><use transform="matrix(0.05,0,0,0.05,12,0)" xlink:href="#z"/><use transform="matrix(0.05,0,0,0.05,17.95,0)" xlink:href="#s"/><use transform="matrix(0.05,0,0,0.05,21.9,0)" xlink:href="#t"/><use transform="matrix(0.05,0,0,0.05,31.899999999999995,0)" xlink:href="#z"/><use transform="matrix(0.05,0,0,0.05,37.85,0)" xlink:href="#T"/><use transform="matrix(0.05,0,0,0.05,43.800000000000004,0)" xlink:href="#Z"/><use transform="matrix(0.05,0,0,0.05,58.75,0)" xlink:href="#p"/><use transform="matrix(0.05,0,0,0.05,68.75,0)" xlink:href="#P"/><use transform="matrix(0.05,0,0,0.05,83.7,0)" xlink:href="#q"/><use transform="matrix(0.05,0,0,0.05,93.7,0)" xlink:href="#aa"/><use transform="matrix(0.05,0,0,0.05,97.65,0)" xlink:href="#ab"/><use transform="matrix(0.05,0,0,0.05,106.65,0)" xlink:href="#p"/><use transform="matrix(0.05,0,0,0.05,116.65,0)" xlink:href="#O"/></g></defs></g></svg>