<svg xmlns="http://www.w3.org/2000/svg" xmlns:xlink="http://www.w3.org/1999/xlink" xmlns:lucid="lucid" width="1159" height="966"><g transform="translate(-36 -20)" lucid:page-tab-id="RIO85-CGQ.1Q"><path d="M300 182v9.86m0 9.87v19.73m0 9.86v19.73m0 9.87v19.73m0 9.86v19.74m0 9.87v19.74m0 9.86v19.73m0 9.87v19.73m0 9.86v19.72m0 9.87v19.72m0 9.86v19.73m0 9.88v19.73m0 9.87V547m0 9.87v19.73m0 9.86v19.73m0 9.86v19.73m0 9.85v19.73m0 9.87v19.73m0 9.86v19.73m0 9.87v19.73m0 9.86v19.73m0 9.87v19.73m0 9.86v19.73m0 9.87v19.73m0 9.86v19.74m0 9.87v19.74m0 9.86v9.87" stroke="#6c7777" stroke-width="2" fill="none"/><path d="M301 182.03h-2V181h2z" fill="#6c7777"/><path d="M300 951.44v1.03" stroke="#6c7777" stroke-width="2" fill="none"/><path d="M280 620h40v100h-40zM280 210h40v290h-40z" stroke="#a5a5a5" stroke-width="2" fill="#f6edc5"/><path d="M561 951.47h-2v-9.87h2zm0-19.73h-2V912h2zm0-29.6h-2V882.4h2zm0-29.6h-2v-19.72h2zm0-29.6h-2v-19.72h2zm0-29.58h-2v-19.73h2zm0-29.6h-2v-19.73h2zm0-29.6h-2v-19.72h2zm0-29.6h-2v-19.72h2zm0-29.58h-2v-19.73h2zm0-29.6h-2v-19.73h2zm0-29.6h-2v-19.72h2zm0-29.6h-2v-19.72h2zm0-29.58h-2v-19.73h2zm0-29.6h-2v-19.73h2zm0-29.6h-2V497.7h2zm0-29.6h-2V468.1h2zm0-29.58h-2V438.5h2zm0-29.6h-2V408.9h2zm0-29.6h-2V379.3h2zm0-29.6h-2V349.7h2zm0-29.58h-2V320.1h2zm0-29.6h-2V290.5h2zm0-29.6h-2v-19.72h2zm0-29.6h-2v-19.72h2zm0-29.58h-2v-19.73h2zm0-29.6h-2V182h2z" fill="#6c7777"/><path d="M561 182.03h-2V181h2zM561 952.47h-2v-1.03h2z" fill="#6c7777"/><path d="M540 210h40v220h-40zM220 60h160v120H220z" stroke="#a5a5a5" stroke-width="2" fill="#f6edc5"/><use xlink:href="#a" transform="matrix(1,0,0,1,220,60) translate(14.079999999999993 63.15)"/><use xlink:href="#b" transform="matrix(1,0,0,1,220,60) translate(68.97999999999999 63.15)"/><path d="M480 60h160v120H480z" stroke="#a5a5a5" stroke-width="2" fill="#f6edc5"/><use xlink:href="#c" transform="matrix(1,0,0,1,480,60) translate(67.53 63.15)"/><path d="M740 60h160v120H740z" stroke="#a5a5a5" stroke-width="2" fill="#f6edc5"/><use xlink:href="#d" transform="matrix(1,0,0,1,740,60) translate(6.654999999999982 63.15)"/><use xlink:href="#e" transform="matrix(1,0,0,1,740,60) translate(86.505 63.15)"/><path d="M122.25 72.25c0 6.77-5.48 12.25-12.25 12.25s-12.25-5.48-12.25-12.25S103.23 60 110 60s12.25 5.48 12.25 12.25z" stroke="#a5a5a5" stroke-width="2" fill="#f6edc5"/><path d="M110 84.5v34.3l30 39.2m-30-39.2L80 158m0-61.25h60" stroke="#a5a5a5" stroke-width="2" fill="none"/><path d="M80 60h60v120H80z" fill="none"/><use xlink:href="#f" transform="matrix(1,0,0,1,0,158) translate(89.025 14.6)"/><path d="M820 182v9.82m0 9.82v19.63m0 9.82v19.63m0 9.8v19.65m0 9.82v19.63m0 9.82v19.64m0 9.8v19.64m0 9.82V398m0 9.8v19.65m0 9.82v19.63m0 9.82v19.64m0 9.82v19.63m0 9.83v19.64m0 9.82v19.62m0 9.82v19.64m0 9.8v19.65m0 9.82v19.63m0 9.82v19.64m0 9.82V722m0 9.8v19.65m0 9.8v19.65m0 9.82v19.63m0 9.82v19.64m0 9.83v19.63m0 9.82v19.64m0 9.8v19.65m0 9.82v9.8" stroke="#6c7777" stroke-width="2" fill="none"/><path d="M821 182.03h-2V181h2z" fill="#6c7777"/><path d="M820 947.78v1.03M110 121.45v9.94m0 9.94v19.9m0 9.94v19.9m0 9.94v19.9m0 9.94v19.9m0 9.94v19.9m0 9.94v19.9m0 9.94v19.9m0 9.94v19.9m0 9.94v19.9m0 9.94v19.9m0 9.94v19.9m0 9.94v19.9m0 9.94v19.9m0 9.94v19.9m0 9.94V579m0 9.94v19.9m0 9.94v19.9m0 9.94v19.9m0 9.94v19.9m0 9.94v19.9m0 9.94v19.9m0 9.94v19.9m0 9.94v19.9m0 9.94v19.9m0 9.94v19.9m0 9.94v19.9m0 9.94v19.9m0 9.94v9.94M110 121.47v-4.02M110 956.94v1.02" stroke="#6c7777" stroke-width="2" fill="none"/><path d="M154.6 225.04H111v-2h43.6zm126.9 0h-26.1v-2h26.1z" fill="#6c7777"/><path d="M111.03 225.04H110v-2h1.03zM296.76 224.04l-14.26 4.64v-9.27z" fill="#6c7777"/><path d="M300 224.04l-18.5 6.02v-12.03zm-16.5 3.26l10.03-3.26-10.03-3.26z" fill="#6c7777"/><use xlink:href="#g" transform="matrix(1,0,0,1,154.6,213.24338495581264) translate(0 14.4)"/><use xlink:href="#h" transform="matrix(1,0,0,1,154.6,213.24338495581264) translate(51.95 14.4)"/><path d="M368.55 247.12H301v-2h67.55zm172.95 0h-50.05v-2h50.05z" fill="#6c7777"/><path d="M301.03 247.12H300v-2h1.03zM556.76 246.12l-14.26 4.63v-9.27z" fill="#6c7777"/><path d="M560 246.12l-18.5 6v-12zm-16.5 3.26l10.03-3.26-10.03-3.26z" fill="#6c7777"/><use xlink:href="#i" transform="matrix(1,0,0,1,368.55,235.31691570238323) translate(0 14.4)"/><use xlink:href="#j" transform="matrix(1,0,0,1,368.55,235.31691570238323) translate(44 14.4)"/><path d="M583.6 291.26H561v-2h22.6zm217.9-.5h-32.2v-2h32.2z" fill="#6c7777"/><path d="M561.03 291.26H560v-2h1.03zM816.76 289.75l-14.26 4.63v-9.27z" fill="#6c7777"/><path d="M820 289.75l-18.5 6v-12.02zM803.5 293l10.03-3.25-10.03-3.26z" fill="#6c7777"/><use xlink:href="#k" transform="matrix(1,0,0,1,583.5957876850567,279.4639771955245) translate(0 14.4)"/><use xlink:href="#l" transform="matrix(1,0,0,1,583.5957876850567,279.4639771955245) translate(29 14.4)"/><use xlink:href="#m" transform="matrix(1,0,0,1,583.5957876850567,279.4639771955245) translate(87.85 14.4)"/><use xlink:href="#n" transform="matrix(1,0,0,1,583.5957876850567,279.4639771955245) translate(116.85 14.4)"/><path d="M521 413.16h20.5v2H519v-22.52h2zm38-84.24h-38v20.52h-2v-22.52h40z" fill="#6c7777"/><path d="M560 328.92h-1.03v-2H560zM556.76 414.16l-14.26 4.63v-9.28z" fill="#6c7777"/><path d="M560 414.16l-18.5 6v-12.02zm-16.5 3.25l10.03-3.24-10.03-3.26z" fill="#6c7777"/><use xlink:href="#o" transform="matrix(1,0,0,1,482.575,349.4361092690178) translate(0 14.4)"/><use xlink:href="#p" transform="matrix(1,0,0,1,482.575,349.4361092690178) translate(0 36)"/><path d="M559 438.7h-10.02m-10.02 0h-20.04m-10.02 0h-20.04m-10.03 0H458.8m-10.03 0h-20.04m-10.02 0h-20.03m-10.02 0H368.6m-10 0h-20.06m-10.02 0H318.5M558.97 438.7H560" stroke="#6c7777" stroke-width="2" fill="none"/><path d="M303.24 438.7l14.26-4.64v9.27z" stroke="#6c7777" stroke-width="2" fill="#6c7777"/><use xlink:href="#q" transform="matrix(1,0,0,1,386,413.09667113538) translate(0 14.4)"/><use xlink:href="#r" transform="matrix(1,0,0,1,386,413.09667113538) translate(60 14.4)"/><path d="M111 553.17h170.5M111.03 553.17H110" stroke="#6c7777" stroke-width="2" fill="none"/><path d="M296.76 553.17l-14.26 4.63v-9.27z" stroke="#6c7777" stroke-width="2" fill="#6c7777"/><use xlink:href="#s" transform="matrix(1,0,0,1,187.52500000000006,557.1652109172654) translate(0 14.4)"/><path d="M140 600h100v20l-10 10h-90z" fill="#f6edc5"/><path d="M240 600v20l-10 10h-90" stroke="#a5a5a5" stroke-width="2" fill="none"/><path d="M140 600h960v300H140zM140 750h20m15 0h20m15 0h20m15 0h20m15 0h20m15 0h20m15 0h20m15 0h20m15 0h20m15 0h20m15 0h20m15 0h20m15 0h20m15 0h20m15 0h20m15 0h20m15 0h20m15 0h20m15 0h20m15 0h20m15 0h20m15 0h20m15 0h20m15 0h20m15 0h20m15 0h20m15 0h20m15 0h15" stroke="#a5a5a5" stroke-width="2" fill="none"/><use xlink:href="#t" transform="matrix(1,0,0,1,148,600) translate(0 18.6)"/><use xlink:href="#u" transform="matrix(1,0,0,1,152,638) translate(0 18.6)"/><use xlink:href="#v" transform="matrix(1,0,0,1,152,758) translate(0 18.6)"/><path d="M426.28 649.4H301v-2h125.28zm375.22 0H541.08v-2H801.5z" fill="#6c7777"/><path d="M301.03 649.4H300v-2h1.03zM816.76 648.4l-14.26 4.65v-9.27z" fill="#6c7777"/><path d="M820 648.4l-18.5 6.02V642.4zm-16.5 3.27l10.03-3.26-10.03-3.25z" fill="#6c7777"/><use xlink:href="#w" transform="matrix(1,0,0,1,426.27537799711433,637.6122008765296) translate(0 14.4)"/><use xlink:href="#x" transform="matrix(1,0,0,1,426.27537799711433,637.6122008765296) translate(39.95 14.4)"/><path d="M657.05 689.7H578.5v-2h78.55zm161.95 0h-96.05v-2H819z" fill="#6c7777"/><path d="M820 689.7h-1.03v-2H820zM577.5 693.34l-14.26-4.63 14.26-4.63z" fill="#6c7777"/><path d="M578.5 694.72l-18.5-6 18.5-6.02zm-12.03-6l10.03 3.25v-6.52z" fill="#6c7777"/><use xlink:href="#y" transform="matrix(1,0,0,1,657.05,677.9090043208338) translate(0 14.4)"/><use xlink:href="#z" transform="matrix(1,0,0,1,657.05,677.9090043208338) translate(43 14.4)"/><path d="M1000 60h160v120h-160z" stroke="#a5a5a5" stroke-width="2" fill="#f6edc5"/><use xlink:href="#A" transform="matrix(1,0,0,1,1000,60) translate(13.12999999999999 63.15)"/><use xlink:href="#B" transform="matrix(1,0,0,1,1000,60) translate(96.98 63.15)"/><path d="M1080 182v10.12m0 10.13v20.24m0 10.12v20.24m0 10.13v20.23m0 10.13v20.24m0 10.13v20.24m0 10.13v20.24m0 10.13v20.24m0 10.14v20.24m0 10.13v20.25m0 10.13v20.24m0 10.13v20.24m0 10.12v20.24m0 10.13v20.23m0 10.13v20.24m0 10.13v20.24m0 10.13v20.24m0 10.13v20.24m0 10.14v20.24m0 10.13v20.25m0 10.13v20.24m0 10.13v20.24m0 10.12v20.24m0 10.13v20.23m0 10.13V921m0 10.13v20.24m0 10.12v10.12" stroke="#6c7777" stroke-width="2" fill="none"/><path d="M1081 182.03h-2V181h2z" fill="#6c7777"/><path d="M1080 971.6v1.02" stroke="#6c7777" stroke-width="2" fill="none"/><path d="M422.7 786.8H301v-2h121.7zm378.8 0h-260v-2h260z" fill="#6c7777"/><path d="M301.03 786.8H300v-2h1.03zM816.76 785.8l-14.26 4.62v-9.27z" fill="#6c7777"/><path d="M820 785.8l-18.5 6v-12.02zm-16.5 3.25l10.03-3.26-10.03-3.27z" fill="#6c7777"/><use xlink:href="#w" transform="matrix(1,0,0,1,422.7126142556051,774.9876671639299) translate(0 14.4)"/><use xlink:href="#C" transform="matrix(1,0,0,1,422.7126142556051,774.9876671639299) translate(39.95 14.4)"/><path d="M835.97 834.4H821v-2h14.97zm225.53 0h-73.73v-2h73.73z" fill="#6c7777"/><path d="M821.03 834.4H820v-2h1.03zM1076.76 833.4l-14.26 4.65v-9.27z" fill="#6c7777"/><path d="M1080 833.4l-18.5 6.02V827.4zm-16.5 3.27l10.03-3.26-10.03-3.25z" fill="#6c7777"/><g><use xlink:href="#D" transform="matrix(1,0,0,1,835.9726431706499,822.6111621435622) translate(0 14.4)"/><use xlink:href="#E" transform="matrix(1,0,0,1,835.9726431706499,822.6111621435622) translate(59.900000000000006 14.4)"/><use xlink:href="#F" transform="matrix(1,0,0,1,835.9726431706499,822.6111621435622) translate(107.85000000000001 14.4)"/></g><path d="M280 700h40v40h-40z" fill="none"/><path d="M284 704l32 32m0-32l-32 32" stroke="#a5a5a5" stroke-width="8" fill="none"/><path d="M280 769.7h40V860h-40z" stroke="#a5a5a5" stroke-width="2" fill="#f6edc5"/><path d="M280 840h40v40h-40z" fill="none"/><path d="M284 844l32 32m0-32l-32 32" stroke="#a5a5a5" stroke-width="8" fill="none"/><path d="M900 380h236l24 24v96H900z" stroke="#a5a5a5" stroke-width="2" fill="#f6edc5"/><path d="M1136 380.95V404h23.05" stroke="#a5a5a5" stroke-width="2" fill="#f6edc5"/><g><use xlink:href="#G" transform="matrix(1,0,0,1,905,385) translate(42.075 38.4625)"/><use xlink:href="#H" transform="matrix(1,0,0,1,905,385) translate(129.925 38.4625)"/><use xlink:href="#I" transform="matrix(1,0,0,1,905,385) translate(79.05 60.0625)"/><use xlink:href="#J" transform="matrix(1,0,0,1,905,385) translate(23.77499999999999 81.66250000000001)"/><use xlink:href="#K" transform="matrix(1,0,0,1,905,385) translate(99.575 81.66250000000001)"/></g><defs><path d="M240 0l2-218c-23 76-54 145-80 218h-23L58-218 59 0H30v-248h44l77 211c21-75 51-140 76-211h43V0h-30" id="L"/><path d="M141-36C126-15 110 5 73 4 37 3 15-17 15-53c-1-64 63-63 125-63 3-35-9-54-41-54-24 1-41 7-42 31l-33-3c5-37 33-52 76-52 45 0 72 20 72 64v82c-1 20 7 32 28 27v20c-31 9-61-2-59-35zM48-53c0 20 12 33 32 33 41-3 63-29 60-74-43 2-92-5-92 41" id="M"/><path d="M96-169c-40 0-48 33-48 73s9 75 48 75c24 0 41-14 43-38l32 2c-6 37-31 61-74 61-59 0-76-41-82-99-10-93 101-131 147-64 4 7 5 14 7 22l-32 3c-4-21-16-35-41-35" id="N"/><path d="M114-163C36-179 61-72 57 0H25l-1-190h30c1 12-1 29 2 39 6-27 23-49 58-41v29" id="O"/><path d="M100-194c62-1 85 37 85 99 1 63-27 99-86 99S16-35 15-95c0-66 28-99 85-99zM99-20c44 1 53-31 53-75 0-43-8-75-51-75s-53 32-53 75 10 74 51 75" id="P"/><g id="a"><use transform="matrix(0.05,0,0,0.05,0,0)" xlink:href="#L"/><use transform="matrix(0.05,0,0,0.05,14.950000000000001,0)" xlink:href="#M"/><use transform="matrix(0.05,0,0,0.05,24.950000000000003,0)" xlink:href="#N"/><use transform="matrix(0.05,0,0,0.05,33.95,0)" xlink:href="#O"/><use transform="matrix(0.05,0,0,0.05,39.900000000000006,0)" xlink:href="#P"/><path d="M-.9 1.25h56.7v1.32H-.9z"/></g><path d="M194 0L95-120 63-95V0H30v-248h33v124l119-124h40L117-140 236 0h-42" id="Q"/><path d="M100-194c63 0 86 42 84 106H49c0 40 14 67 53 68 26 1 43-12 49-29l28 8c-11 28-37 45-77 45C44 4 14-33 15-96c1-61 26-98 85-98zm52 81c6-60-76-77-97-28-3 7-6 17-6 28h103" id="R"/><path d="M179-190L93 31C79 59 56 82 12 73V49c39 6 53-20 64-50L1-190h34L92-34l54-156h33" id="S"/><path d="M115-194c53 0 69 39 70 98 0 66-23 100-70 100C84 3 66-7 56-30L54 0H23l1-261h32v101c10-23 28-34 59-34zm-8 174c40 0 45-34 45-75 0-40-5-75-45-74-42 0-51 32-51 76 0 43 10 73 51 73" id="T"/><path d="M85-194c31 0 48 13 60 33l-1-100h32l1 261h-30c-2-10 0-23-3-31C134-8 116 4 85 4 32 4 16-35 15-94c0-66 23-100 70-100zm9 24c-40 0-46 34-46 75 0 40 6 74 45 74 42 0 51-32 51-76 0-42-9-74-50-73" id="U"/><g id="b"><use transform="matrix(0.05,0,0,0.05,0,0)" xlink:href="#Q"/><use transform="matrix(0.05,0,0,0.05,12,0)" xlink:href="#R"/><use transform="matrix(0.05,0,0,0.05,22,0)" xlink:href="#S"/><use transform="matrix(0.05,0,0,0.05,31,0)" xlink:href="#T"/><use transform="matrix(0.05,0,0,0.05,41,0)" xlink:href="#P"/><use transform="matrix(0.05,0,0,0.05,51,0)" xlink:href="#M"/><use transform="matrix(0.05,0,0,0.05,61,0)" xlink:href="#O"/><use transform="matrix(0.05,0,0,0.05,66.95,0)" xlink:href="#U"/><path d="M-.9 1.25h78.75v1.32H-.9z"/></g><path d="M30-248c87 1 191-15 191 75 0 78-77 80-158 76V0H30v-248zm33 125c57 0 124 11 124-50 0-59-68-47-124-48v98" id="V"/><path d="M212-179c-10-28-35-45-73-45-59 0-87 40-87 99 0 60 29 101 89 101 43 0 62-24 78-52l27 14C228-24 195 4 139 4 59 4 22-46 18-125c-6-104 99-153 187-111 19 9 31 26 39 46" id="W"/><g id="c"><use transform="matrix(0.05,0,0,0.05,0,0)" xlink:href="#V"/><use transform="matrix(0.05,0,0,0.05,12,0)" xlink:href="#W"/><path d="M-.9 1.25h26.75v1.32H-.9z"/></g><path d="M24-231v-30h32v30H24zM24 0v-190h32V0H24" id="X"/><path d="M117-194c89-4 53 116 60 194h-32v-121c0-31-8-49-39-48C34-167 62-67 57 0H25l-1-190h30c1 10-1 24 2 32 11-22 29-35 61-36" id="Y"/><path d="M177-190C167-65 218 103 67 71c-23-6-38-20-44-43l32-5c15 47 100 32 89-28v-30C133-14 115 1 83 1 29 1 15-40 15-95c0-56 16-97 71-98 29-1 48 16 59 35 1-10 0-23 2-32h30zM94-22c36 0 50-32 50-73 0-42-14-75-50-75-39 0-46 34-46 75s6 73 46 73" id="Z"/><g id="d"><use transform="matrix(0.05,0,0,0.05,0,0)" xlink:href="#O"/><use transform="matrix(0.05,0,0,0.05,5.95,0)" xlink:href="#R"/><use transform="matrix(0.05,0,0,0.05,15.949999999999998,0)" xlink:href="#N"/><use transform="matrix(0.05,0,0,0.05,24.95,0)" xlink:href="#P"/><use transform="matrix(0.05,0,0,0.05,34.95,0)" xlink:href="#O"/><use transform="matrix(0.05,0,0,0.05,40.900000000000006,0)" xlink:href="#U"/><use transform="matrix(0.05,0,0,0.05,50.900000000000006,0)" xlink:href="#X"/><use transform="matrix(0.05,0,0,0.05,54.85,0)" xlink:href="#Y"/><use transform="matrix(0.05,0,0,0.05,64.85000000000001,0)" xlink:href="#Z"/><path d="M-.9 1.25h81.65v1.32H-.9z"/></g><path d="M115-194c55 1 70 41 70 98S169 2 115 4C84 4 66-9 55-30l1 105H24l-1-265h31l2 30c10-21 28-34 59-34zm-8 174c40 0 45-34 45-75s-6-73-45-74c-42 0-51 32-51 76 0 43 10 73 51 73" id="aa"/><path d="M210-169c-67 3-38 105-44 169h-31v-121c0-29-5-50-35-48C34-165 62-65 56 0H25l-1-190h30c1 10-1 24 2 32 10-44 99-50 107 0 11-21 27-35 58-36 85-2 47 119 55 194h-31v-121c0-29-5-49-35-48" id="ab"/><g id="e"><use transform="matrix(0.05,0,0,0.05,0,0)" xlink:href="#aa"/><use transform="matrix(0.05,0,0,0.05,10,0)" xlink:href="#O"/><use transform="matrix(0.05,0,0,0.05,15.949999999999998,0)" xlink:href="#P"/><use transform="matrix(0.05,0,0,0.05,25.950000000000003,0)" xlink:href="#Z"/><use transform="matrix(0.05,0,0,0.05,35.95,0)" xlink:href="#O"/><use transform="matrix(0.05,0,0,0.05,41.900000000000006,0)" xlink:href="#M"/><use transform="matrix(0.05,0,0,0.05,51.900000000000006,0)" xlink:href="#ab"/><path d="M-.9 1.25h68.65v1.32H-.9z"/></g><path fill="#6c7878" d="M205 0l-28-72H64L36 0H1l101-248h38L239 0h-34zm-38-99l-47-123c-12 45-31 82-46 123h93" id="ac"/><path fill="#6c7878" d="M96-169c-40 0-48 33-48 73s9 75 48 75c24 0 41-14 43-38l32 2c-6 37-31 61-74 61-59 0-76-41-82-99-10-93 101-131 147-64 4 7 5 14 7 22l-32 3c-4-21-16-35-41-35" id="ad"/><path fill="#6c7878" d="M59-47c-2 24 18 29 38 22v24C64 9 27 4 27-40v-127H5v-23h24l9-43h21v43h35v23H59v120" id="ae"/><path fill="#6c7878" d="M100-194c62-1 85 37 85 99 1 63-27 99-86 99S16-35 15-95c0-66 28-99 85-99zM99-20c44 1 53-31 53-75 0-43-8-75-51-75s-53 32-53 75 10 74 51 75" id="af"/><path fill="#6c7878" d="M114-163C36-179 61-72 57 0H25l-1-190h30c1 12-1 29 2 39 6-27 23-49 58-41v29" id="ag"/><g id="f"><use transform="matrix(0.05,0,0,0.05,0,0)" xlink:href="#ac"/><use transform="matrix(0.05,0,0,0.05,12,0)" xlink:href="#ad"/><use transform="matrix(0.05,0,0,0.05,21,0)" xlink:href="#ae"/><use transform="matrix(0.05,0,0,0.05,26,0)" xlink:href="#af"/><use transform="matrix(0.05,0,0,0.05,36,0)" xlink:href="#ag"/></g><path fill="#6c7878" d="M135-143c-3-34-86-38-87 0 15 53 115 12 119 90S17 21 10-45l28-5c4 36 97 45 98 0-10-56-113-15-118-90-4-57 82-63 122-42 12 7 21 19 24 35" id="ah"/><path fill="#6c7878" d="M100-194c63 0 86 42 84 106H49c0 40 14 67 53 68 26 1 43-12 49-29l28 8c-11 28-37 45-77 45C44 4 14-33 15-96c1-61 26-98 85-98zm52 81c6-60-76-77-97-28-3 7-6 17-6 28h103" id="ai"/><path fill="#6c7878" d="M24 0v-261h32V0H24" id="aj"/><g id="g"><use transform="matrix(0.05,0,0,0.05,0,0)" xlink:href="#ah"/><use transform="matrix(0.05,0,0,0.05,9,0)" xlink:href="#ai"/><use transform="matrix(0.05,0,0,0.05,19,0)" xlink:href="#aj"/><use transform="matrix(0.05,0,0,0.05,22.95,0)" xlink:href="#ai"/><use transform="matrix(0.05,0,0,0.05,32.95,0)" xlink:href="#ad"/><use transform="matrix(0.05,0,0,0.05,41.95,0)" xlink:href="#ae"/></g><path fill="#6c7878" d="M115-194c55 1 70 41 70 98S169 2 115 4C84 4 66-9 55-30l1 105H24l-1-265h31l2 30c10-21 28-34 59-34zm-8 174c40 0 45-34 45-75s-6-73-45-74c-42 0-51 32-51 76 0 43 10 73 51 73" id="ak"/><path fill="#6c7878" d="M101-234c-31-9-42 10-38 44h38v23H63V0H32v-167H5v-23h27c-7-52 17-82 69-68v24" id="al"/><path fill="#6c7878" d="M24-231v-30h32v30H24zM24 0v-190h32V0H24" id="am"/><g id="h"><use transform="matrix(0.05,0,0,0.05,0,0)" xlink:href="#ak"/><use transform="matrix(0.05,0,0,0.05,10,0)" xlink:href="#ag"/><use transform="matrix(0.05,0,0,0.05,15.949999999999998,0)" xlink:href="#af"/><use transform="matrix(0.05,0,0,0.05,25.950000000000003,0)" xlink:href="#al"/><use transform="matrix(0.05,0,0,0.05,30.950000000000003,0)" xlink:href="#am"/><use transform="matrix(0.05,0,0,0.05,34.9,0)" xlink:href="#aj"/><use transform="matrix(0.05,0,0,0.05,38.85,0)" xlink:href="#ai"/></g><path fill="#6c7878" d="M117-194c89-4 53 116 60 194h-32v-121c0-31-8-49-39-48C34-167 62-67 57 0H25l-1-190h30c1 10-1 24 2 32 11-22 29-35 61-36" id="an"/><path fill="#6c7878" d="M85-194c31 0 48 13 60 33l-1-100h32l1 261h-30c-2-10 0-23-3-31C134-8 116 4 85 4 32 4 16-35 15-94c0-66 23-100 70-100zm9 24c-40 0-46 34-46 75 0 40 6 74 45 74 42 0 51-32 51-76 0-42-9-74-50-73" id="ao"/><g id="i"><use transform="matrix(0.05,0,0,0.05,0,0)" xlink:href="#ah"/><use transform="matrix(0.05,0,0,0.05,9,0)" xlink:href="#ai"/><use transform="matrix(0.05,0,0,0.05,19,0)" xlink:href="#an"/><use transform="matrix(0.05,0,0,0.05,29,0)" xlink:href="#ao"/></g><path fill="#6c7878" d="M210-169c-67 3-38 105-44 169h-31v-121c0-29-5-50-35-48C34-165 62-65 56 0H25l-1-190h30c1 10-1 24 2 32 10-44 99-50 107 0 11-21 27-35 58-36 85-2 47 119 55 194h-31v-121c0-29-5-49-35-48" id="ap"/><path fill="#6c7878" d="M141-36C126-15 110 5 73 4 37 3 15-17 15-53c-1-64 63-63 125-63 3-35-9-54-41-54-24 1-41 7-42 31l-33-3c5-37 33-52 76-52 45 0 72 20 72 64v82c-1 20 7 32 28 27v20c-31 9-61-2-59-35zM48-53c0 20 12 33 32 33 41-3 63-29 60-74-43 2-92-5-92 41" id="aq"/><g id="j"><use transform="matrix(0.05,0,0,0.05,0,0)" xlink:href="#ad"/><use transform="matrix(0.05,0,0,0.05,9,0)" xlink:href="#af"/><use transform="matrix(0.05,0,0,0.05,19,0)" xlink:href="#ap"/><use transform="matrix(0.05,0,0,0.05,33.95,0)" xlink:href="#ap"/><use transform="matrix(0.05,0,0,0.05,48.900000000000006,0)" xlink:href="#aq"/><use transform="matrix(0.05,0,0,0.05,58.900000000000006,0)" xlink:href="#an"/><use transform="matrix(0.05,0,0,0.05,68.9,0)" xlink:href="#ao"/></g><g id="k"><use transform="matrix(0.05,0,0,0.05,0,0)" xlink:href="#ah"/><use transform="matrix(0.05,0,0,0.05,9,0)" xlink:href="#ai"/><use transform="matrix(0.05,0,0,0.05,19,0)" xlink:href="#ae"/></g><path fill="#6c7878" d="M68-38c1 34 0 65-14 84H32c9-13 17-26 17-46H33v-38h35" id="ar"/><g id="l"><use transform="matrix(0.05,0,0,0.05,0,0)" xlink:href="#ak"/><use transform="matrix(0.05,0,0,0.05,10,0)" xlink:href="#ag"/><use transform="matrix(0.05,0,0,0.05,15.949999999999998,0)" xlink:href="#af"/><use transform="matrix(0.05,0,0,0.05,25.950000000000003,0)" xlink:href="#al"/><use transform="matrix(0.05,0,0,0.05,30.950000000000003,0)" xlink:href="#am"/><use transform="matrix(0.05,0,0,0.05,34.9,0)" xlink:href="#aj"/><use transform="matrix(0.05,0,0,0.05,38.85,0)" xlink:href="#ai"/><use transform="matrix(0.05,0,0,0.05,48.85,0)" xlink:href="#ar"/></g><g id="m"><use transform="matrix(0.05,0,0,0.05,0,0)" xlink:href="#ah"/><use transform="matrix(0.05,0,0,0.05,9,0)" xlink:href="#ai"/><use transform="matrix(0.05,0,0,0.05,19,0)" xlink:href="#ae"/></g><path fill="#6c7878" d="M179-190L93 31C79 59 56 82 12 73V49c39 6 53-20 64-50L1-190h34L92-34l54-156h33" id="as"/><path fill="#6c7878" d="M84 4C-5 8 30-112 23-190h32v120c0 31 7 50 39 49 72-2 45-101 50-169h31l1 190h-30c-1-10 1-25-2-33-11 22-28 36-60 37" id="at"/><path fill="#6c7878" d="M87 75C49 33 22-17 22-94c0-76 28-126 65-167h31c-38 41-64 92-64 168S80 34 118 75H87" id="au"/><path fill="#6c7878" d="M33-261c38 41 65 92 65 168S71 34 33 75H2C39 34 66-17 66-93S39-220 2-261h31" id="av"/><g id="n"><use transform="matrix(0.05,0,0,0.05,0,0)" xlink:href="#aj"/><use transform="matrix(0.05,0,0,0.05,3.95,0)" xlink:href="#aq"/><use transform="matrix(0.05,0,0,0.05,13.949999999999998,0)" xlink:href="#as"/><use transform="matrix(0.05,0,0,0.05,22.95,0)" xlink:href="#af"/><use transform="matrix(0.05,0,0,0.05,32.95,0)" xlink:href="#at"/><use transform="matrix(0.05,0,0,0.05,42.95,0)" xlink:href="#ae"/><use transform="matrix(0.05,0,0,0.05,47.95,0)" xlink:href="#au"/><use transform="matrix(0.05,0,0,0.05,53.900000000000006,0)" xlink:href="#ah"/><use transform="matrix(0.05,0,0,0.05,62.900000000000006,0)" xlink:href="#av"/></g><path fill="#6c7878" d="M177-190C167-65 218 103 67 71c-23-6-38-20-44-43l32-5c15 47 100 32 89-28v-30C133-14 115 1 83 1 29 1 15-40 15-95c0-56 16-97 71-98 29-1 48 16 59 35 1-10 0-23 2-32h30zM94-22c36 0 50-32 50-73 0-42-14-75-50-75-39 0-46 34-46 75s6 73 46 73" id="aw"/><g id="o"><use transform="matrix(0.05,0,0,0.05,0,0)" xlink:href="#ad"/><use transform="matrix(0.05,0,0,0.05,9,0)" xlink:href="#af"/><use transform="matrix(0.05,0,0,0.05,19,0)" xlink:href="#an"/><use transform="matrix(0.05,0,0,0.05,29,0)" xlink:href="#al"/><use transform="matrix(0.05,0,0,0.05,34,0)" xlink:href="#am"/><use transform="matrix(0.05,0,0,0.05,37.95,0)" xlink:href="#aw"/><use transform="matrix(0.05,0,0,0.05,47.95,0)" xlink:href="#at"/><use transform="matrix(0.05,0,0,0.05,57.95,0)" xlink:href="#ag"/><use transform="matrix(0.05,0,0,0.05,63.900000000000006,0)" xlink:href="#ai"/></g><path fill="#6c7878" d="M106-169C34-169 62-67 57 0H25v-261h32l-1 103c12-21 28-36 61-36 89 0 53 116 60 194h-32v-121c2-32-8-49-39-48" id="ax"/><path fill="#6c7878" d="M206 0h-36l-40-164L89 0H53L-1-190h32L70-26l43-164h34l41 164 42-164h31" id="ay"/><g id="p"><use transform="matrix(0.05,0,0,0.05,0,0)" xlink:href="#ax"/><use transform="matrix(0.05,0,0,0.05,10,0)" xlink:href="#aq"/><use transform="matrix(0.05,0,0,0.05,20,0)" xlink:href="#ag"/><use transform="matrix(0.05,0,0,0.05,25.950000000000003,0)" xlink:href="#ao"/><use transform="matrix(0.05,0,0,0.05,35.95,0)" xlink:href="#ay"/><use transform="matrix(0.05,0,0,0.05,48.900000000000006,0)" xlink:href="#aq"/><use transform="matrix(0.05,0,0,0.05,58.900000000000006,0)" xlink:href="#ag"/><use transform="matrix(0.05,0,0,0.05,64.85000000000001,0)" xlink:href="#ai"/></g><g id="q"><use transform="matrix(0.05,0,0,0.05,0,0)" xlink:href="#at"/><use transform="matrix(0.05,0,0,0.05,10,0)" xlink:href="#ak"/><use transform="matrix(0.05,0,0,0.05,20,0)" xlink:href="#ao"/><use transform="matrix(0.05,0,0,0.05,30,0)" xlink:href="#aq"/><use transform="matrix(0.05,0,0,0.05,40,0)" xlink:href="#ae"/><use transform="matrix(0.05,0,0,0.05,45,0)" xlink:href="#ai"/></g><path fill="#6c7878" d="M143 0L79-87 56-68V0H24v-261h32v163l83-92h37l-77 82L181 0h-38" id="az"/><g id="r"><use transform="matrix(0.05,0,0,0.05,0,0)" xlink:href="#az"/><use transform="matrix(0.05,0,0,0.05,9,0)" xlink:href="#ai"/><use transform="matrix(0.05,0,0,0.05,19,0)" xlink:href="#as"/></g><g id="s"><use transform="matrix(0.05,0,0,0.05,0,0)" xlink:href="#ah"/><use transform="matrix(0.05,0,0,0.05,9,0)" xlink:href="#ae"/><use transform="matrix(0.05,0,0,0.05,14,0)" xlink:href="#aq"/><use transform="matrix(0.05,0,0,0.05,24,0)" xlink:href="#ag"/><use transform="matrix(0.05,0,0,0.05,29.950000000000003,0)" xlink:href="#ae"/></g><path fill="#6c7878" d="M108 0H70L1-190h34L89-25l56-165h34" id="aA"/><g id="t"><use transform="matrix(0.05,0,0,0.05,0,0)" xlink:href="#ac"/><use transform="matrix(0.05,0,0,0.05,12,0)" xlink:href="#aj"/><use transform="matrix(0.05,0,0,0.05,15.949999999999998,0)" xlink:href="#ae"/><use transform="matrix(0.05,0,0,0.05,20.95,0)" xlink:href="#ai"/><use transform="matrix(0.05,0,0,0.05,30.950000000000003,0)" xlink:href="#ag"/><use transform="matrix(0.05,0,0,0.05,36.9,0)" xlink:href="#an"/><use transform="matrix(0.05,0,0,0.05,46.9,0)" xlink:href="#aq"/><use transform="matrix(0.05,0,0,0.05,56.900000000000006,0)" xlink:href="#ae"/><use transform="matrix(0.05,0,0,0.05,61.900000000000006,0)" xlink:href="#am"/><use transform="matrix(0.05,0,0,0.05,65.85,0)" xlink:href="#aA"/><use transform="matrix(0.05,0,0,0.05,74.85,0)" xlink:href="#ai"/></g><g id="u"><use transform="matrix(0.05,0,0,0.05,0,0)" xlink:href="#ag"/><use transform="matrix(0.05,0,0,0.05,5.95,0)" xlink:href="#ai"/><use transform="matrix(0.05,0,0,0.05,15.949999999999998,0)" xlink:href="#ad"/><use transform="matrix(0.05,0,0,0.05,24.95,0)" xlink:href="#af"/><use transform="matrix(0.05,0,0,0.05,34.95,0)" xlink:href="#ag"/><use transform="matrix(0.05,0,0,0.05,40.900000000000006,0)" xlink:href="#ao"/><use transform="matrix(0.05,0,0,0.05,50.900000000000006,0)" xlink:href="#am"/><use transform="matrix(0.05,0,0,0.05,54.85,0)" xlink:href="#an"/><use transform="matrix(0.05,0,0,0.05,64.85000000000001,0)" xlink:href="#aw"/></g><g id="v"><use transform="matrix(0.05,0,0,0.05,0,0)" xlink:href="#ah"/><use transform="matrix(0.05,0,0,0.05,9,0)" xlink:href="#ae"/><use transform="matrix(0.05,0,0,0.05,14,0)" xlink:href="#ag"/><use transform="matrix(0.05,0,0,0.05,19.95,0)" xlink:href="#ai"/><use transform="matrix(0.05,0,0,0.05,29.950000000000003,0)" xlink:href="#aq"/><use transform="matrix(0.05,0,0,0.05,39.95,0)" xlink:href="#ap"/><use transform="matrix(0.05,0,0,0.05,54.900000000000006,0)" xlink:href="#am"/><use transform="matrix(0.05,0,0,0.05,58.85,0)" xlink:href="#an"/><use transform="matrix(0.05,0,0,0.05,68.85000000000001,0)" xlink:href="#aw"/></g><g id="w"><use transform="matrix(0.05,0,0,0.05,0,0)" xlink:href="#ah"/><use transform="matrix(0.05,0,0,0.05,9,0)" xlink:href="#ae"/><use transform="matrix(0.05,0,0,0.05,14,0)" xlink:href="#aq"/><use transform="matrix(0.05,0,0,0.05,24,0)" xlink:href="#ag"/><use transform="matrix(0.05,0,0,0.05,29.950000000000003,0)" xlink:href="#ae"/></g><g id="x"><use transform="matrix(0.05,0,0,0.05,0,0)" xlink:href="#ag"/><use transform="matrix(0.05,0,0,0.05,5.95,0)" xlink:href="#ai"/><use transform="matrix(0.05,0,0,0.05,15.949999999999998,0)" xlink:href="#ad"/><use transform="matrix(0.05,0,0,0.05,24.95,0)" xlink:href="#af"/><use transform="matrix(0.05,0,0,0.05,34.95,0)" xlink:href="#ag"/><use transform="matrix(0.05,0,0,0.05,40.900000000000006,0)" xlink:href="#ao"/><use transform="matrix(0.05,0,0,0.05,50.900000000000006,0)" xlink:href="#am"/><use transform="matrix(0.05,0,0,0.05,54.85,0)" xlink:href="#an"/><use transform="matrix(0.05,0,0,0.05,64.85000000000001,0)" xlink:href="#aw"/></g><g id="y"><use transform="matrix(0.05,0,0,0.05,0,0)" xlink:href="#ah"/><use transform="matrix(0.05,0,0,0.05,9,0)" xlink:href="#aq"/><use transform="matrix(0.05,0,0,0.05,19,0)" xlink:href="#aA"/><use transform="matrix(0.05,0,0,0.05,28,0)" xlink:href="#ai"/></g><g id="z"><use transform="matrix(0.05,0,0,0.05,0,0)" xlink:href="#al"/><use transform="matrix(0.05,0,0,0.05,5,0)" xlink:href="#am"/><use transform="matrix(0.05,0,0,0.05,8.95,0)" xlink:href="#aj"/><use transform="matrix(0.05,0,0,0.05,12.899999999999999,0)" xlink:href="#ai"/></g><path d="M135-143c-3-34-86-38-87 0 15 53 115 12 119 90S17 21 10-45l28-5c4 36 97 45 98 0-10-56-113-15-118-90-4-57 82-63 122-42 12 7 21 19 24 35" id="aB"/><path d="M59-47c-2 24 18 29 38 22v24C64 9 27 4 27-40v-127H5v-23h24l9-43h21v43h35v23H59v120" id="aC"/><g id="A"><use transform="matrix(0.05,0,0,0.05,0,0)" xlink:href="#aB"/><use transform="matrix(0.05,0,0,0.05,9,0)" xlink:href="#aC"/><use transform="matrix(0.05,0,0,0.05,14,0)" xlink:href="#O"/><use transform="matrix(0.05,0,0,0.05,19.95,0)" xlink:href="#R"/><use transform="matrix(0.05,0,0,0.05,29.950000000000003,0)" xlink:href="#M"/><use transform="matrix(0.05,0,0,0.05,39.95,0)" xlink:href="#ab"/><use transform="matrix(0.05,0,0,0.05,54.900000000000006,0)" xlink:href="#X"/><use transform="matrix(0.05,0,0,0.05,58.85,0)" xlink:href="#Y"/><use transform="matrix(0.05,0,0,0.05,68.85000000000001,0)" xlink:href="#Z"/><path d="M-.9 1.25h85.65v1.32H-.9z"/></g><path d="M108 0H70L1-190h34L89-25l56-165h34" id="aD"/><g id="B"><use transform="matrix(0.05,0,0,0.05,0,0)" xlink:href="#aB"/><use transform="matrix(0.05,0,0,0.05,9,0)" xlink:href="#R"/><use transform="matrix(0.05,0,0,0.05,19,0)" xlink:href="#O"/><use transform="matrix(0.05,0,0,0.05,24.95,0)" xlink:href="#aD"/><use transform="matrix(0.05,0,0,0.05,33.95,0)" xlink:href="#R"/><use transform="matrix(0.05,0,0,0.05,43.95,0)" xlink:href="#O"/><path d="M-.9 1.25h51.7v1.32H-.9z"/></g><g id="C"><use transform="matrix(0.05,0,0,0.05,0,0)" xlink:href="#ah"/><use transform="matrix(0.05,0,0,0.05,9,0)" xlink:href="#ae"/><use transform="matrix(0.05,0,0,0.05,14,0)" xlink:href="#ag"/><use transform="matrix(0.05,0,0,0.05,19.95,0)" xlink:href="#ai"/><use transform="matrix(0.05,0,0,0.05,29.950000000000003,0)" xlink:href="#aq"/><use transform="matrix(0.05,0,0,0.05,39.95,0)" xlink:href="#ap"/><use transform="matrix(0.05,0,0,0.05,54.900000000000006,0)" xlink:href="#am"/><use transform="matrix(0.05,0,0,0.05,58.85,0)" xlink:href="#an"/><use transform="matrix(0.05,0,0,0.05,68.85000000000001,0)" xlink:href="#aw"/></g><g id="D"><use transform="matrix(0.05,0,0,0.05,0,0)" xlink:href="#ah"/><use transform="matrix(0.05,0,0,0.05,9,0)" xlink:href="#ae"/><use transform="matrix(0.05,0,0,0.05,14,0)" xlink:href="#ag"/><use transform="matrix(0.05,0,0,0.05,19.95,0)" xlink:href="#ai"/><use transform="matrix(0.05,0,0,0.05,29.950000000000003,0)" xlink:href="#aq"/><use transform="matrix(0.05,0,0,0.05,39.95,0)" xlink:href="#ap"/></g><g id="E"><use transform="matrix(0.05,0,0,0.05,0,0)" xlink:href="#aA"/><use transform="matrix(0.05,0,0,0.05,9,0)" xlink:href="#am"/><use transform="matrix(0.05,0,0,0.05,12.949999999999998,0)" xlink:href="#ao"/><use transform="matrix(0.05,0,0,0.05,22.95,0)" xlink:href="#ai"/><use transform="matrix(0.05,0,0,0.05,32.95,0)" xlink:href="#af"/></g><g id="F"><use transform="matrix(0.05,0,0,0.05,0,0)" xlink:href="#aq"/><use transform="matrix(0.05,0,0,0.05,10,0)" xlink:href="#at"/><use transform="matrix(0.05,0,0,0.05,20,0)" xlink:href="#ao"/><use transform="matrix(0.05,0,0,0.05,30,0)" xlink:href="#am"/><use transform="matrix(0.05,0,0,0.05,33.95,0)" xlink:href="#af"/></g><g id="G"><use transform="matrix(0.05,0,0,0.05,0,0)" xlink:href="#am"/><use transform="matrix(0.05,0,0,0.05,3.95,0)" xlink:href="#an"/><use transform="matrix(0.05,0,0,0.05,13.949999999999998,0)" xlink:href="#ae"/><use transform="matrix(0.05,0,0,0.05,18.95,0)" xlink:href="#ai"/><use transform="matrix(0.05,0,0,0.05,28.950000000000003,0)" xlink:href="#ag"/><use transform="matrix(0.05,0,0,0.05,34.9,0)" xlink:href="#aq"/><use transform="matrix(0.05,0,0,0.05,44.9,0)" xlink:href="#ad"/><use transform="matrix(0.05,0,0,0.05,53.900000000000006,0)" xlink:href="#ae"/><use transform="matrix(0.05,0,0,0.05,58.900000000000006,0)" xlink:href="#am"/><use transform="matrix(0.05,0,0,0.05,62.85,0)" xlink:href="#af"/><use transform="matrix(0.05,0,0,0.05,72.85,0)" xlink:href="#an"/></g><path fill="#6c7878" d="M145-31C134-9 116 4 85 4 32 4 16-35 15-94c0-59 17-99 70-100 32-1 48 14 60 33 0-11-1-24 2-32h30l-1 268h-32zM93-21c41 0 51-33 51-76s-8-73-50-73c-40 0-46 35-46 75s5 74 45 74" id="aE"/><g id="H"><use transform="matrix(0.05,0,0,0.05,0,0)" xlink:href="#ah"/><use transform="matrix(0.05,0,0,0.05,9,0)" xlink:href="#ai"/><use transform="matrix(0.05,0,0,0.05,19,0)" xlink:href="#aE"/><use transform="matrix(0.05,0,0,0.05,29,0)" xlink:href="#at"/><use transform="matrix(0.05,0,0,0.05,39,0)" xlink:href="#ai"/><use transform="matrix(0.05,0,0,0.05,49,0)" xlink:href="#an"/><use transform="matrix(0.05,0,0,0.05,59,0)" xlink:href="#ad"/><use transform="matrix(0.05,0,0,0.05,68,0)" xlink:href="#ai"/></g><path fill="#6c7878" d="M101-251c82-7 93 87 43 132L82-64C71-53 59-42 53-27h129V0H18c2-99 128-94 128-182 0-28-16-43-45-43s-46 15-49 41l-32-3c6-41 34-60 81-64" id="aF"/><path fill="#6c7878" d="M101-251c68 0 85 55 85 127S166 4 100 4C33 4 14-52 14-124c0-73 17-127 87-127zm-1 229c47 0 54-49 54-102s-4-102-53-102c-51 0-55 48-55 102 0 53 5 102 54 102" id="aG"/><path fill="#6c7878" d="M16-82v-28h88v28H16" id="aH"/><path fill="#6c7878" d="M110-160c48 1 74 30 74 79 0 53-28 85-80 85-65 0-83-55-86-122-5-90 50-162 133-122 14 7 22 21 27 39l-31 6c-5-40-67-38-82-6-9 19-15 44-15 74 11-20 30-34 60-33zm-7 138c34 0 49-23 49-58s-16-56-50-56c-29 0-50 16-49 49 1 36 15 65 50 65" id="aI"/><path fill="#6c7878" d="M27 0v-27h64v-190l-56 39v-29l58-41h29v221h61V0H27" id="aJ"/><g id="I"><use transform="matrix(0.05,0,0,0.05,0,0)" xlink:href="#aF"/><use transform="matrix(0.05,0,0,0.05,10,0)" xlink:href="#aG"/><use transform="matrix(0.05,0,0,0.05,20,0)" xlink:href="#aF"/><use transform="matrix(0.05,0,0,0.05,30,0)" xlink:href="#aG"/><use transform="matrix(0.05,0,0,0.05,40,0)" xlink:href="#aH"/><use transform="matrix(0.05,0,0,0.05,45.95,0)" xlink:href="#aG"/><use transform="matrix(0.05,0,0,0.05,55.95,0)" xlink:href="#aI"/><use transform="matrix(0.05,0,0,0.05,65.95,0)" xlink:href="#aH"/><use transform="matrix(0.05,0,0,0.05,71.9,0)" xlink:href="#aJ"/><use transform="matrix(0.05,0,0,0.05,81.9,0)" xlink:href="#aI"/></g><path fill="#6c7878" d="M212-179c-10-28-35-45-73-45-59 0-87 40-87 99 0 60 29 101 89 101 43 0 62-24 78-52l27 14C228-24 195 4 139 4 59 4 22-46 18-125c-6-104 99-153 187-111 19 9 31 26 39 46" id="aK"/><g id="J"><use transform="matrix(0.05,0,0,0.05,0,0)" xlink:href="#aK"/><use transform="matrix(0.05,0,0,0.05,12.950000000000001,0)" xlink:href="#ax"/><use transform="matrix(0.05,0,0,0.05,22.950000000000003,0)" xlink:href="#ag"/><use transform="matrix(0.05,0,0,0.05,28.900000000000002,0)" xlink:href="#am"/><use transform="matrix(0.05,0,0,0.05,32.85,0)" xlink:href="#ah"/><use transform="matrix(0.05,0,0,0.05,41.85,0)" xlink:href="#ae"/><use transform="matrix(0.05,0,0,0.05,46.85,0)" xlink:href="#am"/><use transform="matrix(0.05,0,0,0.05,50.800000000000004,0)" xlink:href="#aq"/><use transform="matrix(0.05,0,0,0.05,60.800000000000004,0)" xlink:href="#an"/></g><path fill="#6c7878" d="M30-248c87 1 191-15 191 75 0 78-77 80-158 76V0H30v-248zm33 125c57 0 124 11 124-50 0-59-68-47-124-48v98" id="aL"/><path fill="#6c7878" d="M240 0l2-218c-23 76-54 145-80 218h-23L58-218 59 0H30v-248h44l77 211c21-75 51-140 76-211h43V0h-30" id="aM"/><g id="K"><use transform="matrix(0.05,0,0,0.05,0,0)" xlink:href="#aL"/><use transform="matrix(0.05,0,0,0.05,12,0)" xlink:href="#ag"/><use transform="matrix(0.05,0,0,0.05,17.95,0)" xlink:href="#am"/><use transform="matrix(0.05,0,0,0.05,21.9,0)" xlink:href="#af"/><use transform="matrix(0.05,0,0,0.05,31.899999999999995,0)" xlink:href="#ag"/><use transform="matrix(0.05,0,0,0.05,37.85,0)" xlink:href="#aH"/><use transform="matrix(0.05,0,0,0.05,43.800000000000004,0)" xlink:href="#aM"/><use transform="matrix(0.05,0,0,0.05,58.75,0)" xlink:href="#aq"/><use transform="matrix(0.05,0,0,0.05,68.75,0)" xlink:href="#ap"/><use transform="matrix(0.05,0,0,0.05,83.7,0)" xlink:href="#at"/><use transform="matrix(0.05,0,0,0.05,93.7,0)" xlink:href="#aj"/><use transform="matrix(0.05,0,0,0.05,97.65,0)" xlink:href="#as"/><use transform="matrix(0.05,0,0,0.05,106.65,0)" xlink:href="#aq"/><use transform="matrix(0.05,0,0,0.05,116.65,0)" xlink:href="#an"/></g></defs></g></svg>