<?xml version="1.0" encoding="UTF-8" standalone="no"?>
<!-- Created with Inkscape (http://www.inkscape.org/) -->

<svg
   xmlns:dc="http://purl.org/dc/elements/1.1/"
   xmlns:cc="http://creativecommons.org/ns#"
   xmlns:rdf="http://www.w3.org/1999/02/22-rdf-syntax-ns#"
   xmlns:svg="http://www.w3.org/2000/svg"
   xmlns="http://www.w3.org/2000/svg"
   xmlns:xlink="http://www.w3.org/1999/xlink"
   xmlns:sodipodi="http://sodipodi.sourceforge.net/DTD/sodipodi-0.dtd"
   xmlns:inkscape="http://www.inkscape.org/namespaces/inkscape"
   inkscape:export-ydpi="96"
   inkscape:export-xdpi="96"
   inkscape:export-filename="P:\Code\github.com\cprior\audio-video-setup\biz\marketing\visualidentity\cprima\cprima-background_1920-1080_v0.5.png"
   sodipodi:docname="1080p.svg"
   inkscape:version="0.92.4 (5da689c313, 2019-01-14)"
   id="svg8"
   version="1.1"
   viewBox="0 0 507.99998 285.75001"
   height="1080"
   width="1920">
  <defs
     id="defs2">
    <filter
       inkscape:collect="always"
       style="color-interpolation-filters:sRGB"
       id="filter6889"
       x="-0.012"
       width="1.024"
       y="-0.012"
       height="1.024">
      <feGaussianBlur
         inkscape:collect="always"
         stdDeviation="0.15"
         id="feGaussianBlur6891" />
    </filter>
    <pattern
       patternUnits="userSpaceOnUse"
       patternTransform="translate(365.124867701,10.5833330685)"
       height="190.499999996"
       width="126.999999997"
       id="Voronoi2939">
      <path
         id="path5650"
         style="stroke:#000000;stroke-width:0.264583333328"
         d="M 57.653,0.000 59.708,3.795 M 119.995,3.605 120.161,0.000 M 93.716,0.000 97.014,3.419 M 53.978,3.089 54.502,0.000 M 97.014,3.419 100.455,0.000 M 45.668,3.104 53.978,3.089 M 43.355,0.000 45.668,3.104 M 26.247,5.637 27.317,0.000 M 108.758,0.176 108.758,0.000 M 83.846,0.000 83.868,0.091 M 83.868,0.091 90.045,4.864 M 76.808,8.159 83.518,1.520 M 83.518,1.520 83.868,0.091 M 53.978,3.089 54.074,5.897 M 119.995,3.605 120.284,7.294 M 54.074,5.897 55.978,7.276 M 55.978,7.276 59.708,3.795 M 36.935,4.569 37.433,0.000 M 17.741,0.000 19.242,7.132 M 120.284,7.294 126.977,7.637 M 90.045,4.864 95.277,7.246 M 95.277,7.246 97.014,3.419 M 83.407,8.868 83.518,1.520 M 108.758,0.176 112.722,8.123 M 112.722,8.123 119.995,3.605 M 45.668,3.104 48.384,8.755 M 48.384,8.755 54.074,5.897 M 59.708,3.795 67.860,5.743 M 67.860,5.743 69.292,0.000 M 76.808,8.159 78.193,11.419 M 78.193,11.419 83.407,8.868 M 8.181,7.954 13.504,0.000 M 36.935,4.569 48.062,9.648 M 48.062,9.648 48.384,8.755 M 88.507,12.313 90.045,4.864 M 47.898,10.361 48.062,9.648 M 26.247,5.637 36.120,8.682 M 36.120,8.682 36.935,4.569 M 83.407,8.868 84.774,12.031 M 19.242,7.132 23.339,10.502 M 23.339,10.502 26.247,5.637 M 67.735,8.395 67.860,5.743 M 67.735,8.395 76.808,8.159 M 84.774,12.031 85.349,12.646 M 85.349,12.646 88.507,12.313 M 67.461,9.344 67.735,8.395 M 8.181,7.954 10.104,11.098 M 10.104,11.098 19.242,7.132 M 95.277,7.246 97.088,11.170 M 23.339,10.502 23.699,11.743 M 97.088,11.170 100.863,11.879 M 100.863,11.879 108.758,0.176 M 88.507,12.313 94.231,13.719 M 94.231,13.719 97.088,11.170 M 100.863,11.879 102.319,13.534 M 47.898,10.361 50.457,14.944 M 62.907,13.161 67.461,9.344 M 62.907,13.161 69.042,18.250 M 50.457,14.944 60.685,13.509 M 55.978,7.276 60.685,13.509 M 13.938,16.144 23.699,11.743 M 67.461,9.344 75.723,16.111 M 75.723,16.111 78.193,11.419 M 75.723,16.111 75.797,16.261 M 75.797,16.261 84.774,12.031 M 112.722,8.123 115.043,13.767 M 115.043,13.767 120.284,7.294 M 115.043,13.767 115.043,13.771 M 60.685,13.509 61.707,13.930 M 61.707,13.930 62.907,13.161 M 101.767,18.716 102.319,13.534 M 61.704,13.984 61.707,13.930 M 102.319,13.534 112.190,15.487 M 112.190,15.487 115.043,13.771 M 36.029,13.888 36.120,8.682 M 36.029,13.888 47.898,10.361 M 61.704,13.984 64.435,19.291 M 35.629,14.796 36.029,13.888 M 115.043,13.771 120.472,16.943 M 120.472,16.943 126.977,7.637 M 120.472,16.943 120.738,17.256 M 10.104,11.098 10.709,16.901 M 10.709,16.901 13.938,16.144 M 84.964,19.769 85.349,12.646 M 92.332,20.088 94.231,13.719 M 84.964,19.769 86.391,20.597 M 86.391,20.597 92.332,20.088 M 64.435,19.291 69.173,23.206 M 69.042,18.250 69.173,23.206 M 69.042,18.250 76.646,20.220 M 75.797,16.261 76.646,20.220 M 86.348,24.308 86.391,20.597 M 23.699,11.743 29.723,18.015 M 29.723,18.015 35.629,14.796 M 76.646,20.220 76.884,20.920 M 76.884,20.920 84.964,19.769 M 121.232,23.559 123.903,24.290 M 120.652,23.111 120.738,17.256 M 120.652,23.111 121.232,23.559 M 123.903,24.290 127.000,22.673 M 120.738,17.256 127.000,17.518 M 9.505,19.846 10.709,16.901 M 47.690,21.823 50.457,14.944 M 92.332,20.088 95.456,23.792 M 95.456,23.792 101.767,18.716 M 35.629,14.796 45.387,22.462 M 45.387,22.462 47.690,21.823 M 9.505,19.846 25.750,22.380 M 117.651,26.108 120.652,23.111 M 25.750,22.380 28.145,21.278 M 13.938,16.144 28.145,21.278 M 28.145,21.278 28.527,21.153 M 28.527,21.153 29.723,18.015 M 62.712,26.895 64.435,19.291 M 47.690,21.823 55.449,25.689 M 55.449,25.689 61.704,13.984 M 108.581,25.934 112.190,15.487 M 101.767,18.716 107.922,26.056 M 107.922,26.056 108.581,25.934 M 62.712,26.895 72.273,26.454 M 69.173,23.206 72.273,26.454 M 108.581,25.934 112.131,28.101 M 112.131,28.101 117.651,26.108 M 74.594,26.174 76.884,20.920 M 72.273,26.454 73.089,26.755 M 73.089,26.755 74.594,26.174 M 58.015,29.095 62.712,26.895 M 55.449,25.689 56.998,28.801 M 56.998,28.801 58.015,29.095 M 112.131,28.101 113.122,31.638 M 86.348,24.308 93.253,30.410 M 93.253,30.410 96.618,29.093 M 95.456,23.792 96.618,29.093 M 55.169,30.937 56.998,28.801 M 70.629,32.166 73.089,26.755 M 70.629,32.166 75.713,36.863 M 82.532,32.098 86.348,24.308 M 74.594,26.174 82.101,32.151 M 82.101,32.151 82.532,32.098 M 96.618,29.093 100.249,30.990 M 100.249,30.990 107.922,26.056 M 82.532,32.098 88.557,33.624 M 88.557,33.624 93.253,30.410 M 55.169,30.937 56.406,38.002 M 49.622,34.615 55.169,30.937 M 49.622,34.615 54.239,38.800 M 54.239,38.800 56.406,38.002 M 75.713,36.863 80.816,35.151 M 80.816,35.151 82.101,32.151 M 28.527,21.153 32.817,31.737 M 14.876,31.954 25.750,22.380 M 115.063,38.459 119.093,35.928 M 113.122,31.638 119.093,35.928 M 109.574,37.506 113.122,31.638 M 109.574,37.506 110.257,38.458 M 110.257,38.458 115.063,38.459 M 32.817,31.737 40.487,33.246 M 40.487,33.246 45.387,22.462 M 88.557,33.624 89.628,38.668 M 8.693,31.412 14.876,31.954 M 100.249,30.990 101.555,36.598 M 101.555,36.598 109.574,37.506 M 2.923,28.962 9.505,19.846 M 2.923,28.962 8.693,31.412 M 119.093,35.928 124.197,36.988 M 117.651,26.108 124.197,36.988 M 40.487,33.246 43.024,36.365 M 58.015,29.095 65.729,38.078 M 65.729,38.078 70.629,32.166 M 73.103,41.469 75.713,36.863 M 43.024,36.365 43.664,36.755 M 43.664,36.755 49.622,34.615 M 89.628,38.668 91.035,41.073 M 80.816,35.151 80.827,41.628 M 80.827,41.628 89.628,38.668 M 14.876,31.954 24.855,38.348 M 24.855,38.348 26.211,38.265 M 26.211,38.265 32.817,31.737 M 114.717,43.821 115.063,38.459 M 43.664,36.755 45.585,41.137 M 114.717,43.821 120.087,43.661 M 65.704,40.306 65.729,38.078 M 65.704,40.306 73.103,41.469 M 35.177,44.947 43.024,36.365 M 26.211,38.265 29.769,43.950 M 29.769,43.950 35.177,44.947 M 43.839,45.389 45.585,41.137 M 120.087,43.661 127.000,38.892 M 124.197,36.988 127.000,38.266 M 121.232,23.559 127.000,36.075 M 110.257,38.458 111.307,45.057 M 111.307,45.057 114.717,43.821 M 105.806,45.594 111.107,45.356 M 111.107,45.356 111.307,45.057 M 45.585,41.137 52.816,45.479 M 52.816,45.479 54.239,38.800 M 52.816,45.479 53.071,45.723 M 99.201,43.585 101.555,36.598 M 99.201,43.585 105.806,45.594 M 56.406,38.002 63.507,43.632 M 63.507,43.632 65.704,40.306 M 53.071,45.723 62.216,44.633 M 62.216,44.633 63.349,44.056 M 63.349,44.056 63.507,43.632 M 73.103,41.469 79.535,45.637 M 79.535,45.637 80.827,41.628 M 91.035,41.073 97.862,44.652 M 97.862,44.652 99.201,43.585 M 97.794,44.910 97.862,44.652 M 43.839,45.389 46.888,50.977 M 18.155,47.423 24.855,38.348 M 18.155,47.423 20.860,49.804 M 8.693,31.412 15.264,47.850 M 15.264,47.850 18.155,47.423 M 39.433,50.146 43.839,45.389 M 39.433,50.146 46.888,50.977 M 118.179,51.208 120.087,43.661 M 79.535,45.637 80.200,47.680 M 35.177,44.947 38.562,50.815 M 38.562,50.815 39.433,50.146 M 117.664,51.980 118.179,51.208 M 80.200,47.680 81.154,48.635 M 81.154,48.635 91.035,41.073 M 63.349,44.056 68.171,50.986 M 68.171,50.986 80.200,47.680 M 20.860,49.804 28.279,51.598 M 28.279,51.598 29.769,43.950 M 97.496,50.596 97.794,44.910 M 97.496,50.596 106.144,53.801 M 106.144,53.801 106.485,53.913 M 106.485,53.913 106.732,53.935 M 105.806,45.594 106.732,53.935 M 58.452,54.607 62.216,44.633 M 81.154,48.635 81.997,50.398 M 81.997,50.398 97.794,44.910 M 81.997,50.398 82.065,50.680 M 111.107,45.356 113.403,52.805 M 113.403,52.805 117.664,51.980 M 117.664,51.980 121.753,55.240 M 58.452,54.607 59.152,55.464 M 100.342,57.249 106.144,53.801 M 50.867,53.863 53.071,45.723 M 50.867,53.863 58.452,54.607 M 100.342,57.249 101.634,58.294 M 101.634,58.294 106.485,53.913 M 46.888,50.977 50.433,54.265 M 50.433,54.265 50.867,53.863 M 10.079,52.397 15.264,47.850 M 95.783,53.957 97.496,50.596 M 95.783,53.957 100.342,57.249 M 59.152,55.464 68.075,54.918 M 68.075,54.918 68.171,50.986 M 112.114,54.672 113.403,52.805 M 106.732,53.935 109.637,55.375 M 109.637,55.375 112.114,54.672 M 20.796,57.555 20.860,49.804 M 108.368,57.722 109.637,55.375 M 20.288,58.002 20.796,57.555 M 68.075,54.918 68.561,56.221 M 68.561,56.221 68.600,56.281 M 68.600,56.281 82.065,50.680 M 93.430,56.011 95.783,53.957 M 101.634,58.294 102.946,60.530 M 102.946,60.530 108.368,57.722 M 20.796,57.555 30.744,56.138 M 28.279,51.598 30.744,56.138 M 59.775,60.290 68.561,56.221 M 10.079,52.397 11.012,56.251 M 11.012,56.251 20.288,58.002 M 102.884,60.814 102.946,60.530 M 59.152,55.464 59.378,60.215 M 59.378,60.215 59.775,60.290 M 82.065,50.680 83.637,55.474 M 83.637,55.474 93.430,56.011 M 10.750,57.377 11.012,56.251 M 102.884,60.814 108.742,62.689 M 108.368,57.722 108.742,62.689 M 119.883,61.076 121.753,55.240 M 30.744,56.138 31.960,57.110 M 31.960,57.110 34.394,57.202 M 102.302,62.447 102.884,60.814 M 34.394,57.202 36.918,57.052 M 36.918,57.052 38.562,50.815 M 36.918,57.052 37.308,57.325 M 8.716,60.402 10.750,57.377 M 33.436,65.576 34.394,57.202 M 102.302,62.447 108.986,63.742 M 108.742,62.689 108.986,63.742 M 81.967,58.711 83.637,55.474 M 81.967,58.711 82.076,58.988 M 101.702,63.347 102.302,62.447 M 37.308,57.325 47.862,59.037 M 47.862,59.037 50.433,54.265 M 112.114,54.672 116.389,62.076 M 116.389,62.076 119.883,61.076 M 8.716,60.402 9.277,65.461 M 82.076,58.988 83.162,65.137 M 9.207,65.744 9.277,65.461 M 93.430,56.011 95.259,63.947 M 95.259,63.947 101.702,63.347 M 118.179,51.208 127.000,48.488 M 33.436,65.576 36.797,67.368 M 68.600,56.281 71.581,62.303 M 71.581,62.303 81.967,58.711 M 32.666,68.423 33.436,65.576 M 32.666,68.423 36.797,67.368 M 36.797,67.368 38.349,67.043 M 37.308,57.325 38.349,67.043 M 54.366,64.634 59.378,60.215 M 9.277,65.461 18.222,66.308 M 10.750,57.377 18.222,66.308 M 47.862,59.037 50.424,64.062 M 48.822,65.773 50.424,64.062 M 50.424,64.062 53.184,65.216 M 53.184,65.216 54.366,64.634 M 53.184,65.216 53.444,65.771 M 82.076,58.988 93.802,67.177 M 93.802,67.177 95.259,63.947 M 114.120,67.030 116.389,62.076 M 108.986,63.742 111.030,67.523 M 111.030,67.523 114.120,67.030 M 53.140,70.903 53.444,65.771 M 0.000,29.539 2.923,28.962 M 0.000,47.934 10.079,52.397 M 38.349,67.043 40.192,69.777 M 40.192,69.777 48.822,65.773 M 59.775,60.290 69.829,66.391 M 69.829,66.391 71.581,62.303 M 53.140,70.903 54.191,73.416 M 47.357,72.754 48.822,65.773 M 20.288,58.002 21.454,67.662 M 21.454,67.662 25.139,67.878 M 25.139,67.878 31.960,57.110 M 18.222,66.308 20.635,67.994 M 20.635,67.994 21.454,67.662 M 54.366,64.634 69.763,66.811 M 69.763,66.811 69.829,66.391 M 114.120,67.030 117.656,70.319 M 39.848,71.898 40.192,69.777 M 39.848,71.898 47.357,72.754 M 69.763,66.811 69.831,68.258 M 25.139,67.878 28.361,71.044 M 28.361,71.044 32.666,68.423 M 17.871,71.439 20.635,67.994 M 83.162,65.137 90.866,71.099 M 90.866,71.099 93.259,70.404 M 93.259,70.404 93.802,67.177 M 9.207,65.744 17.382,71.869 M 17.382,71.869 17.871,71.439 M 101.702,63.347 106.180,71.248 M 106.180,71.248 111.030,67.523 M 5.675,72.065 9.207,65.744 M 93.259,70.404 95.437,72.144 M 53.444,65.771 62.140,73.320 M 62.140,73.320 69.831,68.258 M 78.495,73.204 83.162,65.137 M 117.656,70.319 127.000,68.387 M 119.883,61.076 127.000,64.240 M 36.282,74.879 38.833,74.498 M 38.833,74.498 39.848,71.898 M 28.361,71.044 29.725,73.972 M 29.725,73.972 36.282,74.879 M 94.445,78.248 95.437,72.144 M 50.554,77.737 54.191,73.416 M 69.831,68.258 74.530,73.558 M 74.530,73.558 78.495,73.204 M 47.357,72.754 48.310,77.103 M 48.310,77.103 53.140,70.903 M 50.554,77.737 53.708,78.871 M 117.656,70.319 117.702,76.848 M 78.495,73.204 85.319,76.029 M 85.319,76.029 90.866,71.099 M 48.281,77.405 48.310,77.103 M 48.281,77.405 50.554,77.737 M 53.708,78.871 58.384,77.495 M 54.191,73.416 58.384,77.495 M 95.437,72.144 104.550,74.411 M 104.550,74.411 106.180,71.248 M 123.903,24.290 127.000,25.796 M 17.871,71.439 25.118,79.193 M 46.988,78.466 48.281,77.405 M 13.743,76.316 17.382,71.869 M 13.743,76.316 25.118,79.193 M 58.384,77.495 60.517,77.613 M 60.517,77.613 62.140,73.320 M 5.675,72.065 13.596,76.442 M 13.596,76.442 13.743,76.316 M 104.550,74.411 105.296,76.650 M 105.296,76.650 117.702,76.848 M 38.833,74.498 42.682,79.305 M 42.682,79.305 46.988,78.466 M 25.118,79.193 27.250,80.380 M 27.250,80.380 29.725,73.972 M 117.702,76.848 119.987,80.240 M 106.882,81.277 119.987,80.240 M 72.922,81.032 74.530,73.558 M 53.201,84.786 53.708,78.871 M 53.201,84.786 54.188,85.148 M 105.018,80.983 105.296,76.650 M 105.018,80.983 106.882,81.277 M 105.014,80.995 105.018,80.983 M 94.445,78.248 98.702,83.951 M 98.702,83.951 103.690,82.124 M 103.690,82.124 105.014,80.995 M 46.988,78.466 50.475,85.487 M 50.475,85.487 53.201,84.786 M 119.987,80.240 121.200,81.622 M 72.922,81.032 75.760,83.854 M 40.984,83.980 42.682,79.305 M 50.192,85.870 50.475,85.487 M 105.014,80.995 108.855,86.429 M 13.333,82.410 13.596,76.442 M 75.760,83.854 86.455,83.504 M 85.319,76.029 86.455,83.504 M 106.882,81.277 118.581,84.910 M 118.581,84.910 121.200,81.622 M 33.853,85.647 36.282,74.879 M 33.853,85.647 40.984,83.980 M 33.814,85.667 33.853,85.647 M 86.455,83.504 87.208,84.377 M 87.208,84.377 94.445,78.248 M 54.188,85.148 63.317,84.072 M 60.517,77.613 63.317,84.072 M 27.248,84.564 27.250,80.380 M 27.248,84.564 33.814,85.667 M 40.984,83.980 43.716,87.932 M 43.716,87.932 50.192,85.870 M 63.317,84.072 63.981,84.721 M 63.981,84.721 72.922,81.032 M 108.855,86.429 117.024,88.191 M 117.024,88.191 118.581,84.910 M 108.242,91.206 108.855,86.429 M 75.760,83.854 76.039,90.394 M 117.024,88.191 117.034,89.819 M 117.034,89.819 119.328,90.641 M 106.938,92.885 108.242,91.206 M 108.242,91.206 116.384,91.427 M 116.384,91.427 117.034,89.819 M 76.039,90.394 85.543,92.077 M 85.543,92.077 89.674,89.667 M 87.208,84.377 89.674,89.667 M 103.148,93.941 103.690,82.124 M 103.148,93.941 106.938,92.885 M 89.674,89.667 91.381,90.394 M 91.381,90.394 98.702,83.951 M 13.333,82.410 18.510,90.379 M 18.510,90.379 20.553,90.650 M 20.553,90.650 27.248,84.564 M 101.593,95.317 103.148,93.941 M 20.553,90.650 21.148,91.475 M 33.814,85.667 36.815,95.675 M 82.046,98.038 85.543,92.077 M 82.046,98.038 85.802,101.285 M 101.593,95.317 105.156,99.929 M 50.192,85.870 52.514,96.415 M 91.381,90.394 95.085,95.566 M 95.085,95.566 101.593,95.317 M 52.514,96.415 56.180,96.928 M 54.188,85.148 56.180,96.928 M 94.472,98.476 95.085,95.566 M 85.802,101.285 94.197,98.843 M 94.197,98.843 94.472,98.476 M 21.148,91.475 28.788,98.658 M 28.788,98.658 36.815,95.675 M 105.156,99.929 111.235,101.181 M 36.815,95.675 43.597,97.319 M 43.597,97.319 43.716,87.932 M 109.848,103.553 111.235,101.181 M 93.171,101.557 94.197,98.843 M 56.180,96.928 57.722,97.434 M 85.602,104.371 85.802,101.285 M 43.597,97.319 44.033,97.763 M 44.033,97.763 52.514,96.415 M 63.902,96.195 63.981,84.721 M 55.571,102.532 57.722,97.434 M 85.602,104.371 90.554,104.446 M 90.554,104.446 93.171,101.557 M 57.722,97.434 61.535,97.168 M 61.535,97.168 63.902,96.195 M 106.938,92.885 115.722,99.614 M 115.722,99.614 116.384,91.427 M 111.235,101.181 115.758,99.772 M 115.722,99.614 115.758,99.772 M 103.204,105.013 105.156,99.929 M 103.204,105.013 109.848,103.553 M 63.902,96.195 69.353,98.276 M 69.353,98.276 76.039,90.394 M 69.353,98.276 69.357,98.279 M 121.753,55.240 127.000,54.494 M 69.357,98.279 76.096,101.300 M 76.096,101.300 82.046,98.038 M 76.096,101.300 76.620,102.303 M 108.063,107.424 109.848,103.553 M 76.620,102.303 83.709,106.746 M 83.709,106.746 85.602,104.371 M 104.716,107.627 108.063,107.424 M 43.242,103.726 44.033,97.763 M 6.012,99.851 18.510,90.379 M 115.758,99.772 119.354,102.677 M 102.261,106.936 103.204,105.013 M 102.261,106.936 104.716,107.627 M 108.063,107.424 109.681,109.117 M 109.681,109.117 119.354,102.677 M 94.472,98.476 101.434,107.239 M 101.434,107.239 102.261,106.936 M 109.681,109.117 109.975,110.100 M 43.242,103.726 50.150,108.609 M 50.150,108.609 55.571,102.532 M 0.919,99.758 6.012,99.851 M 60.805,109.324 61.535,97.168 M 55.571,102.532 56.384,110.960 M 56.384,110.960 60.805,109.324 M 56.270,111.065 56.384,110.960 M 28.687,107.021 28.788,98.658 M 119.354,102.677 122.875,104.759 M 104.716,107.627 106.861,113.202 M 106.861,113.202 109.975,110.100 M 0.919,99.758 5.166,114.937 M 122.875,104.759 127.000,104.942 M 109.975,110.100 115.183,113.726 M 115.183,113.726 122.875,104.759 M 28.687,107.021 37.541,110.699 M 37.541,110.699 43.242,103.726 M 18.696,110.600 21.148,91.475 M 18.696,110.600 22.449,110.924 M 22.449,110.924 28.687,107.021 M 50.150,108.609 52.297,113.596 M 52.297,113.596 56.270,111.065 M 6.012,99.851 16.610,110.884 M 16.610,110.884 18.696,110.600 M 52.165,114.078 52.297,113.596 M 3.928,116.772 5.166,114.937 M 119.328,90.641 127.000,97.291 M 112.921,116.369 114.765,115.486 M 114.765,115.486 115.183,113.726 M 37.541,110.699 38.181,112.960 M 22.449,110.924 24.562,115.891 M 5.166,114.937 15.019,113.538 M 15.019,113.538 16.610,110.884 M 76.098,114.565 76.620,102.303 M 68.043,114.093 69.357,98.279 M 60.805,109.324 67.371,114.325 M 67.371,114.325 68.043,114.093 M 38.181,112.960 39.112,114.131 M 39.112,114.131 52.165,114.078 M 97.250,114.015 101.434,107.239 M 93.171,101.557 96.196,114.124 M 96.196,114.124 97.250,114.015 M 68.043,114.093 72.026,115.170 M 72.026,115.170 76.098,114.565 M 105.595,116.780 106.861,113.202 M 105.595,116.780 112.921,116.369 M 24.562,115.891 30.348,119.430 M 30.348,119.430 38.181,112.960 M 88.366,114.808 90.554,104.446 M 83.709,106.746 86.196,114.859 M 86.196,114.859 86.659,114.942 M 86.659,114.942 88.366,114.808 M 88.366,114.808 92.279,115.559 M 92.279,115.559 96.196,114.124 M 56.270,111.065 64.162,117.841 M 64.162,117.841 67.371,114.325 M 52.165,114.078 52.990,117.481 M 76.098,114.565 81.105,116.447 M 81.105,116.447 86.196,114.859 M 97.250,114.015 103.503,118.016 M 103.503,118.016 105.595,116.780 M 52.990,117.481 63.589,118.643 M 63.589,118.643 64.162,117.841 M 52.532,118.684 52.990,117.481 M 23.117,121.912 24.562,115.891 M 86.659,114.942 86.921,123.310 M 23.117,121.912 26.510,124.099 M 110.802,124.072 112.921,116.369 M 26.510,124.099 30.797,123.839 M 30.348,119.430 30.797,123.839 M 92.279,115.559 93.834,124.203 M 104.067,122.795 104.253,122.663 M 103.503,118.016 104.253,122.663 M 79.513,123.883 81.105,116.447 M 114.765,115.486 120.127,122.301 M 120.127,122.301 120.562,122.339 M 120.562,122.339 127.000,110.205 M 104.253,122.663 105.233,123.476 M 105.233,123.476 110.802,124.072 M 93.834,124.203 96.613,125.726 M 96.613,125.726 104.067,122.795 M 24.825,127.538 26.510,124.099 M 24.825,127.538 26.285,128.196 M 79.513,123.883 80.108,125.082 M 72.026,115.170 72.054,125.593 M 72.054,125.593 79.513,123.883 M 101.013,129.066 104.067,122.795 M 96.613,125.726 97.124,127.991 M 97.124,127.991 99.539,129.309 M 99.539,129.309 101.013,129.066 M 76.658,129.576 80.108,125.082 M 110.802,124.072 114.481,126.403 M 114.481,126.403 120.127,122.301 M 86.921,123.310 89.801,127.737 M 80.108,125.082 82.319,127.507 M 82.319,127.507 86.921,123.310 M 89.801,127.737 90.080,127.802 M 90.080,127.802 93.834,124.203 M 90.080,127.802 90.272,128.353 M 70.812,127.013 72.054,125.593 M 70.812,127.013 76.658,129.576 M 120.562,122.339 125.460,125.623 M 3.928,116.772 13.084,124.612 M 13.084,124.612 15.019,113.538 M 82.319,127.507 83.145,129.161 M 83.145,129.161 89.801,127.737 M 63.589,118.643 63.712,126.644 M 52.532,118.684 60.669,127.714 M 60.669,127.714 63.712,126.644 M 46.505,126.119 52.532,118.684 M 0.000,62.632 8.716,60.402 M 0.000,72.463 5.675,72.065 M 13.084,124.612 13.190,126.078 M 39.112,114.131 42.107,126.191 M 42.107,126.191 46.505,126.119 M 46.505,126.119 50.434,129.358 M 50.434,129.358 53.122,130.276 M 63.712,126.644 67.896,129.001 M 67.896,129.001 70.812,127.013 M 26.285,128.196 35.199,128.617 M 30.797,123.839 35.199,128.617 M 53.122,130.276 56.867,130.630 M 56.867,130.630 60.669,127.714 M 0.000,84.499 13.333,82.410 M 0.000,99.545 0.919,99.758 M 105.233,123.476 106.612,132.100 M 13.190,126.078 14.165,127.348 M 14.165,127.348 23.117,121.912 M 90.272,128.353 94.737,133.096 M 94.737,133.096 97.124,127.991 M 76.658,129.576 77.878,133.535 M 106.612,132.100 110.128,132.681 M 101.013,129.066 104.838,133.160 M 104.838,133.160 106.612,132.100 M 77.878,133.535 82.438,132.914 M 82.438,132.914 83.145,129.161 M 110.128,132.681 113.758,132.459 M 113.758,132.459 114.481,126.403 M 56.867,130.630 58.039,134.706 M 103.782,134.363 104.838,133.160 M 38.365,129.360 42.107,126.191 M 99.350,135.164 99.539,129.309 M 99.350,135.164 103.782,134.363 M 67.896,129.001 69.002,133.128 M 35.199,128.617 36.973,130.056 M 36.973,130.056 38.365,129.360 M 48.418,137.244 50.434,129.358 M 55.455,138.042 58.039,134.706 M 48.418,137.244 49.474,137.912 M 58.039,134.706 60.613,137.129 M 60.613,137.129 69.002,133.128 M 38.365,129.360 46.100,137.811 M 46.100,137.811 46.595,137.899 M 46.595,137.899 48.418,137.244 M 82.438,132.914 84.631,135.793 M 52.367,138.545 53.122,130.276 M 52.367,138.545 55.455,138.042 M 69.002,133.128 70.061,134.707 M 26.285,128.196 27.013,135.413 M 49.474,137.912 52.168,138.713 M 52.168,138.713 52.367,138.545 M 60.613,137.129 60.809,138.231 M 27.013,135.413 35.385,133.050 M 35.385,133.050 36.973,130.056 M 14.165,127.348 15.644,132.147 M 15.644,132.147 24.825,127.538 M 70.061,134.707 73.185,136.445 M 73.185,136.445 77.878,133.535 M 15.644,132.147 15.658,132.315 M 0.000,125.915 13.190,126.078 M 86.911,137.330 90.272,128.353 M 86.911,137.330 95.490,136.834 M 94.737,133.096 95.490,136.834 M 119.539,136.297 125.460,125.623 M 95.490,136.834 95.613,136.914 M 95.613,136.914 99.350,135.164 M 84.631,135.793 86.639,137.421 M 86.639,137.421 86.911,137.330 M 24.005,136.548 27.013,135.413 M 15.658,132.315 21.231,136.551 M 21.231,136.551 24.005,136.548 M 113.758,132.459 117.859,136.947 M 117.859,136.947 119.539,136.297 M 117.758,137.290 117.859,136.947 M 0.000,118.589 3.928,116.772 M 0.000,132.012 10.032,137.441 M 10.032,137.441 15.658,132.315 M 60.809,138.231 65.138,141.691 M 65.138,141.691 65.184,141.695 M 65.184,141.695 70.061,134.707 M 107.557,141.364 110.128,132.681 M 107.557,141.364 109.517,141.835 M 109.517,141.835 117.758,137.290 M 103.782,134.363 105.987,141.398 M 105.987,141.398 107.557,141.364 M 55.455,138.042 57.419,143.023 M 57.419,143.023 60.809,138.231 M 73.185,136.445 75.072,141.310 M 75.072,141.310 84.631,135.793 M 8.598,140.550 10.032,137.441 M 65.184,141.695 67.231,144.531 M 75.072,141.310 75.211,142.212 M 67.231,144.531 74.159,143.831 M 74.159,143.831 75.211,142.212 M 109.517,141.835 111.215,146.646 M 117.758,137.290 119.000,144.316 M 85.071,144.324 86.639,137.421 M 75.211,142.212 83.999,144.692 M 83.999,144.692 85.071,144.324 M 58.482,145.969 65.138,141.691 M 89.673,146.358 97.661,144.162 M 95.613,136.914 97.661,144.162 M 82.751,146.918 83.999,144.692 M 39.037,144.095 46.100,137.811 M 119.000,144.316 122.950,146.746 M 85.071,144.324 87.845,146.347 M 87.845,146.347 89.673,146.358 M 111.215,146.646 115.164,147.637 M 115.164,147.637 115.500,147.636 M 115.500,147.636 119.000,144.316 M 56.774,145.924 57.419,143.023 M 56.774,145.924 58.482,145.969 M 35.385,133.050 37.504,143.976 M 37.504,143.976 39.037,144.095 M 89.673,146.358 92.674,151.097 M 97.661,144.162 100.173,146.252 M 100.173,146.252 105.987,141.398 M 35.612,146.224 37.504,143.976 M 39.037,144.095 48.135,147.195 M 46.595,137.899 48.135,147.195 M 58.482,145.969 65.611,149.630 M 65.611,149.630 67.231,144.531 M 52.168,138.713 52.609,147.130 M 48.135,147.195 48.379,147.343 M 48.379,147.343 49.474,137.912 M 52.609,147.130 54.344,147.410 M 54.344,147.410 56.774,145.924 M 48.379,147.343 48.950,147.772 M 48.950,147.772 52.609,147.130 M 92.674,151.097 100.677,148.212 M 100.173,146.252 100.677,148.212 M 24.005,136.548 32.370,148.109 M 32.370,148.109 35.612,146.224 M 87.778,152.443 87.845,146.347 M 65.611,149.630 66.076,150.932 M 64.303,152.835 66.076,150.932 M 8.598,140.550 10.483,149.202 M 105.759,151.353 111.215,146.646 M 74.100,151.472 74.159,143.831 M 74.100,151.472 82.751,146.918 M 54.344,147.410 56.914,153.050 M 56.914,153.050 64.303,152.835 M 100.677,148.212 101.572,150.169 M 101.572,150.169 105.759,151.353 M 9.211,150.392 10.483,149.202 M 20.395,150.204 21.231,136.551 M 10.483,149.202 19.337,150.619 M 19.337,150.619 20.395,150.204 M 29.971,150.877 32.370,148.109 M 105.759,151.353 109.095,154.625 M 109.095,154.625 115.164,147.637 M 87.778,152.443 91.050,155.346 M 91.050,155.346 92.674,151.097 M 81.681,154.859 82.751,146.918 M 81.681,154.859 87.778,152.443 M 66.076,150.932 73.566,153.384 M 73.566,153.384 74.100,151.472 M 20.395,150.204 27.334,152.042 M 27.334,152.042 29.971,150.877 M 73.566,153.384 73.700,153.682 M 115.500,147.636 117.332,155.746 M 117.332,155.746 117.696,155.812 M 117.696,155.812 122.950,146.746 M 63.735,158.051 64.303,152.835 M 80.571,156.151 81.681,154.859 M 66.790,159.256 73.700,153.682 M 56.394,157.540 56.914,153.050 M 56.394,157.540 57.529,158.730 M 57.529,158.730 63.735,158.051 M 29.971,150.877 37.547,158.733 M 63.735,158.051 65.477,159.796 M 65.477,159.796 66.790,159.256 M 66.790,159.256 71.823,161.785 M 73.700,153.682 76.987,157.084 M 76.987,157.084 80.571,156.151 M 109.095,154.625 111.363,157.988 M 111.363,157.988 117.332,155.746 M 117.696,155.812 122.708,158.235 M 8.391,159.655 9.211,150.392 M 91.050,155.346 92.767,158.708 M 97.453,158.431 101.572,150.169 M 97.453,158.431 100.611,160.433 M 17.061,160.571 19.337,150.619 M 71.823,161.785 76.693,159.150 M 76.693,159.150 76.987,157.084 M 92.767,158.708 95.951,159.036 M 95.951,159.036 97.453,158.431 M 37.547,158.733 44.515,158.622 M 35.612,146.224 44.515,158.622 M 119.328,90.641 127.000,91.234 M 80.571,156.151 88.759,161.235 M 88.759,161.235 92.767,158.708 M 44.515,158.622 44.997,158.779 M 44.997,158.779 48.950,147.772 M 110.404,160.704 111.363,157.988 M 44.997,158.779 45.075,158.901 M 110.404,160.704 119.483,164.366 M 119.483,164.366 122.708,158.235 M 45.075,158.901 46.008,159.829 M 46.008,159.829 56.394,157.540 M 8.391,159.655 10.571,162.340 M 10.571,162.340 17.061,160.571 M 87.849,163.536 88.759,161.235 M 87.849,163.536 88.657,164.863 M 100.611,160.433 108.932,162.957 M 108.932,162.957 110.404,160.704 M 88.657,164.863 90.862,167.692 M 108.932,162.957 109.004,164.454 M 109.004,164.454 119.397,167.506 M 119.397,167.506 119.483,164.366 M 89.276,170.395 90.862,167.692 M 82.409,166.946 87.849,163.536 M 76.693,159.150 78.519,166.165 M 78.519,166.165 82.409,166.946 M 9.944,166.908 10.571,162.340 M 119.397,167.506 119.699,168.280 M 46.008,159.829 47.847,165.895 M 87.363,171.261 88.657,164.863 M 87.363,171.261 89.276,170.395 M 46.688,167.929 47.847,165.895 M 90.862,167.692 96.143,169.441 M 95.951,159.036 96.143,169.441 M 119.392,169.879 119.699,168.280 M 108.180,168.273 109.004,164.454 M 37.431,170.174 46.688,167.929 M 8.096,169.699 9.944,166.908 M 108.180,168.273 117.180,171.930 M 117.180,171.930 119.392,169.879 M 46.685,172.114 46.688,167.929 M 47.847,165.895 58.706,168.824 M 57.529,158.730 58.706,168.824 M 82.409,166.946 85.310,172.701 M 85.310,172.701 87.363,171.261 M 37.431,170.174 43.499,174.788 M 43.499,174.788 46.685,172.114 M 34.133,170.210 45.075,158.901 M 34.133,170.210 37.431,170.174 M 65.162,169.254 65.477,159.796 M 65.162,169.254 71.823,161.785 M 58.706,168.824 60.140,170.175 M 28.469,168.713 37.547,158.733 M 27.205,168.493 27.334,152.042 M 27.205,168.493 28.469,168.713 M 17.061,160.571 26.490,168.739 M 26.490,168.739 27.205,168.493 M 9.944,166.908 24.199,170.366 M 28.469,168.713 32.091,170.745 M 32.091,170.745 34.133,170.210 M 24.199,170.366 24.772,170.372 M 24.772,170.372 26.490,168.739 M 60.140,170.175 64.715,170.757 M 64.715,170.757 65.162,169.254 M 46.685,172.114 50.186,176.586 M 85.290,175.457 85.310,172.701 M 8.096,169.699 9.114,174.542 M 9.114,174.542 24.199,170.366 M 64.715,170.757 66.121,171.993 M 50.186,176.586 54.732,176.483 M 54.732,176.483 60.140,170.175 M 72.103,173.280 78.519,166.165 M 66.121,171.993 70.967,173.571 M 70.967,173.571 72.103,173.280 M 85.290,175.457 95.843,175.781 M 89.276,170.395 95.843,175.781 M 63.469,179.483 66.121,171.993 M 70.967,173.571 71.301,177.042 M 63.469,179.483 65.991,182.882 M 72.103,173.280 82.875,178.406 M 82.875,178.406 85.290,175.457 M 22.024,178.380 24.772,170.372 M 65.991,182.882 70.571,182.129 M 70.571,182.129 71.301,177.042 M 102.431,176.062 108.180,168.273 M 100.611,160.433 101.273,176.248 M 101.273,176.248 102.431,176.062 M 102.431,176.062 109.258,179.793 M 65.677,185.382 65.991,182.882 M 96.143,169.441 100.431,176.493 M 100.431,176.493 101.273,176.248 M 95.843,175.781 100.346,176.570 M 100.346,176.570 100.431,176.493 M 65.007,185.750 65.677,185.382 M 8.881,180.116 22.024,178.380 M 8.460,180.032 9.114,174.542 M 8.460,180.032 8.881,180.116 M 65.677,185.382 70.899,185.576 M 70.571,182.129 70.899,185.576 M 115.567,181.347 117.180,171.930 M 109.258,179.793 113.335,181.682 M 113.335,181.682 115.567,181.347 M 119.392,169.879 127.000,175.339 M 115.567,181.347 119.444,182.739 M 119.444,182.739 127.000,180.430 M 59.126,185.175 63.469,179.483 M 59.126,185.175 65.007,185.750 M 122.708,158.235 127.000,157.854 M 122.950,146.746 127.000,147.718 M 0.000,160.354 8.391,159.655 M 0.000,167.931 8.096,169.699 M 54.732,176.483 56.752,186.488 M 56.752,186.488 59.126,185.175 M 32.091,170.745 38.527,184.702 M 38.527,184.702 43.499,174.788 M 8.881,180.116 19.578,189.333 M 121.200,81.622 127.000,81.390 M 0.000,186.402 8.460,180.032 M 0.000,188.098 19.578,189.333 M 119.699,168.280 127.000,166.529 M 38.527,184.702 39.513,190.500 M 39.975,190.500 50.186,176.586 M 71.301,177.042 82.866,190.500 M 82.875,178.406 84.566,190.500 M 19.578,189.333 21.684,190.500 M 22.024,178.380 25.900,190.500 M 94.018,190.500 100.346,176.570 M 70.899,185.576 73.786,190.500 M 0.000,151.064 9.211,150.392 M 54.487,190.500 56.752,186.488 M 119.539,136.297 127.000,137.606 M 104.156,190.500 109.258,179.793 M 0.000,141.459 8.598,140.550 M 110.151,190.500 113.335,181.682 M 65.007,185.750 66.521,190.500 M 125.460,125.623 127.000,125.662 M 0.000,4.957 8.181,7.954 M 119.444,182.739 120.440,190.500 M 126.977,7.637 127.000,7.625 " />
    </pattern>
    <pattern
       patternUnits="userSpaceOnUse"
       patternTransform="translate(354.54166666,5.29166560823)"
       height="190.50006085"
       width="153.458343914"
       id="Voronoi4834">
      <path
         id="path6228"
         style="stroke:#000000;stroke-width:0.264583333328"
         d="M 41.566,6.940 43.416,0.000 M 110.763,15.512 118.634,8.726 M 118.634,8.726 119.380,0.000 M 10.590,22.907 19.446,10.940 M 41.566,6.940 48.773,23.076 M 17.648,31.085 21.914,25.466 M 118.634,8.726 121.883,22.544 M 10.590,22.907 11.586,26.496 M 11.586,26.496 21.914,25.466 M 11.314,27.375 11.586,26.496 M 11.314,27.375 17.648,31.085 M 48.773,23.076 57.381,23.494 M 49.452,0.000 57.381,23.494 M 121.883,22.544 134.369,24.568 M 21.914,25.466 29.156,23.405 M 19.446,10.940 29.156,23.405 M 134.369,24.568 138.679,23.475 M 138.679,23.475 141.940,0.000 M 80.993,0.000 89.068,17.513 M 89.068,17.513 116.755,0.000 M 9.884,30.009 11.314,27.375 M 89.068,17.513 89.098,17.861 M 89.098,17.861 110.763,15.512 M 89.093,17.993 89.098,17.861 M 29.156,23.405 31.637,24.918 M 31.637,24.918 41.566,6.940 M 57.381,23.494 60.199,25.337 M 60.199,25.337 71.446,0.000 M 72.755,27.836 89.093,17.993 M 89.093,17.993 92.455,23.236 M 36.066,27.456 48.773,23.076 M 60.199,25.337 60.610,26.019 M 60.610,26.019 72.755,27.836 M 31.637,24.918 32.423,26.410 M 32.423,26.410 36.066,27.456 M 59.078,29.990 60.610,26.019 M 127.679,38.850 134.369,24.568 M 92.455,23.236 106.802,33.810 M 106.802,33.810 110.763,15.512 M 110.939,34.913 121.883,22.544 M 39.580,44.971 39.584,44.870 M 106.802,33.810 107.806,34.808 M 107.806,34.808 110.939,34.913 M 9.884,30.009 10.963,40.667 M 39.584,44.870 48.180,41.270 M 36.066,27.456 48.180,41.270 M 110.939,34.913 117.957,40.493 M 117.957,40.493 127.679,38.850 M 10.963,40.667 21.131,42.286 M 17.648,31.085 21.131,42.286 M 83.801,45.051 92.455,23.236 M 138.679,23.475 152.887,36.969 M 48.180,41.270 52.746,42.615 M 52.746,42.615 59.078,29.990 M 21.131,42.286 24.408,43.271 M 24.408,43.271 32.423,26.410 M 24.408,43.271 24.801,44.111 M 24.801,44.111 39.584,44.870 M 127.679,38.850 141.203,45.461 M 141.203,45.461 152.887,36.969 M 24.801,44.111 24.892,46.971 M 83.801,45.051 99.986,47.996 M 99.986,47.996 107.806,34.808 M 139.875,48.300 141.203,45.461 M 59.078,29.990 74.664,48.157 M 52.746,42.615 55.090,47.653 M 55.090,47.653 74.664,48.157 M 117.957,40.493 120.890,51.749 M 39.580,44.971 41.608,56.288 M 72.755,27.836 76.597,48.301 M 76.597,48.301 83.801,45.051 M 74.664,48.157 76.550,48.369 M 76.550,48.369 76.597,48.301 M 76.550,48.369 76.669,49.266 M 54.286,50.599 55.090,47.653 M 120.890,51.749 127.151,54.779 M 127.151,54.779 139.875,48.300 M 0.000,46.293 10.963,40.667 M 139.875,48.300 141.944,57.114 M 41.608,56.288 51.201,55.293 M 51.201,55.293 54.286,50.599 M 35.779,58.278 39.580,44.971 M 35.779,58.278 41.608,56.288 M 24.892,46.971 35.446,58.452 M 35.446,58.452 35.779,58.278 M 127.151,54.779 128.538,61.444 M 0.000,49.155 17.315,59.508 M 17.315,59.508 24.892,46.971 M 76.669,49.266 86.890,61.506 M 34.584,63.085 35.446,58.452 M 34.584,63.085 51.352,63.490 M 51.201,55.293 51.352,63.490 M 34.541,63.216 34.584,63.085 M 54.286,50.599 68.725,66.074 M 68.725,66.074 76.669,49.266 M 128.538,61.444 136.518,68.534 M 136.518,68.534 141.944,57.114 M 136.518,68.534 136.787,69.532 M 17.315,59.508 17.678,67.578 M 17.678,67.578 24.326,70.053 M 24.326,70.053 34.541,63.216 M 99.986,47.996 102.197,65.801 M 102.197,65.801 105.113,66.504 M 105.113,66.504 120.890,51.749 M 86.890,61.506 99.397,67.068 M 99.397,67.068 102.197,65.801 M 105.113,66.504 113.030,72.996 M 113.030,72.996 128.538,61.444 M 94.023,74.811 99.397,67.068 M 127.906,78.452 136.787,69.532 M 113.030,72.996 114.878,75.832 M 114.878,75.832 127.906,78.452 M 68.274,74.536 68.725,66.074 M 68.274,74.536 86.890,61.506 M 24.326,70.053 29.347,79.959 M 127.906,78.452 129.689,82.160 M 19.514,86.373 29.347,79.959 M 51.352,63.490 53.663,77.991 M 34.541,63.216 49.928,79.230 M 49.928,79.230 53.663,77.991 M 49.330,79.686 49.928,79.230 M 29.347,79.959 36.003,83.874 M 0.051,77.670 17.678,67.578 M 0.051,77.670 19.514,86.373 M 36.003,83.874 40.395,84.140 M 40.395,84.140 49.330,79.686 M 121.253,92.790 129.689,82.160 M 53.663,77.991 66.442,80.387 M 66.442,80.387 68.274,74.536 M 66.442,80.387 66.757,80.742 M 66.757,80.742 94.023,74.811 M 112.139,89.706 114.878,75.832 M 106.931,91.987 112.139,89.706 M 112.139,89.706 116.238,93.386 M 116.238,93.386 121.253,92.790 M 49.330,79.686 50.473,98.816 M 0.000,77.681 0.051,77.670 M 129.689,82.160 138.445,92.086 M 94.023,74.811 95.389,92.830 M 95.389,92.830 106.931,91.987 M 121.253,92.790 134.127,96.810 M 134.127,96.810 138.445,92.086 M 40.395,84.140 40.762,102.567 M 40.762,102.567 41.387,103.109 M 41.387,103.109 43.022,103.662 M 43.022,103.662 50.473,98.816 M 90.403,98.498 95.389,92.830 M 90.403,98.498 99.814,106.004 M 99.814,106.004 108.257,106.812 M 106.931,91.987 108.257,106.812 M 21.363,103.571 36.003,83.874 M 21.363,103.571 40.762,102.567 M 19.514,86.373 21.280,103.609 M 21.280,103.609 21.363,103.571 M 43.022,103.662 49.813,111.227 M 99.784,114.931 99.814,106.004 M 99.784,114.931 100.685,116.152 M 0.000,86.343 19.219,105.722 M 19.219,105.722 21.280,103.609 M 49.813,111.227 73.247,101.965 M 50.473,98.816 73.247,101.965 M 73.247,101.965 73.502,101.917 M 66.757,80.742 73.502,101.917 M 129.488,110.165 134.127,96.810 M 73.502,101.917 75.610,103.900 M 75.610,103.900 90.403,98.498 M 138.445,92.086 153.458,89.944 M 136.787,69.532 153.458,76.671 M 82.331,114.035 99.784,114.931 M 116.238,93.386 120.044,112.787 M 120.044,112.787 129.488,110.165 M 17.609,111.200 19.219,105.722 M 75.610,103.900 76.014,108.084 M 76.014,108.084 82.331,114.035 M 48.317,119.408 49.813,111.227 M 108.257,106.812 119.056,113.654 M 119.056,113.654 120.044,112.787 M 100.685,116.152 119.052,113.662 M 119.052,113.662 119.056,113.654 M 34.588,120.088 41.387,103.109 M 34.588,120.088 42.872,122.376 M 42.872,122.376 48.317,119.408 M 98.659,125.715 100.685,116.152 M 82.331,114.035 89.964,125.135 M 89.964,125.135 98.659,125.715 M 129.488,110.165 146.973,119.433 M 117.558,123.489 119.052,113.662 M 142.735,125.377 146.973,119.433 M 116.339,124.718 117.558,123.489 M 17.609,111.200 19.434,121.588 M 19.434,121.588 34.588,120.088 M 98.659,125.715 105.837,130.916 M 105.837,130.916 116.339,124.718 M 48.317,119.408 65.582,128.359 M 65.582,128.359 76.014,108.084 M 117.558,123.489 132.117,134.246 M 132.117,134.246 142.735,125.377 M 104.935,135.381 105.837,130.916 M 116.339,124.718 119.553,143.717 M 15.294,132.068 19.434,121.588 M 119.553,143.717 131.773,143.305 M 131.773,143.305 132.117,134.246 M 104.935,135.381 111.189,148.002 M 111.189,148.002 119.553,143.717 M 42.872,122.376 44.775,144.841 M 15.294,132.068 22.013,142.870 M 22.013,142.870 44.775,144.841 M 65.582,128.359 66.032,142.246 M 141.944,57.114 153.458,62.326 M 81.123,147.208 89.964,125.135 M 81.123,147.208 104.935,135.381 M 109.479,154.114 111.189,148.002 M 131.773,143.305 137.490,151.788 M 109.479,154.114 132.046,156.070 M 132.046,156.070 137.490,151.788 M 44.775,144.841 50.954,148.211 M 50.954,148.211 66.032,142.246 M 66.032,142.246 78.750,148.496 M 78.750,148.496 79.954,148.546 M 79.954,148.546 81.123,147.208 M 79.954,148.546 86.180,153.931 M 49.704,155.981 50.954,148.211 M 137.490,151.788 149.684,154.945 M 142.735,125.377 149.684,154.945 M 71.112,166.902 78.750,148.496 M 105.483,159.841 109.479,154.114 M 86.180,153.931 93.777,159.825 M 93.777,159.825 105.483,159.841 M 125.661,167.449 132.046,156.070 M 105.483,159.841 110.529,166.730 M 110.529,166.730 125.661,167.449 M 33.054,169.036 49.704,155.981 M 110.511,169.125 110.529,166.730 M 16.851,162.968 22.013,142.870 M 18.992,166.003 33.054,169.036 M 16.851,162.968 18.005,165.560 M 18.005,165.560 18.992,166.003 M 49.704,155.981 56.008,172.322 M 56.008,172.322 71.112,166.902 M 18.992,166.003 26.417,181.025 M 14.161,173.881 18.005,165.560 M 71.112,166.902 76.644,178.310 M 76.644,178.310 86.180,153.931 M 89.204,177.951 93.777,159.825 M 76.644,178.310 78.746,183.971 M 78.746,183.971 89.204,177.951 M 89.204,177.951 104.434,186.860 M 104.434,186.860 110.511,169.125 M 26.417,181.025 44.356,186.983 M 33.054,169.036 44.356,186.983 M 146.973,119.433 153.458,118.052 M 44.356,186.983 47.397,190.500 M 52.785,190.500 56.008,172.322 M 74.816,190.500 78.746,183.971 M 110.511,169.125 129.307,190.500 M 125.661,167.449 138.765,190.500 M 0.000,107.960 17.609,111.200 M 0.000,133.322 15.294,132.068 M 0.000,161.206 16.851,162.968 M 9.483,190.500 14.161,173.881 M 23.406,190.500 26.417,181.025 M 152.887,36.969 153.458,36.993 M 16.618,0.000 19.446,10.940 M 0.000,17.740 10.590,22.907 M 0.000,28.703 9.884,30.009 M 0.000,174.755 14.161,173.881 M 104.434,186.860 105.897,190.500 M 149.684,154.945 153.458,156.583 " />
    </pattern>
    <pattern
       patternTransform="translate(-31.741412,2.2433477)"
       id="pattern6305"
       xlink:href="#Voronoi4834-4"
       inkscape:collect="always" />
    <pattern
       patternUnits="userSpaceOnUse"
       patternTransform="translate(354.54166666,5.29166560823)"
       height="190.50006085"
       width="153.458343914"
       id="Voronoi4834-4">
      <path
         id="path6228-9"
         style="stroke:#000000;stroke-width:0.264583333328"
         d="M 41.566,6.940 43.416,0.000 M 110.763,15.512 118.634,8.726 M 118.634,8.726 119.380,0.000 M 10.590,22.907 19.446,10.940 M 41.566,6.940 48.773,23.076 M 17.648,31.085 21.914,25.466 M 118.634,8.726 121.883,22.544 M 10.590,22.907 11.586,26.496 M 11.586,26.496 21.914,25.466 M 11.314,27.375 11.586,26.496 M 11.314,27.375 17.648,31.085 M 48.773,23.076 57.381,23.494 M 49.452,0.000 57.381,23.494 M 121.883,22.544 134.369,24.568 M 21.914,25.466 29.156,23.405 M 19.446,10.940 29.156,23.405 M 134.369,24.568 138.679,23.475 M 138.679,23.475 141.940,0.000 M 80.993,0.000 89.068,17.513 M 89.068,17.513 116.755,0.000 M 9.884,30.009 11.314,27.375 M 89.068,17.513 89.098,17.861 M 89.098,17.861 110.763,15.512 M 89.093,17.993 89.098,17.861 M 29.156,23.405 31.637,24.918 M 31.637,24.918 41.566,6.940 M 57.381,23.494 60.199,25.337 M 60.199,25.337 71.446,0.000 M 72.755,27.836 89.093,17.993 M 89.093,17.993 92.455,23.236 M 36.066,27.456 48.773,23.076 M 60.199,25.337 60.610,26.019 M 60.610,26.019 72.755,27.836 M 31.637,24.918 32.423,26.410 M 32.423,26.410 36.066,27.456 M 59.078,29.990 60.610,26.019 M 127.679,38.850 134.369,24.568 M 92.455,23.236 106.802,33.810 M 106.802,33.810 110.763,15.512 M 110.939,34.913 121.883,22.544 M 39.580,44.971 39.584,44.870 M 106.802,33.810 107.806,34.808 M 107.806,34.808 110.939,34.913 M 9.884,30.009 10.963,40.667 M 39.584,44.870 48.180,41.270 M 36.066,27.456 48.180,41.270 M 110.939,34.913 117.957,40.493 M 117.957,40.493 127.679,38.850 M 10.963,40.667 21.131,42.286 M 17.648,31.085 21.131,42.286 M 83.801,45.051 92.455,23.236 M 138.679,23.475 152.887,36.969 M 48.180,41.270 52.746,42.615 M 52.746,42.615 59.078,29.990 M 21.131,42.286 24.408,43.271 M 24.408,43.271 32.423,26.410 M 24.408,43.271 24.801,44.111 M 24.801,44.111 39.584,44.870 M 127.679,38.850 141.203,45.461 M 141.203,45.461 152.887,36.969 M 24.801,44.111 24.892,46.971 M 83.801,45.051 99.986,47.996 M 99.986,47.996 107.806,34.808 M 139.875,48.300 141.203,45.461 M 59.078,29.990 74.664,48.157 M 52.746,42.615 55.090,47.653 M 55.090,47.653 74.664,48.157 M 117.957,40.493 120.890,51.749 M 39.580,44.971 41.608,56.288 M 72.755,27.836 76.597,48.301 M 76.597,48.301 83.801,45.051 M 74.664,48.157 76.550,48.369 M 76.550,48.369 76.597,48.301 M 76.550,48.369 76.669,49.266 M 54.286,50.599 55.090,47.653 M 120.890,51.749 127.151,54.779 M 127.151,54.779 139.875,48.300 M 0.000,46.293 10.963,40.667 M 139.875,48.300 141.944,57.114 M 41.608,56.288 51.201,55.293 M 51.201,55.293 54.286,50.599 M 35.779,58.278 39.580,44.971 M 35.779,58.278 41.608,56.288 M 24.892,46.971 35.446,58.452 M 35.446,58.452 35.779,58.278 M 127.151,54.779 128.538,61.444 M 0.000,49.155 17.315,59.508 M 17.315,59.508 24.892,46.971 M 76.669,49.266 86.890,61.506 M 34.584,63.085 35.446,58.452 M 34.584,63.085 51.352,63.490 M 51.201,55.293 51.352,63.490 M 34.541,63.216 34.584,63.085 M 54.286,50.599 68.725,66.074 M 68.725,66.074 76.669,49.266 M 128.538,61.444 136.518,68.534 M 136.518,68.534 141.944,57.114 M 136.518,68.534 136.787,69.532 M 17.315,59.508 17.678,67.578 M 17.678,67.578 24.326,70.053 M 24.326,70.053 34.541,63.216 M 99.986,47.996 102.197,65.801 M 102.197,65.801 105.113,66.504 M 105.113,66.504 120.890,51.749 M 86.890,61.506 99.397,67.068 M 99.397,67.068 102.197,65.801 M 105.113,66.504 113.030,72.996 M 113.030,72.996 128.538,61.444 M 94.023,74.811 99.397,67.068 M 127.906,78.452 136.787,69.532 M 113.030,72.996 114.878,75.832 M 114.878,75.832 127.906,78.452 M 68.274,74.536 68.725,66.074 M 68.274,74.536 86.890,61.506 M 24.326,70.053 29.347,79.959 M 127.906,78.452 129.689,82.160 M 19.514,86.373 29.347,79.959 M 51.352,63.490 53.663,77.991 M 34.541,63.216 49.928,79.230 M 49.928,79.230 53.663,77.991 M 49.330,79.686 49.928,79.230 M 29.347,79.959 36.003,83.874 M 0.051,77.670 17.678,67.578 M 0.051,77.670 19.514,86.373 M 36.003,83.874 40.395,84.140 M 40.395,84.140 49.330,79.686 M 121.253,92.790 129.689,82.160 M 53.663,77.991 66.442,80.387 M 66.442,80.387 68.274,74.536 M 66.442,80.387 66.757,80.742 M 66.757,80.742 94.023,74.811 M 112.139,89.706 114.878,75.832 M 106.931,91.987 112.139,89.706 M 112.139,89.706 116.238,93.386 M 116.238,93.386 121.253,92.790 M 49.330,79.686 50.473,98.816 M 0.000,77.681 0.051,77.670 M 129.689,82.160 138.445,92.086 M 94.023,74.811 95.389,92.830 M 95.389,92.830 106.931,91.987 M 121.253,92.790 134.127,96.810 M 134.127,96.810 138.445,92.086 M 40.395,84.140 40.762,102.567 M 40.762,102.567 41.387,103.109 M 41.387,103.109 43.022,103.662 M 43.022,103.662 50.473,98.816 M 90.403,98.498 95.389,92.830 M 90.403,98.498 99.814,106.004 M 99.814,106.004 108.257,106.812 M 106.931,91.987 108.257,106.812 M 21.363,103.571 36.003,83.874 M 21.363,103.571 40.762,102.567 M 19.514,86.373 21.280,103.609 M 21.280,103.609 21.363,103.571 M 43.022,103.662 49.813,111.227 M 99.784,114.931 99.814,106.004 M 99.784,114.931 100.685,116.152 M 0.000,86.343 19.219,105.722 M 19.219,105.722 21.280,103.609 M 49.813,111.227 73.247,101.965 M 50.473,98.816 73.247,101.965 M 73.247,101.965 73.502,101.917 M 66.757,80.742 73.502,101.917 M 129.488,110.165 134.127,96.810 M 73.502,101.917 75.610,103.900 M 75.610,103.900 90.403,98.498 M 138.445,92.086 153.458,89.944 M 136.787,69.532 153.458,76.671 M 82.331,114.035 99.784,114.931 M 116.238,93.386 120.044,112.787 M 120.044,112.787 129.488,110.165 M 17.609,111.200 19.219,105.722 M 75.610,103.900 76.014,108.084 M 76.014,108.084 82.331,114.035 M 48.317,119.408 49.813,111.227 M 108.257,106.812 119.056,113.654 M 119.056,113.654 120.044,112.787 M 100.685,116.152 119.052,113.662 M 119.052,113.662 119.056,113.654 M 34.588,120.088 41.387,103.109 M 34.588,120.088 42.872,122.376 M 42.872,122.376 48.317,119.408 M 98.659,125.715 100.685,116.152 M 82.331,114.035 89.964,125.135 M 89.964,125.135 98.659,125.715 M 129.488,110.165 146.973,119.433 M 117.558,123.489 119.052,113.662 M 142.735,125.377 146.973,119.433 M 116.339,124.718 117.558,123.489 M 17.609,111.200 19.434,121.588 M 19.434,121.588 34.588,120.088 M 98.659,125.715 105.837,130.916 M 105.837,130.916 116.339,124.718 M 48.317,119.408 65.582,128.359 M 65.582,128.359 76.014,108.084 M 117.558,123.489 132.117,134.246 M 132.117,134.246 142.735,125.377 M 104.935,135.381 105.837,130.916 M 116.339,124.718 119.553,143.717 M 15.294,132.068 19.434,121.588 M 119.553,143.717 131.773,143.305 M 131.773,143.305 132.117,134.246 M 104.935,135.381 111.189,148.002 M 111.189,148.002 119.553,143.717 M 42.872,122.376 44.775,144.841 M 15.294,132.068 22.013,142.870 M 22.013,142.870 44.775,144.841 M 65.582,128.359 66.032,142.246 M 141.944,57.114 153.458,62.326 M 81.123,147.208 89.964,125.135 M 81.123,147.208 104.935,135.381 M 109.479,154.114 111.189,148.002 M 131.773,143.305 137.490,151.788 M 109.479,154.114 132.046,156.070 M 132.046,156.070 137.490,151.788 M 44.775,144.841 50.954,148.211 M 50.954,148.211 66.032,142.246 M 66.032,142.246 78.750,148.496 M 78.750,148.496 79.954,148.546 M 79.954,148.546 81.123,147.208 M 79.954,148.546 86.180,153.931 M 49.704,155.981 50.954,148.211 M 137.490,151.788 149.684,154.945 M 142.735,125.377 149.684,154.945 M 71.112,166.902 78.750,148.496 M 105.483,159.841 109.479,154.114 M 86.180,153.931 93.777,159.825 M 93.777,159.825 105.483,159.841 M 125.661,167.449 132.046,156.070 M 105.483,159.841 110.529,166.730 M 110.529,166.730 125.661,167.449 M 33.054,169.036 49.704,155.981 M 110.511,169.125 110.529,166.730 M 16.851,162.968 22.013,142.870 M 18.992,166.003 33.054,169.036 M 16.851,162.968 18.005,165.560 M 18.005,165.560 18.992,166.003 M 49.704,155.981 56.008,172.322 M 56.008,172.322 71.112,166.902 M 18.992,166.003 26.417,181.025 M 14.161,173.881 18.005,165.560 M 71.112,166.902 76.644,178.310 M 76.644,178.310 86.180,153.931 M 89.204,177.951 93.777,159.825 M 76.644,178.310 78.746,183.971 M 78.746,183.971 89.204,177.951 M 89.204,177.951 104.434,186.860 M 104.434,186.860 110.511,169.125 M 26.417,181.025 44.356,186.983 M 33.054,169.036 44.356,186.983 M 146.973,119.433 153.458,118.052 M 44.356,186.983 47.397,190.500 M 52.785,190.500 56.008,172.322 M 74.816,190.500 78.746,183.971 M 110.511,169.125 129.307,190.500 M 125.661,167.449 138.765,190.500 M 0.000,107.960 17.609,111.200 M 0.000,133.322 15.294,132.068 M 0.000,161.206 16.851,162.968 M 9.483,190.500 14.161,173.881 M 23.406,190.500 26.417,181.025 M 152.887,36.969 153.458,36.993 M 16.618,0.000 19.446,10.940 M 0.000,17.740 10.590,22.907 M 0.000,28.703 9.884,30.009 M 0.000,174.755 14.161,173.881 M 104.434,186.860 105.897,190.500 M 149.684,154.945 153.458,156.583 " />
    </pattern>
  </defs>
  <sodipodi:namedview
     id="base"
     pagecolor="#ffffff"
     bordercolor="#666666"
     borderopacity="1.0"
     inkscape:pageopacity="0.0"
     inkscape:pageshadow="2"
     inkscape:zoom="0.1911398"
     inkscape:cx="990.79809"
     inkscape:cy="385.53928"
     inkscape:document-units="px"
     inkscape:current-layer="layer4"
     showgrid="false"
     units="px"
     inkscape:window-width="1600"
     inkscape:window-height="837"
     inkscape:window-x="-8"
     inkscape:window-y="-8"
     inkscape:window-maximized="1" />
  <metadata
     id="metadata5">
    <rdf:RDF>
      <cc:Work
         rdf:about="">
        <dc:format>image/svg+xml</dc:format>
        <dc:type
           rdf:resource="http://purl.org/dc/dcmitype/StillImage" />
        <dc:title />
      </cc:Work>
    </rdf:RDF>
  </metadata>
  <g
     inkscape:groupmode="layer"
     id="layer5"
     inkscape:label="background">
    <rect
       style="display:inline;opacity:1;fill:#fdf6e3;fill-opacity:1;stroke-width:0.48819846"
       id="rect969-7"
       width="508"
       height="285.75"
       x="0"
       y="6.2500055e-07" />
  </g>
  <g
     inkscape:groupmode="layer"
     id="layer8"
     inkscape:label="thumbnail"
     style="display:inline">
    <rect
       style="fill:#859900;fill-opacity:1;stroke-width:0.26458332"
       id="rect4600"
       width="269.92676"
       height="679.66174"
       x="-169.08768"
       y="-35.457359"
       transform="rotate(20)" />
    <rect
       style="fill:#859900;fill-opacity:1;stroke-width:0.26458332"
       id="rect4600-6"
       width="269.92676"
       height="679.66174"
       x="435.50906"
       y="-334.70786"
       transform="rotate(20)" />
  </g>
  <g
     inkscape:groupmode="layer"
     id="layer9"
     inkscape:label="foreground"
     style="display:inline">
    <rect
       style="display:inline;opacity:1;fill:#cb4b16;fill-opacity:1;stroke-width:0.11962071"
       id="rect967-1-7"
       width="508"
       height="5.2916665"
       x="0"
       y="3.2946554e-07" />
    <rect
       style="display:inline;opacity:1;fill:#cb4b16;fill-opacity:1;stroke-width:0.08458462"
       id="rect967-1-7-3"
       width="508"
       height="2.6458333"
       x="0"
       y="283.10422" />
    <rect
       style="fill:#ffffff;fill-opacity:1;stroke-width:0.41381121"
       id="rect4607-3"
       width="1404.5858"
       height="379.83768"
       x="-450.82388"
       y="-379.83771" />
    <rect
       style="fill:#ffffff;fill-opacity:1;stroke-width:0.3866801"
       id="rect4607-3-7"
       width="1226.4432"
       height="379.83768"
       x="-452.20813"
       y="285.75006" />
    <rect
       style="fill:#ffffff;fill-opacity:1;stroke-width:0.19934182"
       id="rect4607-3-4"
       width="325.94223"
       height="379.83768"
       x="-325.94223"
       y="3.2946554e-07" />
    <rect
       style="display:inline;fill:#ffffff;fill-opacity:1;stroke-width:0.21489771"
       id="rect4607-3-4-7"
       width="378.79776"
       height="379.83768"
       x="508"
       y="3.2946556e-07" />
  </g>
  <g
     inkscape:groupmode="layer"
     id="layer6"
     inkscape:label="layout-16:9"
     style="display:none;opacity:1">
    <path
       style="display:inline;opacity:0.87999998;fill:#859900;fill-opacity:1;stroke-width:0.0832525"
       d="M 10.583333,195.79173 H 503.50208 l -0.79375,2.64584 H 9.7895833 Z"
       id="rect967-1-7-7"
       inkscape:connector-curvature="0"
       sodipodi:nodetypes="ccccc" />
    <rect
       y="5.2916656"
       x="354.54166"
       height="190.50006"
       width="153.45834"
       id="rect6151"
       style="opacity:0.34000017;fill:url(#Voronoi4834);fill-opacity:1;stroke-width:0.26458332" />
    <rect
       y="2.2433476"
       x="-31.74136"
       height="190.50006"
       width="153.45834"
       id="rect6151-3"
       style="display:inline;opacity:0.34000017;fill:url(#pattern6305);fill-opacity:1;stroke-width:0.26458332"
       transform="scale(-1,1)" />
    <rect
       style="fill:#eee8d5;fill-opacity:1;stroke-width:0.32546565"
       id="rect969"
       width="338.66666"
       height="190.5"
       x="15.874991"
       y="5.2916656" />
  </g>
  <g
     inkscape:groupmode="layer"
     id="layer7"
     inkscape:label="solarized"
     style="display:inline">
    <g
       transform="translate(-1.2235088,28.415944)"
       id="g884">
      <rect
         y="163.16991"
         x="-33.332912"
         height="7.9375"
         width="7.9375"
         id="rect6748"
         style="fill:#859900;fill-opacity:1;fill-rule:evenodd;stroke:none;stroke-width:0.23505972px;stroke-linecap:butt;stroke-linejoin:miter;stroke-opacity:1" />
      <rect
         transform="matrix(0.26458333,0,0,0.26458333,-33.428162,44.107429)"
         y="420"
         x="0.36000001"
         height="30"
         width="30"
         id="rect6748-1"
         style="fill:#2aa198;fill-opacity:1;fill-rule:evenodd;stroke:none;stroke-width:0.88841468px;stroke-linecap:butt;stroke-linejoin:miter;stroke-opacity:1;filter:url(#filter6889)" />
      <rect
         y="147.29494"
         x="-33.332912"
         height="7.9375"
         width="7.9375"
         id="rect6748-1-4"
         style="fill:#268bd2;fill-opacity:1;fill-rule:evenodd;stroke:none;stroke-width:0.23505972px;stroke-linecap:butt;stroke-linejoin:miter;stroke-opacity:1" />
      <rect
         y="139.35744"
         x="-33.332912"
         height="7.9375"
         width="7.9375"
         id="rect6748-1-4-5"
         style="fill:#6c71c4;fill-opacity:1;fill-rule:evenodd;stroke:none;stroke-width:0.23505972px;stroke-linecap:butt;stroke-linejoin:miter;stroke-opacity:1" />
      <rect
         y="131.41994"
         x="-33.332912"
         height="7.9375"
         width="7.9375"
         id="rect6748-1-4-5-8"
         style="fill:#d33682;fill-opacity:1;fill-rule:evenodd;stroke:none;stroke-width:0.23505972px;stroke-linecap:butt;stroke-linejoin:miter;stroke-opacity:1" />
      <rect
         y="123.48243"
         x="-33.332912"
         height="7.9375"
         width="7.9375"
         id="rect6748-1-4-5-8-9"
         style="fill:#dc322f;fill-opacity:1;fill-rule:evenodd;stroke:none;stroke-width:0.23505972px;stroke-linecap:butt;stroke-linejoin:miter;stroke-opacity:1" />
      <rect
         y="115.54493"
         x="-33.332912"
         height="7.9375"
         width="7.9375"
         id="rect6748-1-4-5-8-9-5"
         style="fill:#cb4b16;fill-opacity:1;fill-rule:evenodd;stroke:none;stroke-width:0.23505972px;stroke-linecap:butt;stroke-linejoin:miter;stroke-opacity:1" />
      <rect
         y="107.60743"
         x="-33.332912"
         height="7.9375"
         width="7.9375"
         id="rect6748-1-4-5-8-9-5-5"
         style="fill:#b58900;fill-opacity:1;fill-rule:evenodd;stroke:none;stroke-width:0.23505972px;stroke-linecap:butt;stroke-linejoin:miter;stroke-opacity:1" />
      <rect
         y="99.66993"
         x="-33.332912"
         height="7.9375"
         width="7.9375"
         id="rect6748-1-4-5-8-9-5-5-2"
         style="fill:#fdf6e3;fill-opacity:1;fill-rule:evenodd;stroke:none;stroke-width:0.23505972px;stroke-linecap:butt;stroke-linejoin:miter;stroke-opacity:1" />
      <rect
         y="91.73243"
         x="-33.332912"
         height="7.9375"
         width="7.9375"
         id="rect6748-1-4-5-8-9-5-5-2-7"
         style="fill:#eee8d5;fill-opacity:1;fill-rule:evenodd;stroke:none;stroke-width:0.23505972px;stroke-linecap:butt;stroke-linejoin:miter;stroke-opacity:1" />
      <rect
         y="83.79493"
         x="-33.332912"
         height="7.9375"
         width="7.9375"
         id="rect6748-1-4-5-8-9-5-5-2-8"
         style="fill:#93a1a1;fill-opacity:1;fill-rule:evenodd;stroke:none;stroke-width:0.23505972px;stroke-linecap:butt;stroke-linejoin:miter;stroke-opacity:1" />
      <rect
         y="75.85743"
         x="-33.332912"
         height="7.9375"
         width="7.9375"
         id="rect6748-1-4-5-8-9-5-5-2-7-1"
         style="fill:#839496;fill-opacity:1;fill-rule:evenodd;stroke:none;stroke-width:0.23505972px;stroke-linecap:butt;stroke-linejoin:miter;stroke-opacity:1" />
      <rect
         y="67.91993"
         x="-33.332912"
         height="7.9375"
         width="7.9375"
         id="rect6748-1-4-5-8-9-5-5-2-8-1"
         style="fill:#657b83;fill-opacity:1;fill-rule:evenodd;stroke:none;stroke-width:0.23505972px;stroke-linecap:butt;stroke-linejoin:miter;stroke-opacity:1" />
      <rect
         y="59.98243"
         x="-33.332912"
         height="7.9375"
         width="7.9375"
         id="rect6748-1-4-5-8-9-5-5-2-7-1-4"
         style="fill:#586e75;fill-opacity:1;fill-rule:evenodd;stroke:none;stroke-width:0.23505972px;stroke-linecap:butt;stroke-linejoin:miter;stroke-opacity:1" />
      <rect
         y="52.04493"
         x="-33.332912"
         height="7.9375"
         width="7.9375"
         id="rect6748-1-4-5-8-9-5-5-2-8-1-4"
         style="fill:#073642;fill-opacity:1;fill-rule:evenodd;stroke:none;stroke-width:0.23505972px;stroke-linecap:butt;stroke-linejoin:miter;stroke-opacity:1" />
      <rect
         y="44.10743"
         x="-33.332912"
         height="7.9375"
         width="7.9375"
         id="rect6748-1-4-5-8-9-5-5-2-7-1-4-6"
         style="fill:#002b36;fill-opacity:1;fill-rule:evenodd;stroke:none;stroke-width:0.23505972px;stroke-linecap:butt;stroke-linejoin:miter;stroke-opacity:1" />
    </g>
  </g>
  <g
     inkscape:groupmode="layer"
     id="layer2"
     inkscape:label="chroma"
     style="display:none">
    <rect
       id="rect11"
       width="508"
       height="285.75"
       x="0"
       y="6.2500044e-07"
       style="fill:#00ff00;stroke-width:0.29002428" />
  </g>
  <g
     inkscape:label="logo"
     inkscape:groupmode="layer"
     id="layer1"
     transform="translate(0,-11.249966)"
     style="display:none">
    <rect
       transform="translate(0,11.249966)"
       style="fill:#002b36;fill-opacity:1;stroke-width:0.28441048"
       id="rect13"
       width="42.333332"
       height="42.333332"
       x="449.79178"
       y="15.875002" />
  </g>
  <g
     inkscape:groupmode="layer"
     id="layer3"
     inkscape:label="lowerthird"
     style="display:none">
    <rect
       transform="translate(0,-11.249966)"
       style="fill:#002b36;fill-opacity:1;stroke-width:0.24973485"
       id="rect4524"
       width="338.66666"
       height="31.75"
       x="0"
       y="254.66664" />
  </g>
  <g
     inkscape:groupmode="layer"
     id="layer4"
     inkscape:label="TEXT"
     style="display:inline">
    <text
       xml:space="preserve"
       style="font-style:normal;font-weight:normal;font-size:10.58333302px;line-height:1.25;font-family:sans-serif;letter-spacing:0px;word-spacing:0px;fill:#ffe680;fill-opacity:1;stroke:none;stroke-width:0.26458332"
       x="22.678572"
       y="306.16061"
       id="text828"><tspan
         sodipodi:role="line"
         id="tspan826"
         x="22.678572"
         y="306.16061"
         style="font-style:normal;font-variant:normal;font-weight:normal;font-stretch:normal;font-size:10.58333302px;font-family:'Linux Libertine O';-inkscape-font-specification:'Linux Libertine O, Normal';font-variant-ligatures:normal;font-variant-caps:normal;font-variant-numeric:normal;font-feature-settings:normal;text-align:start;writing-mode:lr-tb;text-anchor:start;fill:#ffe680;stroke-width:0.26458332">Foo Bar</tspan></text>
    <text
       xml:space="preserve"
       style="font-style:normal;font-variant:normal;font-weight:normal;font-stretch:normal;font-size:16.93333244px;line-height:1.25;font-family:sans-serif;-inkscape-font-specification:'sans-serif, Normal';font-variant-ligatures:normal;font-variant-caps:normal;font-variant-numeric:normal;font-feature-settings:normal;text-align:center;letter-spacing:0px;word-spacing:0px;writing-mode:lr-tb;text-anchor:middle;display:inline;opacity:1;fill:#eee8d5;fill-opacity:1;stroke:none;stroke-width:0.26458332"
       x="-78.727768"
       y="501.94547"
       id="text4722"
       transform="rotate(-90)"><tspan
         sodipodi:role="line"
         id="tspan4726"
         x="-78.727768"
         y="501.94547">www.cprima.net</tspan></text>
    <flowRoot
       xml:space="preserve"
       id="flowRoot4728"
       style="font-style:normal;font-weight:normal;font-size:40px;line-height:1.25;font-family:sans-serif;letter-spacing:0px;word-spacing:0px;fill:#002b36;fill-opacity:1;stroke:none"
       transform="matrix(0.26458333,0,0,0.26458333,-12.458159,31.515985)"><flowRegion
         id="flowRegion4730"
         style="fill:#002b36;fill-opacity:1"><rect
           id="rect4732"
           width="1175.2883"
           height="1060.7805"
           x="403.9743"
           y="4.4219642"
           style="fill:#002b36;fill-opacity:1" /></flowRegion><flowPara
         id="flowPara4734"
         style="font-style:normal;font-variant:normal;font-weight:normal;font-stretch:normal;font-size:170.66667175px;font-family:'Linux Libertine O';-inkscape-font-specification:'Linux Libertine O, Normal';font-variant-ligatures:normal;font-variant-caps:normal;font-variant-numeric:normal;font-feature-settings:normal;text-align:start;writing-mode:lr-tb;text-anchor:start;fill:#002b36;fill-opacity:1">Google Apps:</flowPara><flowPara
         style="font-style:normal;font-variant:normal;font-weight:normal;font-stretch:normal;font-size:170.66667175px;font-family:'Linux Libertine O';-inkscape-font-specification:'Linux Libertine O, Normal';font-variant-ligatures:normal;font-variant-caps:normal;font-variant-numeric:normal;font-feature-settings:normal;text-align:start;writing-mode:lr-tb;text-anchor:start;fill:#002b36;fill-opacity:1"
         id="flowPara4740">script w/ trigger,</flowPara><flowPara
         style="font-style:normal;font-variant:normal;font-weight:normal;font-stretch:normal;font-size:170.66667175px;font-family:'Linux Libertine O';-inkscape-font-specification:'Linux Libertine O, Normal';font-variant-ligatures:normal;font-variant-caps:normal;font-variant-numeric:normal;font-feature-settings:normal;text-align:start;writing-mode:lr-tb;text-anchor:start;fill:#002b36;fill-opacity:1"
         id="flowPara4736">clasp,</flowPara><flowPara
         style="font-style:normal;font-variant:normal;font-weight:normal;font-stretch:normal;font-size:170.66667175px;font-family:'Linux Libertine O';-inkscape-font-specification:'Linux Libertine O, Normal';font-variant-ligatures:normal;font-variant-caps:normal;font-variant-numeric:normal;font-feature-settings:normal;text-align:start;writing-mode:lr-tb;text-anchor:start;fill:#002b36;fill-opacity:1"
         id="flowPara4738">Git</flowPara></flowRoot>    <flowRoot
       xml:space="preserve"
       id="flowRoot4728-5"
       style="font-style:normal;font-variant:normal;font-weight:normal;font-stretch:normal;font-size:96px;line-height:1.25;font-family:'Linux Libertine O';-inkscape-font-specification:'Linux Libertine O, Normal';font-variant-ligatures:normal;font-variant-caps:normal;font-variant-numeric:normal;font-feature-settings:normal;text-align:end;letter-spacing:0px;word-spacing:0px;writing-mode:lr-tb;text-anchor:end;display:inline;fill:#002b36;fill-opacity:1;stroke:none"
       transform="matrix(0.26458333,0,0,0.26458333,85.748908,252.60054)"><flowRegion
         id="flowRegion4730-4"
         style="font-style:normal;font-variant:normal;font-weight:normal;font-stretch:normal;font-size:96px;font-family:'Linux Libertine O';-inkscape-font-specification:'Linux Libertine O, Normal';font-variant-ligatures:normal;font-variant-caps:normal;font-variant-numeric:normal;font-feature-settings:normal;text-align:end;writing-mode:lr-tb;text-anchor:end;fill:#002b36;fill-opacity:1"><rect
           id="rect4732-2"
           width="1175.2883"
           height="1060.7805"
           x="403.9743"
           y="4.4219642"
           style="font-style:normal;font-variant:normal;font-weight:normal;font-stretch:normal;font-size:96px;font-family:'Linux Libertine O';-inkscape-font-specification:'Linux Libertine O, Normal';font-variant-ligatures:normal;font-variant-caps:normal;font-variant-numeric:normal;font-feature-settings:normal;text-align:end;writing-mode:lr-tb;text-anchor:end;fill:#002b36;fill-opacity:1" /></flowRegion><flowPara
         id="flowPara4777">Tec#28</flowPara></flowRoot>  </g>
</svg>
